<?xml version="1.0" encoding="utf-8"?>
<!-- Generator: Adobe Illustrator 30.1.0, SVG Export Plug-In . SVG Version: 9.03 Build 0)  -->
<svg version="1.0" id="Layer_1" xmlns="http://www.w3.org/2000/svg" xmlns:xlink="http://www.w3.org/1999/xlink" x="0px" y="0px"
	 viewBox="0 0 1129.98 1129.98" style="enable-background:new 0 0 1129.98 1129.98;" xml:space="preserve">
<style type="text/css">
	.st0{fill:#FFFFFF;}
</style>
<path d="M279.96,922.05l-2.53,8.46l-4.88-5.4c-1.36-1.5-5.05,4.69-6.9,5.55l-12.86,5.96c3.83,2.52,8.39,5.05,11.23,5.95
	c1.69,0.53,4.06-5.81,5.81-5.54l10.55,1.61l-3.6,9.56c6.03,2.24,12.85,4.6,19.66,6.64l24.57,7.36c10.7,3.2,20.62,3.89,32.42-1.18
	l-6.71-13l5.42-4.94c1.54-1.41-0.38-7.88-2.46-7.74c-1.83,0.12-6.48,0.42-5.51,0.36c5.76-15.19-6.07-7.95-3.54-20.14
	c0.62-2.98,2.1-7.06,0.58-7.65l-8.32-3.28c-0.58,0.72,3.18-3.89,4.25-5.39c1.66-12.27-6.79-27.28-11.85-37.32l-3.1-31.09l-6.57,1.32
	l4.16-5.22c0.87-1.09-2.33-3.8-3.95-5.58l5.04-1.64c1.59-0.52,1.35-4.62,1.48-7.27c1.47-30.01,1.83-52.75,13.66-80.7
	c9.27-21.91,20.14-42.04,34.1-60.99c4.08-5.54,7.02-10.91,10.1-16.84c7.09-13.62,13.78-26.28,13.56-42.54
	c-0.07-4.98,9.68-5.7,13.68-2.81c5.73,4.15,9.48,9.32,8.24,16.82l-3.39,20.59c-1.2,7.28-3.7,16.18-5.72,22.29l-5.56,16.82
	l23.03-0.99c6.11-0.26,13.81,0.98,20.7,1.92c5.7,0.78,13.53,9.12,8.55,14.65c-9,10-53.79,10.86-56.18-0.27
	c-0.2-0.92,0.21-4.41,0.19-5.07c-0.01-0.62-0.72-0.73-1.32-0.41c-0.54,0.29-3.76,2.77-4,3.36l-11.82,29.19
	c3.82,0.89,8.56-0.47,11.58-1.66c5.5,2.41,12.27,4.79,18.94,3.86c7.58-1.06,16.34,5.73,22.67,5.57l16.53-0.42
	c10.08-0.25,24.88-6.45,30.2,1.53c1.73,2.6,4.21,10.03,2.12,12.7l-17.82,22.71c4.41-0.26,7.37-1.07,13.27-2.58
	c3.3-1.7,1.18,2.89-0.65,3.54c-7.43,0.47-9.57,4.28-10.36,10.5l-6.14-5.21c-1.46,2.19-2.93,6.06-4.07,5.46l-6.3-3.35l-0.97,13.09
	l-3.76-3.51L445,781.8c-0.07-1.42-5.57-0.89-6.44,0.23c-1.89,2.41,1.77,18.46,7.46,22.29l24.97-20.22
	c7.11,2.69,12.8,0.83,18.28-2.08l6.67,7.65c-2.62,6.47,8.41,15.02-1.68,22.68c-11.83,8.97-11.92,12.89-37.25,10.65
	c-1.36-0.12-5.37-3.19-5.6-1.97l-1.64,8.78c-0.88-0.7-4.84-6.12-6.13-8.48c-0.31-0.57,3.61-2.13,4.07-2.59
	c5.36-5.28-7.45-10.86-24.73,17.29l-3.18-3.46c-0.74-0.8-1.89,0.71-3.57,2.8c-8.11,10.12-6.75-0.79-18.04,8.25
	c0.92-4.48-5.39-15.98-11.26-14.5c-4.09,1.03-5.47,1.25-11.48,0.6c-1.57,9.97,6,29.54,20.2,30.22c8.91-6.86,19.98-19.41,34.47-18.25
	l30.21,2.43c0.92,0.07,3.63-3.4,4.43-2.94l4.08,2.36l15.79,9.14c-2.43,4.5-4.1,8.67-6.41,15.18l-13.24,5.1
	c-0.28,3.31-0.76,8-1.08,8.99c-6.16-1.61-13.96-3.73-16.98,1.54c-3.43,5.99-1.51,14.93,0.69,20.03c-5.08,1.64-9.85,3.27-14.51,5.88
	c50.55,4.84,27.01-7.1,48.7-14.53c-0.41-4.16-1.72-11.93,0.51-14.05c3.17-3.03,10.54-7.03,14.35-8.21l15.3-4.72
	c8.5,5.96,14.91,15.93,20.27,26.21l-7.83-4.16c-5.64-2.99-8.31,15.96-13.76,15.38l0.69-8.56l-14.12,9.25l-6.89-4.22
	c-1.67-1.02-7.72,2.89-6.72,4.61c2.28,3.9,8.85,9.02,12.95,11.65c1.3,3.12-0.95,11.88-3.54,15.22c-9.5,0.94-18.34,7.39-17.9,17.28
	c0.16,3.54,5.3,8.28,8.89,10.17l1.57-6.77l10.92,8.14l4.91-5.01c16.99,12.31,4.6-17.73,28.18-20.83c7.99-1.05,14.65,0.62,20.27,6.78
	l19.94,3.6c-4.67,5.64-11.49,13.8-9.42,20.54c1.18,3.86,3.4,7.19,5.36,8.63c1.97,1.44,9.1,1.21,10.33-0.89
	c1.59-2.72,3.77-7.08,5.85-7.58c2.08-0.51,5.72,0.02,8.96,0.58c13.62,2.34,1.85,5.19,22.92,14.44c0.92,3.13,1.75,11.4,5.07,12.42
	c0.97,0.3,3.6-3.92,4.57-3.66l4.88,1.3c1.94,0.51,6.94-1.39,6.85-2.29c-6.81-4.17-11.93-7.9-13.83-15.61l23.07-5.58l2.67,6.54
	c0.56,1.36,5.22-0.07,6.33,0.22c-0.43,2.92-2.73,7.97-1.17,8.82l6.81,3.71c-0.7,2.34-1.44,4.79-1.13,3.71
	c-8.82-3.93-6.93,0.39-4.47,4.05l27.38-10.71l-16.02-3.85c-0.78-0.19-1.73-3.98-0.93-4.08l4.12-0.51c3.8-0.47,14.24-3.83,12.94-7.38
	l-3.1-8.45c-0.67-1.81,5.85-3.56,7.78-3.4l5.32,0.43c0.91,0.07,1.57,2.89,0.73,3.24l-6.11,2.58c1.15,0.62,5.77,1.11,7.67,0.54
	l5.45-1.65c3.52-1.06,0.71,10,10.07,13.15c0.72,0.76,1.14,4.58,2.26,4.45l4.7-0.55l-3.44-5.04c-0.48-0.7,1.56-3.01,2.33-2.61
	l5.32,2.79l10.11-3.12l-0.47-7.72c0.58,3.49,6.01-30.25,0.36-24.89c9.23-2.64,4.6-13.02,6.53-19.01c2.96-9.2,5.61-18.95,8.02-28.27
	c2.98-11.55,7.47-22.55,5.97-35.36c24.8-2.93,16.57-1.71,39.44-7.84c2.79-0.75,8.12-0.92,10.82-0.17c2.49,0.68,4.5,6.04,5.65,9.67
	c0.72,0.85,3.37,2.35,3.88,1.45c5.57-9.86-8.1-4.85,2.21-17.6c-7.74-3.52-12.89-7.99-17.66-14.44c-13.96-18.9-1.53-11.51-11.8-26.14
	l5.14-7c-6.07,0.76-10.47,2.35-12.76,1.69c-3.86-1.11-10.32-2.76-13.15-4.33l-12.23-6.79c1.48-0.63,6.54-1.7,6.5-3.86l-0.21-10.18
	c-0.17-8.63,0.1-16.6-1.18-25.1l2.2-8.03l-0.37-25.94c-0.03-2.17-2.56-7.07-3.69-8.65c0.77-1.61,2.73-5.83,3.42-8.08
	c0.81-2.62-3.25-7.76-5.46-9.76l4.75-4.66c3.65-3.58-4.42-8.55-0.89-22.99c2.42-9.91-6.2-20.72-6.7-28.61
	c-0.74-11.91-1.7-23.96-9.76-32.92c0.77-4.54,1.6-11.81,0.39-16.06l-11.32-39.91c-3.82-13.47-9.89-25.74-9.2-40.26
	c6.86,3.82,13.6,8.22,16.09,12.79c14.77,27.09,11.51,12.32,25.2,45.4l13.57,32.8l11.65,24.15l10.33,20.42
	c1,1.97-1.28,7.11-0.62,8.93l6.22,15.49l24.86,2.71c4.92,6.77,20.5,17.81,27.44,18.49c-2.72-1.44-16.16,12.33-16.15,10.92
	l-0.07,7.16l-7.68-6.49c-7.2,0.39-15.89,1.62-23.55,3.1l-1.39,16.22c-0.64,7.43-1.96,13.94,1.51,21.18
	c16.56-15.34,11.8-22.77,39.32-19.16c0.17,0.44-0.92-2.39-2.42-6.3c4-0.68,11.55-1.38,16.75-1.61l-2.9,5.22
	c-0.59,1.06,3.37,3.43,3.42,4.66l0.23,5.71c0.07,1.68,4.08,2.9,7.1,4.4c3.08,1.52,0.69,9.21-0.62,12.95l-1.92,5.48
	c-0.51,1.46-5.52,1.28-6.71,2.39l-12.16,11.42l12.43,6.99c0.32,1.79-1.23,6.4,0.16,7.51c1.66,1.33,5.77,2.89,9.24,4.2l-6.67,16.46
	c-9.24,3.15-25.9,16.53-28.71,27.21l26.45-3.35c2.07-1.28,6.18-4.37,8.3-4.25c3.07,0.17,5.94,2.11,9.1,5.39l8.2-1.67l-3.4,5.05
	c-0.5,0.74-0.56,3.95,0.34,3.98l6.28,0.2c5.79,0.19,9.73-1.85,14.51-6.49l4.66,6.19c5.7-4.95,7.41-12.61,4.95-20.47
	c1.74-0.45,7.04-1.51,7.79-0.07l3.51,6.74c3.39,0.3,9.14-5.07,10.1-9.85l-11.72-6.58l12.02-10.91c-4.53-1.56-7.62-1.32-12.6-0.68
	l-3.08-7.64c-6.49,1.82-11.45,1.92-15.89-1.23l3.77-4.24c0.85-0.95,3.28,1.42,4.91,2.45l14.52-3.35c4.92,5.58,9.4,6.77,17.07,5.83
	l13.58,6.58c1.35-4.08,3-13.13,0.76-16.47c-3.1-4.61-10.98,0.45-12.75,4.46l-4.41-7.5l19.62-1.78
	c-0.32-16.27,6.22-79.65-13.23-82.17c4.14-6.31,1.66-15.1-5.88-19.41c1.49-1.23,5.95-7.53,3.71-8.33l-7.12-2.54
	c-1.74-0.62-2.58-6.01-4.37-6.52c-1.76-0.5-7.12,2.79-8.58,1.65l-6.16-4.81l10.83-5.61l-7.62-5.42
	c1.83-11.01-8.11-29.41-17.57-38.71l-14.2-13.97c-1.74-1.71-4.03-7.92-6.45-7.53l-11.88,1.94l2.41-6.83
	c-6.71-7.65-16.02-13.89-25.39-18.4l-8.51-14.46c-3.54-6.01-6.06-9.83-10.34-15.09c-3.63-4.47-5.94-15.79-16.23-25.64l-12.11-11.59
	c-8.96-8.58-15.71-14.6-27.92-19.41l-22.49-8.85c-7.2-2.84-14.57-3.57-21.57-6.97l-32.9-15.97c-8.54-4.15-19.27-3.26-27.73-6.6
	c-4.95-1.95-8.22-2.27-13.58-2.95l-18.28-2.31c-9.3-1.18-17.11-5.73-26.92-3.38l15.22,12.7c10.93,9.12,19.5,18.74,26.55,32.09
	l-3.06,16.69c-10.97-1.01-17.89-7.62-24.55-14.28c-3.06,2.42-5.75,3.66-9.79,3.32l9.77-5.5l-15.66-15.24
	c-10.96-10.66-19.08-20.1-33.92-25.32l-14.6-5.14c-4.78-15.06-17.97-22.28-29.7-32.18c-9.71-8.2-19.65-21.4-25.02-32.05l-7.54-14.97
	c-3.57-7.08-4.33-18.41-7.13-26.69c-7.42-21.98-12.39-43.77-4.64-66.58l-11.16,1.96l7.4-4.02c3.57-1.94,7.14-21.31,1.64-28.57
	l0.02-16.24c-5.42-6.36-17.06-10.9-24.74-12.29c7.42-12.43-4.07-26.88-4.35-34.85l-0.56-16.32c-0.33-9.64,1.11-20.28,3.35-29.58
	c2.36-9.79,3.47-18.33,5.33-27.96l3.01-15.59l6.32-34.94l12.81,8.59c19.1,12.81,7.65,8.65,20.68,24.1c1.07,1.27-2.39,5.44-2.31,7.16
	c1.92,14.04,15.24,26.01,29.95,30.37c3.24,3.95,3.58,12.17,4.16,18.06c1.07,10.73,8.03,21.8,8,32.03
	c-0.04,10.39,0.49,19.37,1.48,29.79l3.28,34.42l0.07,46.79l2.12,27.44c1.44,18.67-0.21,26.79,11.55,48.16l9.98,18.12
	c9.06,16.46,23.49,23.29,39.55,29.46c4.09,1.57,6.96,3.02,11.81,3.68l77.67,10.6l36.79,7.08l43.3,4.66
	c11.47,1.23,23.37,6.12,34.01,12.07l22.83,12.77c8.55,4.78,14.46,7.91,20.62,15.61c10.77,13.45,21.61,28.03,34.25,39.47
	c12.68,11.46,46.7,23.68,59.05,38.85l32.56,40.01c9.34,11.48,23.39,29.69,28.64,43.14c11.32,9.72,23.32,19.52,22.95,36.34
	l-0.35,15.98c-0.63,28.64,8.56-1.32,0.75,38.88c-1.18,6.06-1.71,9.95,3.4,14.89c-1.18,2.45-3.75,6.36-3.19,8.87
	c0.77,3.46,3.81,8.72,5.45,10.54l-4.68,2.57c-1.26,0.69,0.55,4.78,0.96,6.78c-5.05,7.06-8.55,17.83-1.4,24.57
	c-3.7,5.3-5.37,8.94-7.58,13.82l-26,57.54l-3.14,6.6c-0.87,1.83,2.13,6.73,4.04,6.08c3.77-1.28,6.55-1.95,10.81-0.83l-8.23,4.94
	c-1.81,1.09-5.74-2.07-8.74-3.89c-7.94,3.91-12.05,13.48-17.9,20.13L969.67,879l-17.48,13.84l1.48,4.88c0.2,0.67-2.5-0.03-3.56-0.33
	l-5.62-1.57c-1.54-0.43-3.21,4.5-3.54,5.13c-1.24-3.2-31.54,5.67-34.03,9.2l-20.38-0.55c-1.15,4-1.27,7.53-2.88,7.75l-7.88,1.11
	c-1.17,0.16-5.81,0.2-5.7-0.87l0.53-5.57l-9.84,2.11l-30.05,4.81c-3.87,2.21-8,9.74-14.02,6.07l7.25-5.79
	c-9.04-5.34-10.66-0.2-23.17,3.31c-0.76,0.21-1.41-2.21-0.81-2.71l4.3-3.57l-20.14-2.88l-0.89,38.39l-3.43,19.03l-8.16,12.75
	c1.6,4.25,3.54,7.85,2.25,9.99c-1.79,2.97-5.86,6.5-8.95,8.43c-3.89,2.44-9.33,11.78-8.41,16.22l2.5,12.14l5.2,9.97l4.33,6.01
	c1.12,1.56-2.64,4.72-4.11,6.59l-8.68,11.07c8.95,12.8,14.3-4.09,25.01,10.09c-0.01,0.87-0.08,4.99-0.05,3.23
	c-11.25-6.79-23.41,0.86-24.97-3.52l-2.5-7.01l-9.65-8.98c-1.55,0.1-4.92,0.82-5.72-0.32l-5-7.11l-3.17,10.53
	c-9.02,3.72-17.92,9.06-25.68,16.16l1.66,13.3l-19.58,1.74c-7.39,0.66-11.92,1.35-21.85,4.18c-0.02,0.31,0.38-5.49,0.59-8.5
	c0.12-1.79-2.25-4.35-4.04-4.65c-1.79-0.3-8.11,1.36-7.15,2.94l3.51,5.84c0.86,1.43-1.24,3.76-2.79,6.99l11.22-0.32l-1.65,5.42
	c-0.43,1.42,2.69,1.99,7,3.9l-8.01,8.19l-6.13,0.67c-2.04,0.22-0.59-4.57-0.18-8.37c0.28-2.58-14.17,2.03-17.03,1.48l-25.82-5
	l-5.52-1.07c-0.98-0.19,0.68-3.99,0.16-4.85c-2.68-4.4-15.98-8.88-18.71-2.63c-0.14,2.5,1.29,10.25-0.93,9.45
	c-9.14-2.79-16.56-2.07-24.48,0.56l-10.4,3.38c0.14,2.22,0.81,6.18-0.49,5.91l-5.47-1.11c-5.81-1.18,12.29-9.66,9.28-15.53
	c-10.56,3.23-29.79,3.88-31.33-10l-13.2,4.7c2.83,4.98,4.36,6.84,2.83,11.63c-0.5-0.63,1.25,1.59,1.77,2.25
	c8.94,0.8,15.02,1.21,23.53,3.01c-13.23,3.87-26.63,0.72-36.03,3.04c-0.99,1.16-0.7-3.3-0.28-5.88l0.93-5.77
	c0.53-3.27-6.21,3.49-18.76,1.31l-20.32-3.52l-26.42-8.12l3.39-13.1c1.5-5.8,14.12-2.11,15.97-6.33c0.52-1.17,0.96-4.17-0.33-4.18
	c-1.49-0.01-5.29,0.05-6.59,0.2l-19.44,2.23c1.31-3.81,2.69-8.04,0.71-11.64l-18.42,18.89l-5.16-3.1c-1.45-0.87-5.1,2.81-5.7,4.44
	c-6.11,16.5-4.48,1.28-15.96,16.06c-0.37,1.61-4.14-3.93-3.56-5.61c3.04-8.75,11.82-5.72,10.73-13.57c-4.48,2.17-7.64,6.3-9.68,5.65
	l-10.18-3.2c-4.26-1.34-12.06,1.76-17.52,3.21l0.76-6.18c0.18-1.47,0.19-3.71,0-4.86c-0.19-1.15-3.4-2.52-4.5-2.15
	c-1.47,0.49-2.43,2.79-4.05,5.87l-6.57-8.59c-2.21-2.88-11.51-1.35-14.27-0.57c0.49,2.39,2.89,7.72,1.42,7.98l-8.59,1.53
	c-2.55,0.46-5.31-5.97-4.56-9.04c1.56-6.32,10.69-14.7,4.46-13.19c-10.65,2.58,1.94-1.07-9.18,8.37c-1.91,1.62-9.1,1.68-8.95,0.25
	l8.16-8.47c4.67-7.57-6.48-1.67-8.1-5.61l-2.48-6.03c-7.87-4.94-13.05,14.7-25.66,9l1.98-11.19l23.44-4.64
	c3.15-0.62,10.5,2.13,13.41-1.06c2.45-2.68,2.27-8.3,0.69-13.5c4.74-0.43,10.97-1.91,16.5-4.48l-2.89-14.85
	c-0.21-1.1,1.03-3.47,1.4-4.55c0.37-1.08-1.56-2.91-2.7-2.84c-10.79,0.63-4.35,9.82-11.17,9.83c-1.84,0.01-4.63-2.89-5.45-4.75
	l-2.29-5.22c-0.42-0.96-2.94,2.25-4.33,3.57c-6.75-9.71-19.4-12.89-31.13-7.56l-0.13-7.62c-0.08-4.46-8.58-0.01-19.29-7.35
	c-7.3-5-17.56-2.29-26.12-1.68l-13.66-10.48c-2.46-1.89-6.63-6.11-8.98-8.57c-15.3-16.05-22.21-15.09-46.57-45.16l-14.27-17.62
	l-9.91-12.84c-14.57-18.87-18.33-24.44-26.43-46.49l-7.15-19.47c-1.67-4.54-3.25-9.37-4.03-14.4l-8.08-52.13
	c-4.49-28.99,2.41-62.74,17.36-87.81c2.13-3.56,3.33-9.49,5.63-13.02l15.5-23.8c13.29-20.39,28.75-36.52,49.41-48.83
	c4.41-2.63,9.97-10.31,14.93-12.82c12.11-6.14,48.8-21.37,52.1-23.64L259,524.42c11.09-7.64,20.73-12.9,31.4-20.92
	c3.84-2.89,12.67-5.61,16.2-10.45c20.29-4.58,41.93-13.75,51.66-34.36c5.01-10.62,14.2-23.55,11.94-25.21l-5.55-4.09
	c2.09-1.1,3.81-6.37,3.1-9.73l-2.77-13.14c-0.86-4.1-1.17-7.77-1.46-12.21l-3.71-55.75c-1.2-18.05-1.16-19.85,0.7-38.12l3.12-30.63
	l1.7-17.35c2.1-21.49,5.06-42.57,4.84-64.03c-0.19-18.9-13.18-29.41-24.18-41.75c-13.34-14.97-18.57-29.27-44.98-40.13
	c7.42-4.71,14.94-13.87,21.83-16.45c14.11-5.28,30.11-5.78,44.67-5.55c4.18,0.07,6.71-2.43,9.24-7.83l1.26-2.68
	c0.23-0.49,0.46-0.49,0.63-0.04c4.11,10.91,11.32,15.25,22.85,21.32l-0.88-57.82l19.24,8.6c4.46,1.99,10.98,2.99,13.47,5.69
	c3.75,4.06,4.41,11.02,4.72,16.55L439,86.16l1.52,18.46c0.75,9.07,10.82,31.54,7.94,55.34c-0.77,6.31-12.41,11.34-16.99,8.52
	l-13.86-8.55l-1.68-2.2l2.03-4.92c0.35-0.86-2.99-0.69-5.74-0.85c-6.95,29.25-14.56,48.36-4.63,79.86
	c4.19,13.29-0.22,26.39-3.34,39.31c-5.58,23.1-7.06,44.41-5.97,67.98l2.21,48c0.58,12.61,1.58,25.16,1.39,37.56l-0.37,23.86
	c-0.12,7.59-4.43,14.88-10.93,18.26c-9.97,5.18-15.22,14.05-23.64,21.18l-16.09,13.62c-9.87,8.36-21.29,12.95-32.17,19.7
	l-16.06,9.97l-16.3,9.41c-7.15,4.13-13.04,7.9-16.66,15.24c5.38,0.91,13.76,1.87,16.96-0.43l10.25-7.38l7.52-5.46
	c21.34,4.93,27.61,12.44,42.63,16.92c-24.59,18.54,4.89,7.82-28.81,16.77c-10.83,2.88-19.15,3.92-30.88,4.13
	c-4.52,0.08-10.63,8.88-14.83,10.53l-30.11,11.82c3.96,4.16,9.01,6.87,13.94,7.18l21.02,1.35c9.85,0.63,18.95-2,27.36,6.65
	c2.59,2.66,1.71,7.31,0.39,11.37c-1.82,5.59,7.5,5.07,12.26,4.39c5.72,1.98,13.72,10.9,17.44,17.76
	c-4.21,15.96-49.79,4.17-51.44,2.27c-2.44-2.83-3.71-9.55-4.46-14.63c-0.54-3.61-10.62,0.58-10.88,3.87l3.22,3.14
	c0.84,0.82-0.46,3.96-1.12,4.44c-5.64-5.42-10.8-4.44-16.46-1.42c-6,3.2-2.46,11-3.96,16.06c-1.5,5.06-3.78,8.96-2.27,12.24
	c7.17,15.57,23.54-10.47,35.63,15.17l11.69,0.59c2.14,0.11,3.1,4.65,3.26,6.79c-13.11,7.93-30.63,9.83-42.06,18.1
	c-12.37,8.95-23.18,16.5-41.7,11.23c0.02,20.84,39.16-16.24,71.94,12.69l-11.26,12.08c-2.4,2.57-9.86,6.02-12.76,8.09
	c-0.55,0.39-0.37,4.06,0.26,3.84l3.61-1.24l22.4,21.79l-4.85,13.99l-14.1,4l2.94,4.21c0.66,0.94-1.3,2.02-4.17,5.11
	c-0.22,1.64,5.45,4.51,9.26,5.61c-2.3,1.3-9.41,5.23-7.63,7.47l5.9,7.44c-10,1.67-14.69,2.71-22.25,5.33
	c-3.94,1.37-8.6,1.24-9.49,4.14c-1.3,4.21,1.14,9.95,4.32,11.66l6.92,3.7c1.51,0.81,2.69-4.74,3.82-8.16
	c-1.53-3.49-1.12-2.65,0.46,0.8l1.74,3.94c1.38,3.12,3.8-8.55,22.98-15.72c1-0.37,0.8-4.53,1.15-5.56c0.34-1.02,3.86-0.8,4.92-0.38
	l4.38,1.76c1.15,0.46-1.94,3.2-3.32,4.48c-0.21,0.55-1.07,2.81-0.65,1.7l10.77,15.47l7.55-0.43l-1.67,6.63
	c-0.45,1.77,3.13,4.99,3.79,5.46l-7.04,5.2c-1.75,1.29,1.34,5.47,2.69,7.48l-9.22,10.73c-3.3,3.84-22.54-3.46-20.59,2.83l1.92,6.19
	c0.48,1.54,4.7-0.14,8.37-1.05c3.68-0.92,1.7,3.67-0.41,3.88l-7.25,0.73c-1.72,0.17,0.3,6.45,1.61,7.96
	c2.24,2.58,5.36,4.31,11.23,8.1L279.96,922.05z M207.19,597.17c6.76-3.09,18.1-5.81,24.76-7.81l16.66-23.14
	c-7.2-1.05-10.46,6.39-15.75,9.56l-32.3,19.4c-1.11,0.66,1.27,4.44,2.22,4L207.19,597.17z M241.39,684.54
	c1.37,0.04,6.03-1.72,5.46-2.83l-2.44-4.81c-0.57-1.12-4.68-0.59-5.84,0.13l-11.45,7.07L241.39,684.54z M193.28,718.55l15.2,4.33
	c-3.95-16.59,1.73-31.27-2.96-31.12c-1.57,0.05-5.29,1.54-5.13,3.09l0.45,4.5l-11.55,4.92c-2.4,1.03-9.05-0.05-9.71,2.75
	c-0.72,3.07-1.2,8.11-0.35,7.83C185.21,716.23,188.32,717.14,193.28,718.55z M138.98,747.95c2.53-2.96,5.36-7.68,7.27-11.43
	l14.26-13.61c-13.61-3.5-15.79-13.16-17.73-25.24c-15.12,8.76-13.42,66.82-3.97,79.31C139.88,767.47,139.49,756.49,138.98,747.95z
	 M375.14,830.01l15.2-6.73l-5.48-28.13c12.62-0.24,10.83-5.12,21.64-7.97c1.72-0.45,5.23,3.43,7.03,3.45l14,0.16
	c1.84,0.02,7.25-3.4,6.28-4.98c-0.77-1.26-3.9-4.08-4.29-5.52l-6.38-23.71l-5.38,7.14c-2.62-0.56-7.41-1.06-8.48,0.82l-4.22,7.4
	l-6.57-4.49c-1.66-1.14-6.47,3.17-7.22,4.03l-15.49-10.99c-1.03,10.9-1.23,17.85-1.45,27.76l-0.35,15.46
	C373.78,812.85,374.11,818.88,375.14,830.01z M205.51,784.03l12.45,4.84c1.36,0.53,4.93-3.72,3.88-4.79l-3.7-3.75
	c2.8-4.58,4.46-13.61-2.69-16.7c-8.45-3.66-22.55,7.64-26.3,12.34c-1.61,2.01-0.31,10.13,2.12,11.36
	C194.49,788.96,202.48,782.85,205.51,784.03z M245.31,900.31c-5.72-1.27-14.01-2.28-16.14,0.42c-0.77,0.98-2.24,4.6-2.75,5.7
	c-0.51,1.1-4.93-1.09-5.09-1.59c2-2.52,5.47-5.58,4.07-6.7l-5.05-4.07c-1.1-0.89-3.13,2.7-4.86,5.22l-5.89-1.69
	c3.11-2.05,7.72-4.67,6.56-6.3c-0.92-1.3-4.3-3.88-5.9-3.93l-10.7-0.35c-6.05-42.91-15.68-28.57-20.54-34.36
	c-5.1-6.07-12.06-17.12-15.62-25.28c-2.3-5.29,0.99-15.3,1.95-20.17c0.24-1.2-3.81-4.36-4.5-3.34l-2.47,3.68
	c-0.65,0.97-2.72,2.64-3.73,3.27c-1.02,0.63-3.8-2.9-2.71-3.62l5.86-3.93c1.12-0.75-4.07-3.73-4.74-5.06l-11.1-21.99
	c-7.01,7.28-1.36,15.9,0.26,22.92l8.31-2.33l-4.81,6.11c-0.64,0.82,2.06,3.66,2.31,4.71l3.26,13.51c1.08,4.49,2.33,8.26,4.64,12.57
	l12.64,23.6c3.7,6.91,9.45,13.82,14.89,17.69c2.42-2.78,4.67-5.79,5.19-4.74c0.47,0.95,1.8,2.69,1.27,3.28l-2.54,2.83
	c-0.78,0.87-2.47,5.28-1.59,6.09l16.28,15.03l11.53,11c6.64,6.33,29.67,27.89,38.42,19.29c9.83-9.65-12.22-18.73-10.08-22.12
	L245.31,900.31z M953.13,785.26l-12.55,0.86c-0.95,0.07-3.38,2.64-2.5,3.01l3.68,1.52c1.76,0.72,6.21,1.65,8.01,1.41
	C951.57,791.81,953.21,786.99,953.13,785.26z M915.65,819.98c-0.02,1.46,4.03,5.73,4.42,4.33l1.14-4.06
	C921.5,819.2,915.67,818.9,915.65,819.98z M225.51,834.97l9.14,1.37c-0.88-4.68-2.35-9.76-4.28-14.17
	c-7.36,3.04-12.67,9.95-13.47,16.17c-0.23,1.81,6.65,3.27,6.72,1.61C223.68,838.7,224.31,834.79,225.51,834.97z M917.91,858.44
	c6.07-1.38,8.43-7.54,8.27-13.84l12.6-6.64l-5.7-9.32c-8.29,19.32-23.47-4.31-29.48,8.26c0.77,2.12,7.48,4.35,10.45,5.27
	L917.91,858.44z M910.01,843.23l-5.76,4.57l3.14,3.95l5.76-4.57L910.01,843.23z M832.34,861.05l-4.17,3.4l4.1,5.03l4.17-3.4
	L832.34,861.05z M865.58,869.95c-6.6-2.17-13.02-4.36-16.26-5.58c-1.57-0.59-5.46,4.74-3.86,5.36
	C850.55,871.69,861.46,873.18,865.58,869.95z M409.64,899.33l-9.83,5.5l6.1-10.48l-6.8-4.93l-1.66-14.2
	c-0.25-2.16,1.34-8.51-0.74-8.47l-8.1,0.15c-1.68,0.03-1,5.55-0.46,7.32l5.89,19.3l11.71,35.22c1.32,3.97,13,4.91,15.55,2.02
	l2.85-13.56l4.2-4.01C434.97,906.91,410.68,915.29,409.64,899.33z M517.63,964.36c2.71-1.6,2.53-7.84,0.03-8.22
	C515.2,956.89,515.32,964.44,517.63,964.36z M489.94,969.63c0.79-0.27,2.82-3.51,2.34-4.13c-0.48-0.62-2.47-3.27-3.12-2.87
	l-10.2,6.24C480,971.1,485.63,971.12,489.94,969.63z M523.58,972.03c-1.89-4.6-7.4-5.07-8.05-0.69L523.58,972.03z M698.99,974.67
	c-5.04-2.68-10.15-4.18-13.05-3.03c-2.34,0.93-4.16,6.68-3.57,10.21L698.99,974.67z M564.33,989.77c-0.05,1.21,0.1-2.7,0.13-3.43
	c3.01-1.38,5.57-2.15,4.96-2.99c-0.72-0.97-1.8-3.06-2.84-2.92l-3.85,0.5c-9.2,1.2-17.52,6.1-17.51,15.12l24.22,0.14
	c1.27,0.01,3.03-3.94,1.9-4.29L564.33,989.77z M725.37,985.12l-13.68,3.02c-4.38-4.57-12.44-6.04-16.7,0.67
	C704.31,994.67,717,996.33,725.37,985.12z M375.07,1036.32c1.64-2.47,6.55-2.9,11.4-2.71c1.99,3.97,3.83-16.97,3.92-16.86
	l-4.68-5.78c-5.31,2.34-10.14,3.56-15.99,2.55c0.07-2.92,2.63-6.63,5.68-10.38c-1.39-1.62-8.3-6.71-11.68-6.36l-18.5,1.95
	l11.91,19.72l-15.89,10.51c0.28,1.17,5.23,6.15,7.27,5.93c4.46-0.48,10.89-6.95,14.45-10.46l6.39,8.99l-0.97,4.48
	c-0.23,1.09,3.29,3.56,3.9,2.63L375.07,1036.32z M555.62,1003.42c0-1.55-1.26-2.81-2.81-2.81c-1.55,0-2.81,1.26-2.81,2.81
	c0,1.55,1.26,2.81,2.81,2.81C554.36,1006.23,555.62,1004.97,555.62,1003.42z M562.37,1001.46c-1.89,1.24-5.7,3.1-4.93,3.85
	l3.48,3.42c0.77,0.76,2.87-2.1,2.84-3.18C563.72,1004.48,563.21,1000.91,562.37,1001.46z M344.46,1013.41l-2.23,5.38l6.01,2.49
	l2.23-5.38L344.46,1013.41z M400.54,1021.23l-5.49,3.6l2.68,4.08l5.49-3.6L400.54,1021.23z M323.75,1029.19
	c-1.17,0.24,1.65,3.9,2.77,3.47l3.19-1.21c0.73-0.28-0.37-3.4-1.16-3.24L323.75,1029.19z M407.51,1059.56l-4.7-7.37
	c6.46-3.68,12.6-7.14,14.48-14.3c-23.83,6.47-14.58,11.82-26.73,15.03l-6.77,1.79c-1.06,0.28,1.9,5.05,3,5.04L407.51,1059.56z
	 M615.57,1044.78c3.96,1.85,6.07,3.02,7.55,1.75c2.1-1.79,3.21-8.57,1.15-9.1l-15.04,6.47c-1.34,0.58-3.81,3.45-3.01,4.55l3.25,4.52
	L615.57,1044.78z M677.8,1044.93c0.94-1.53,2.34-4.53,1.36-5.29c-1.02-0.8-4.12-2.47-4.65-1.36c-0.4,0.83-1.35,2.41-2.32,4.08
	l0.89,4.32C673.22,1047.37,677.44,1045.51,677.8,1044.93z M383.68,1043.85c0-1.75-1.42-3.17-3.17-3.17c-1.75,0-3.17,1.42-3.17,3.17
	s1.42,3.17,3.17,3.17C382.26,1047.01,383.68,1045.59,383.68,1043.85z M655.35,1047.62c0-1.68-1.36-3.03-3.03-3.03
	s-3.03,1.36-3.03,3.03c0,1.68,1.36,3.03,3.03,3.03S655.35,1049.3,655.35,1047.62z M374.41,1051.03c-0.61,0.83-0.97,5.88-0.07,5.41
	l3.87-2.05c0.91-0.48,1.09-3.41,0.12-3.75C377.69,1050.4,374.82,1050.48,374.41,1051.03z M418.86,1066.45
	c1.4-0.19,4.45-7.71,2.54-9.28c-1.9-1.57-9.33-0.86-10.65,0.49L418.86,1066.45z M472.71,1073.69c-0.03-4.49-11.45-6.55-10.94-1.78
	c0.19,1.75,3.68,5.5,5.22,6.33C468.54,1079.07,472.73,1075.46,472.71,1073.69z M676.05,1080.56c-0.93,0.43-2.63,3.23-2.01,4.05
	c0.63,0.81,3.42,1.98,3.8,1.03l1.67-4.23C679.77,1080.76,676.68,1080.28,676.05,1080.56z M493.75,1090.64
	c1.15,0.09,2.39-4.35,1.21-4.26c-7.2,0.55-2.14-1.46-7.39,3.11C487.05,1089.93,492.45,1090.53,493.75,1090.64z M542.77,1089.92
	l-6.04-2.53c-1.16-0.49-3.11,3.43-2.56,4.57C535.31,1094.3,544.08,1092.26,542.77,1089.92z"/>
<path d="M909.14,797.83l-4.84,2.49c-3.17,1.63-3.81-5.76-8.61-11.24c-3.54-4.04-13.94,8.54-18.86,2.15
	c1.86-8.2,9.23-10.24,15.65-10.26c7.49-0.02,12.51,1.7,16.31,7.89l4.37-2.33c0.89-0.47,3.33,1.98,2.4,2.36l-4.91,1.99l-5.15,2.08
	C904.47,793.37,907.42,795.95,909.14,797.83z"/>
<path d="M781.14,1021.6c5.07-6.93,9.48-7.28,15.65-9.93l7.6-3.26c1.73-0.74,5.11,4.31,5.58,6.24c0.53,2.17-1.12,8.75-3.15,9.69
	c-2.37,1.1-6.14,0.44-10.09-0.2L781.14,1021.6z"/>
<path d="M420.83,1088.08l-10.12,1.22l13.51-12.73l6.23-2.61c2.25-0.94,5.19,10.91,1.03,15.67
	C429.83,1091.51,424.5,1090.08,420.83,1088.08z"/>
<path d="M264.58,1008.48c1.12,1.02-6.45,1.92-8.08,0.38c-4.56-4.33-11.9-16.53-4.67-23.79l8.3,11.04
	C261.63,998.09,262.93,1003.38,264.58,1008.48z"/>
<path d="M624.35,1114.29c0.92,0.05,4.4,2.57,3.79,3.01c-0.92,0.66-3.7,2.44-5.13,2.37l-29.18-1.51c-0.83-0.04-3.33-0.65-3.96-0.91
	c-0.94-0.39-2.19-2.68-1.26-3.09c0.93-0.41,3.77-1.12,4.93-1.1l14.05,0.25L624.35,1114.29z"/>
<path d="M695.96,1110.52c-1.41,2.73-7.45,1.04-9.7-1.89c-1.66-2.17-1.23-5.74,1.41-11.13
	C691.42,1101.34,693.71,1104.4,695.96,1110.52z"/>
<path d="M1027.06,841.34c0.05,2.85-6.31,6.56-9.82,5.36l2.79-14.52L1027.06,841.34z"/>
<path d="M541.3,903.77c-0.1,1.36-4.72,2.06-6.39,2.13c-1.33,0.05-2.71-2.63-1.94-4.09c2.56-4.84,9.64-15.58,17.11-8.61l-7.25,3.73
	C541.23,897.75,541.46,901.61,541.3,903.77z"/>
<path d="M293.86,812.97l-9.47-9.66l10.33-0.68C297.19,802.47,295.85,811.11,293.86,812.97z"/>
<path d="M324.36,923.2l-13.9,4.75c2.73-7.51,8.31-8.52,14.43-8.71C325.95,919.22,324.94,921.69,324.36,923.2z"/>
<path d="M749.34,703.31l-11.31,8.96c0.29-3.04,0.45-7.05,1.94-8.34C741.46,702.64,746.94,702.75,749.34,703.31z"/>
<path d="M1005.42,864.41l-6.56,1.79c-1.48,0.4-1.13-6.2,0.35-6.57c1.46-0.37,4.9-0.8,6.59-0.91
	C1007.28,858.62,1006.78,864.04,1005.42,864.41z"/>
<path d="M375.32,1109.84l-1.82-4.69c-0.49-1.26,2.64-5.42,3.88-4.93c0.91,0.36,3.58,2.76,3.07,3.37L375.32,1109.84z"/>
<rect x="783.3" y="1067.2" transform="matrix(0.8891 -0.4577 0.4577 0.8891 -402.7596 478.7807)" width="6.97" height="6.92"/>
<path d="M721.08,1080.26c-2.97-0.17-7.78-0.82-8.69-0.91l2.74-4.73c0.7-1.21,3.21-1.15,4.35-0.37
	C720.63,1075.02,722.31,1080.33,721.08,1080.26z"/>
<path d="M603.95,1098.41l-0.96,6.57c-0.16,1.11-2.06,1.91-3.11,2.29c-1.06,0.38-2.94-4.04-2.48-5.16c0.32-0.79,1.49-3.08,2.27-3.18
	C601.08,1098.76,604.77,1098.31,603.95,1098.41z"/>
<rect x="584.72" y="662.38" width="9" height="4"/>
<path d="M551.54,764.69c-1.83,4.35-6.55,6.55-10.93,0.54L551.54,764.69z"/>
<path d="M547.67,784.17c-2.1,5.33-6.65,5.35-12.23,2.83L547.67,784.17z"/>
<path d="M526.96,867.32c1.18-1.09-0.68,0.62-2.04,1.87l-4.08,0.66c-0.97,0.16-0.38-2.78-0.39-4.02
	C520.45,864.84,522.02,865.77,526.96,867.32z"/>
<circle cx="311.95" cy="1011.22" r="3.14"/>
<path d="M289.9,1016.66c0.26-0.77,4.7,0.6,4.48,1.41l-1.3,4.81c-0.28,1.03-2.66-1.08-3.36-1.94
	C289.03,1020.09,289.41,1018.1,289.9,1016.66z"/>
<circle cx="704.58" cy="1107.02" r="2.79"/>
<path d="M304.12,1129.12c-0.1,0.29-4.89,1.55-4.53,0.36l1.91-6.3C304.93,1121.28,305.02,1121.28,304.12,1129.12z"/>
<path d="M720.59,1094.77c-2.28-0.6-4.56-0.91-4.36-1.51l1.28-3.8c0.3-0.88,1.4-0.11,5.75,1.4
	C723.48,1090.55,722.41,1092.11,720.59,1094.77z"/>
<circle cx="936.91" cy="729.71" r="3.32"/>
<circle cx="658.58" cy="1123.84" r="2.99"/>
<path d="M681.46,1109.78c0.54,0.76-2.29,3.11-2.89,2.66l-3.97-2.98c-0.73-0.55,1.26-2.24,1.81-3.26
	C677.06,1105,680.35,1108.21,681.46,1109.78z"/>
<path d="M825.83,1101.12l-5.24,1.36c-0.82,0.21-1.7-2.84-0.91-3.2l3.51-1.62c0.51-0.24,2.24-0.43,2.83-0.42
	C826.9,1097.23,826.92,1100.83,825.83,1101.12z"/>
<path d="M330.34,1088.31c-2.42-1.15-3.97-2.15-4.23-3.07l4.77-3.08C331.6,1081.7,331.13,1083.99,330.34,1088.31z"/>
<circle cx="790.31" cy="975.24" r="3.12"/>
<rect x="606.76" y="968.94" transform="matrix(0.6747 -0.7381 0.7381 0.6747 -518.5574 766.5324)" width="7.31" height="5.34"/>
<path d="M864.84,950.29c-2.45-3.21-4.21-5.77-3.34-6.55l4.27-3.82L864.84,950.29z"/>
<path d="M635.83,945.17l4.73-0.95c0.79-0.16,1.91,2.94,1.16,3.23l-3.2,1.23C637.4,949.1,634.62,945.41,635.83,945.17z"/>
<path d="M657.37,944.09l-7.92,0c1.05-1.29,4.23-4.86,5.01-3.84C655.28,941.34,657.42,944.15,657.37,944.09z"/>
<circle cx="505.04" cy="943.71" r="3"/>
<circle cx="1012.69" cy="855.52" r="2.91"/>
<path d="M790.07,1088.66c-0.05-0.8,3.79-0.03,3.77,0.75l-0.12,3.9c-0.02,0.78-3.28,1.91-3.32,1.13L790.07,1088.66z"/>
<path d="M952.07,742.73c-0.05-0.79,3.8-0.1,3.77,0.67l-0.12,3.91c-0.02,0.78-3.27,1.91-3.32,1.13L952.07,742.73z"/>
<path class="st0" d="M245.31,900.31l-3.38,5.34c-2.14,3.39,19.91,12.47,10.08,22.12c-8.75,8.6-31.79-12.96-38.42-19.29l-11.53-11
	l-16.28-15.03c-0.88-0.81,0.81-5.22,1.59-6.09l2.54-2.83c0.53-0.59-0.79-2.34-1.27-3.28c-0.53-1.05-2.77,1.96-5.19,4.74
	c-5.44-3.87-11.19-10.77-14.89-17.69l-12.64-23.6c-2.31-4.31-3.55-8.09-4.64-12.57l-3.26-13.51c-0.25-1.04-2.95-3.89-2.31-4.71
	l4.81-6.11l-8.31,2.33c-1.62-7.02-7.27-15.64-0.26-22.92l11.1,21.99c0.67,1.33,5.85,4.31,4.74,5.06l-5.86,3.93
	c-1.08,0.73,1.7,4.25,2.71,3.62c1.01-0.63,3.08-2.3,3.73-3.27l2.47-3.68c0.68-1.02,4.73,2.14,4.5,3.34
	c-0.96,4.87-4.25,14.88-1.95,20.17c3.55,8.16,10.51,19.22,15.62,25.28c4.87,5.78,14.49-8.55,20.54,34.36l10.7,0.35
	c1.6,0.05,4.97,2.63,5.9,3.93c1.16,1.63-3.46,4.24-6.56,6.3l5.89,1.69c1.73-2.52,3.76-6.1,4.86-5.22l5.05,4.07
	c1.39,1.12-2.07,4.18-4.07,6.7c0.15,0.5,4.58,2.7,5.09,1.59c0.51-1.11,1.98-4.72,2.75-5.7
	C231.29,898.03,239.58,899.04,245.31,900.31z M238.07,916.69l0.33,5.75c0.05,0.78,3.3-0.34,3.32-1.12l0.12-3.91
	C241.86,916.62,238.02,915.9,238.07,916.69z"/>
<path class="st0" d="M375.14,830.01c-1.03-11.13-1.37-17.16-1.16-26.28l0.35-15.46c0.22-9.9,0.42-16.86,1.45-27.76l15.49,10.99
	c0.76-0.85,5.56-5.17,7.22-4.03l6.57,4.49l4.22-7.4c1.07-1.88,5.86-1.38,8.48-0.82l5.38-7.14l6.38,23.71
	c0.39,1.44,3.52,4.26,4.29,5.52c0.97,1.57-4.44,5-6.28,4.98l-14-0.16c-1.8-0.02-5.32-3.9-7.03-3.45
	c-10.82,2.85-9.03,7.72-21.64,7.97l5.48,28.13L375.14,830.01z"/>
<path class="st0" d="M375.07,1036.32l-2.79,4.2c-0.62,0.93-4.14-1.54-3.9-2.63l0.97-4.48l-6.39-8.99
	c-3.55,3.5-9.98,9.98-14.45,10.46c-2.04,0.22-6.98-4.76-7.27-5.93l15.89-10.51l-11.91-19.72l18.5-1.95
	c3.38-0.36,10.29,4.74,11.68,6.36c-3.05,3.75-5.61,7.46-5.68,10.38c5.85,1.01,10.68-0.21,15.99-2.55l4.68,5.78
	c-0.09-0.11-1.92,20.83-3.92,16.86C381.62,1033.42,376.71,1033.85,375.07,1036.32z"/>
<path class="st0" d="M138.98,747.95c0.51,8.54,0.9,19.51-0.16,29.04c-9.45-12.49-11.15-70.55,3.97-79.31
	c1.94,12.08,4.12,21.74,17.73,25.24l-14.26,13.61C144.34,740.27,141.52,744.99,138.98,747.95z"/>
<path class="st0" d="M205.51,784.03c-3.03-1.18-11.02,4.92-14.23,3.31c-2.44-1.23-3.73-9.35-2.12-11.36
	c3.75-4.7,17.84-16.01,26.3-12.34c7.15,3.1,5.49,12.13,2.69,16.7l3.7,3.75c1.05,1.07-2.52,5.32-3.88,4.79L205.51,784.03z"/>
<path class="st0" d="M193.28,718.55c-4.96-1.41-8.06-2.32-14.05-3.7c-0.85,0.28-0.36-4.76,0.35-7.83c0.66-2.81,7.3-1.73,9.71-2.75
	l11.55-4.92l-0.45-4.5c-0.16-1.55,3.56-3.04,5.13-3.09c4.7-0.15-0.98,14.54,2.96,31.12L193.28,718.55z"/>
<path class="st0" d="M409.64,899.33c1.04,15.96,25.33,7.57,18.72,13.88l-4.2,4.01l-2.85,13.56c-2.54,2.89-14.23,1.95-15.55-2.02
	l-11.71-35.22l-5.89-19.3c-0.54-1.78-1.22-7.29,0.46-7.32l8.1-0.15c2.08-0.04,0.49,6.31,0.74,8.47l1.66,14.2l6.8,4.93l-6.1,10.48
	L409.64,899.33z M422.41,915.41l-11.87-0.29l-3.2,4.16c-0.67,0.86,2.35,3.52,3.32,3.02l3.05-1.59L422.41,915.41z"/>
<path class="st0" d="M917.91,858.44l-3.86-16.27c-2.96-0.92-9.68-3.15-10.45-5.27c6.01-12.57,21.2,11.06,29.48-8.26l5.7,9.32
	l-12.6,6.64C926.34,850.9,923.98,857.06,917.91,858.44z"/>
<path class="st0" d="M207.19,597.17l-4.41,2.02c-0.95,0.43-3.33-3.34-2.22-4l32.3-19.4c5.29-3.17,8.55-10.62,15.75-9.56
	l-16.66,23.14C225.29,591.36,213.96,594.08,207.19,597.17z"/>
<path class="st0" d="M407.51,1059.56l-20.73,0.18c-1.1,0.01-4.06-4.76-3-5.04l6.77-1.79c12.15-3.21,2.91-8.56,26.73-15.03
	c-1.88,7.16-8.02,10.61-14.48,14.3L407.51,1059.56z"/>
<path class="st0" d="M564.33,989.77l7.01,2.13c1.14,0.34-0.63,4.29-1.9,4.29l-24.22-0.14c-0.01-9.02,8.31-13.92,17.51-15.12
	l3.85-0.5c1.03-0.13,2.12,1.96,2.84,2.92c0.62,0.83-1.95,1.61-4.96,2.99C564.44,987.07,564.29,990.98,564.33,989.77z"/>
<path class="st0" d="M725.37,985.12c-8.37,11.21-21.06,9.55-30.38,3.69c4.26-6.71,12.31-5.24,16.7-0.67L725.37,985.12z"/>
<path class="st0" d="M225.51,834.97c-1.2-0.18-1.83,3.73-1.89,4.97c-0.07,1.66-6.95,0.2-6.72-1.61c0.79-6.22,6.1-13.13,13.47-16.17
	c1.93,4.41,3.4,9.5,4.28,14.17L225.51,834.97z"/>
<path class="st0" d="M615.57,1044.78l-6.11,8.21l-3.25-4.52c-0.8-1.11,1.67-3.98,3.01-4.55l15.04-6.47c2.06,0.53,0.95,7.3-1.15,9.1
	C621.64,1047.8,619.53,1046.63,615.57,1044.78z"/>
<path class="st0" d="M698.99,974.67l-16.62,7.18c-0.58-3.53,1.23-9.28,3.57-10.21C688.84,970.49,693.95,972,698.99,974.67z"/>
<path class="st0" d="M953.13,785.26c0.08,1.74-1.56,6.56-3.36,6.79c-1.8,0.24-6.26-0.69-8.01-1.41l-3.68-1.52
	c-0.88-0.36,1.54-2.94,2.5-3.01L953.13,785.26z"/>
<path class="st0" d="M241.39,684.54l-14.27-0.45l11.45-7.07c1.16-0.72,5.28-1.25,5.84-0.13l2.44,4.81
	C247.42,682.82,242.76,684.58,241.39,684.54z"/>
<path class="st0" d="M472.71,1073.69c0.01,1.77-4.17,5.38-5.72,4.55c-1.54-0.83-5.03-4.58-5.22-6.33
	C461.26,1067.14,472.68,1069.2,472.71,1073.69z"/>
<path class="st0" d="M865.58,869.95c-4.12,3.24-15.03,1.75-20.12-0.22c-1.6-0.62,2.29-5.95,3.86-5.36
	C852.56,865.59,858.98,867.77,865.58,869.95z"/>
<path class="st0" d="M418.86,1066.45l-8.11-8.79c1.31-1.35,8.74-2.07,10.65-0.49C423.31,1058.74,420.27,1066.26,418.86,1066.45z"/>
<path class="st0" d="M489.94,969.63c-4.31,1.49-9.94,1.48-10.98-0.76l10.2-6.24c0.65-0.4,2.64,2.25,3.12,2.87
	C492.76,966.11,490.72,969.35,489.94,969.63z"/>
<path class="st0" d="M542.77,1089.92c1.31,2.35-7.46,4.38-8.59,2.04c-0.55-1.14,1.39-5.05,2.56-4.57L542.77,1089.92z"/>
<rect x="343.44" y="1014.09" transform="matrix(0.383 -0.9237 0.9237 0.383 -726.0771 947.6317)" class="st0" width="5.82" height="6.51"/>
<path class="st0" d="M677.8,1044.93c-0.36,0.58-4.57,2.44-4.72,1.75l-0.89-4.32c0.97-1.67,1.92-3.25,2.32-4.08
	c0.53-1.11,3.62,0.56,4.65,1.36C680.14,1040.4,678.74,1043.4,677.8,1044.93z"/>
<path class="st0" d="M562.37,1001.46c0.84-0.55,1.35,3.02,1.39,4.1c0.04,1.08-2.07,3.93-2.84,3.18l-3.48-3.42
	C556.67,1004.56,560.48,1002.7,562.37,1001.46z"/>
<circle class="st0" cx="652.32" cy="1047.62" r="3.03"/>
<path class="st0" d="M374.41,1051.03c0.41-0.55,3.28-0.63,3.92-0.4c0.97,0.34,0.79,3.27-0.12,3.75l-3.87,2.05
	C373.44,1056.91,373.8,1051.86,374.41,1051.03z"/>
<path class="st0" d="M517.63,964.36c-2.31,0.08-2.43-7.47,0.03-8.22C520.16,956.52,520.33,962.75,517.63,964.36z"/>
<rect x="905.02" y="844.97" transform="matrix(0.7833 -0.6216 0.6216 0.7833 -329.9206 748.4882)" class="st0" width="7.36" height="5.05"/>
<path class="st0" d="M915.65,819.98c0.01-1.08,5.85-0.78,5.56,0.27l-1.14,4.06C919.68,825.71,915.63,821.45,915.65,819.98z"/>
<path class="st0" d="M493.75,1090.64c-1.3-0.11-6.7-0.71-6.18-1.15c5.26-4.57,0.2-2.56,7.39-3.11
	C496.14,1086.29,494.9,1090.73,493.75,1090.64z"/>
<circle class="st0" cx="380.52" cy="1043.85" r="3.17"/>
<rect x="395.85" y="1022.64" transform="matrix(0.8364 -0.5481 0.5481 0.8364 -496.5612 386.4659)" class="st0" width="6.57" height="4.88"/>
<path class="st0" d="M523.58,972.03l-8.05-0.69C516.18,966.96,521.69,967.42,523.58,972.03z"/>
<path class="st0" d="M323.75,1029.19l4.8-0.98c0.8-0.16,1.9,2.96,1.16,3.24l-3.19,1.21
	C325.39,1033.09,322.57,1029.43,323.75,1029.19z"/>
<path class="st0" d="M676.05,1080.56c0.62-0.28,3.72,0.2,3.46,0.84l-1.67,4.23c-0.38,0.96-3.17-0.21-3.8-1.03
	C673.42,1083.8,675.12,1080.99,676.05,1080.56z"/>
<circle class="st0" cx="552.81" cy="1003.42" r="2.81"/>
<rect x="829.62" y="862.02" transform="matrix(0.775 -0.632 0.632 0.775 -359.5505 720.7352)" class="st0" width="5.38" height="6.49"/>
<path d="M238.07,916.69c-0.05-0.79,3.79-0.07,3.77,0.71l-0.12,3.91c-0.02,0.78-3.27,1.9-3.32,1.12L238.07,916.69z"/>
<path d="M422.41,915.41l-8.71,5.29l-3.05,1.59c-0.97,0.51-3.99-2.15-3.32-3.02l3.2-4.16L422.41,915.41z"/>
</svg>
