<?xml version="1.0" encoding="utf-8"?>
<!-- Generator: Adobe Illustrator 30.1.0, SVG Export Plug-In . SVG Version: 9.03 Build 0)  -->
<svg version="1.0" xmlns="http://www.w3.org/2000/svg" xmlns:xlink="http://www.w3.org/1999/xlink" x="0px" y="0px"
	 viewBox="0 0 285.08 279.91" style="enable-background:new 0 0 285.08 279.91;" xml:space="preserve" fill="currentColor">
	<style>
		* { fill: currentColor !important; }
	</style>
	<g id="Layer_1">
		<g>
			<g>
				<g>
					<path d="M53.74,19.94c-1.04-0.88-1.89-0.7-3.44-0.33c0.39-0.62,2.12-1.52,3.38-0.97C53.9,18.74,53.83,19.29,53.74,19.94z"/>
					<g>
						<path d="M187.45,221.87l-1.96,1.77c-0.63,0.57-1.69,1.25-2.17,1.86l-1.48,1.89l-1.88,2.46c-1.08,1.41-0.3,3.79-2.64,4.8
							l0.21-2.58c-0.72,0.28-1.67,0.64-2.44,1.05c-1.06,0.56-0.56,2.17-0.86,3.31c-0.47,0.38-1.46-0.13-1.97-0.7
							c-1.71,1.44,0.63,4.05-2.5,6.13c-0.03-1.59,0.1-2.46,0.3-4.01c-0.66,0.44-1.3,1.03-1.88,1.79c-0.42,0.56-1.26,1-1.77,1.51
							c-1.3,1.31,0.16,4.84-1.34,4.95c-0.52,0.04-0.98-0.51-1.16-1l-0.24-0.65c-0.04-0.12-0.41,0.25-0.49,0.35
							c-2.21,2.95-3.59,3.19-3.45,6.48l-2.32,0.62c-0.53,0.68-1.08,1.2-1.57,1.75c-0.75,0.83-1.28,1.87-2.09,2.57l-1.69,1.47
							l-2.2,1.75c-1.02,0.81-1.59,1.23-2.61,1.8c-1.53,0.86-2.81,2.26-4.67,2.94c-0.76,0.28-1.63,1.47-2.21,2.07l-1.49,0.3
							c-0.9,0.74-1.89,1.31-3.08,1.83c0.31,0.6,0.78,1.88,0.27,2.43c-0.6,0.64-1.45-0.32-2-0.92c-0.81,0.7-1.42,1.82-1.85,2.75
							c-2.13-0.42-0.77-2.15-0.96-4.26l-0.13-1.51c-0.03-0.38,0.91-0.62,1.17-0.91c0.19-0.22,0.04-1.29,0.33-1.27l1.52,0.11
							c0.72-0.45-0.98-6.09,1.88-5.33l-1.1,2.29c1.22,0.91,0.43,1.69,1.47,3.78c0.69-0.01,2.4-0.5,2.5-1.18
							c0.61-4,0.2-5.14,0.86-8.85c2.36,2.48,0.16,6.66,1.08,7.66c0.18,0.2,0.95-0.02,1.06-0.27c0.11-0.25,0.26-0.85,0.27-1.21
							l0.2-8.82c0.39-0.34,1.41,0.39,1.42,0.91l0.04,7.63c1.76-0.75,3.86-1.55,3.66-3.57c-0.11-1.13,0.03-2.2-0.06-3.25l-0.43-4.98
							l2.65-1.29c0.37,1.78,0.96,3.06,1.77,4.62l0.49,2.7c0.87-0.08,3.71-3,3.6-4.18l-0.65-7.02c-0.02-0.19,0.2-0.77,0.26-0.91
							c0.08-0.19,0.73-0.19,0.77,0.01l1.2,6.41c1.71-1.32,1.26-3.13,0.65-4.71l-0.85-2.22c-0.07-0.18,0.05-0.72,0.1-0.91
							c0.05-0.19,0.74,0.2,0.86,0.39c1.58,2.57,1.12,2.98,2.28,3.99l3.74-4.64c-0.97-1.65-3.97-2.95-3.06-4.1
							c1.62-0.45,2.51,2.64,4.31,2.58c0.53-0.02,4.24-3.3,3.91-4.07c-0.42-1-1.36-1.47-0.86-2.01c0.32-0.35,0.95-0.28,1.29-0.04
							l0.9,0.66c0.21,0.16,0.66-0.39,0.84-0.66l-2.74-1.51c2.71-1.31,4.49,1.44,6.71-0.99c0.57-0.62,1.26-1.02,2.11-1.56
							c1.1-0.7-0.7-3.28-0.76-4.76c2.73-1.31,0.76,1.94,3.13,2.97c0.32-1.78,1.49-1.07,1.55-2.58c0.02-0.42-0.54-1.06-0.99-1.34
							l-2.41-1.49c-0.32-0.2-0.19-1.02,0.13-1.27c1.06-0.82,3.17,1.88,4.76,2.34l1.91-1.32c2.01-1.39,2.81-4.51,1.87-6.5
							c-0.34-0.71-0.83-1.36-1.28-2.05c-0.34-0.54-0.23-2.01,0.62-1.8c0.58,0.15,1.2,1.29,1.57,1.93c1.5,2.6-0.21,1.13,1.66,4.5
							c0.88-2.68,0.08-5.45-1.87-7.71l1.32-1c1.51,3.64,2.15,1.81,2.49,5.88c1.17-2,3.32-3.67,3.39-4.5
							c0.11-1.22-2.03-2.55-1.62-4.87c0.06-0.31,1.11-0.29,1.24-0.02c0.3,0.61,0.69,1.9,0.94,2.65c0.15,0.44,1.03,0.81,1.27,0.5
							c0.6-0.78,1.13-1.32,1.93-1.78c2.03-1.15,0.39-1.35,0.98-4.57l-0.61-2.18c-0.06-0.22,0.35-0.78,0.49-0.96
							c0.17-0.21,0.98,0.28,1.03,0.57c0.43,2.61-0.15,4.62,0.97,5.23l1.47-0.95c0.2-0.13,0.53-0.39,0.62-0.56
							c0.11-0.21-0.18-0.71-0.34-0.95l-1.44-2.2l-1.42-2.17c-0.78-1.2-1.42-2.64-1.11-4.02c1.67-0.51,0.8,0.75,3.12,4.23
							c0.84,1.26,1.61,2.49,2.52,3.61c1.19,0.23,2.28-0.89,2.93-1.74c0.82-1.07,1.91-1.96,2.23-3.3c0.21-0.9-0.79-1.98-1.31-2.64
							l-1.73-2.23l0.64-0.29c0.27-0.12,3.36,2.79,4.05,3.45c2.02-1.73-2.42-1.37-2.12-6.01c1.27,0.47,1.53,1.55,2.16,2.29l1.6,1.88
							c1.15-0.61,3.47-2.76,3.81-3.57c0.3-0.73-2.49-2.21-2.61-2.96l0.04-0.57c0.01-0.13,0.07-0.33,0.13-0.45
							c0.25-0.55,4.2,3.92,4.76,1.95c0.48-1.71-1.76-2.84-1.62-4.2c0.03-0.3,1.02-0.73,1.27-0.53c0.74,0.6,1.4,2.01,1.77,3.11
							l1.87-1.87c2.38-2.38-3.01-5.47-0.01-5.99c0.58,0.47,1.31,1.65,1.86,2.52l1.24-1.45c1.74-2.03-1.44-1.73-2.07-4.97
							c2.14-0.28,1.74,1.78,4.16,2.77l2.7-3.61l-2.32-3.11c-0.43-0.58-1.17-1.77-1.16-2.47c0.04-0.27,0.94-0.49,1.16-0.32
							c0.41,0.32,2.15,3.51,3.47,4.48c0.3-0.24,0.73-0.76,0.84-1.05c0.37-1.02-6.17-4.33-2.39-4.92l1.98,1.93l1.55,1.93l3.6-3.26
							c-1.72-1.28-2.78-0.37-4.09-2.88c-0.11-0.21,0.33-0.84,0.55-0.89c0.28-0.07,0.58,0.43,0.81,0.75l2.47,1.36
							c0.31,0.17,1.07,0.31,1.34,0.14c0.34-0.23,0.53-0.93,0.5-1.41l1-1.95l-1.28-1.81c-0.2-0.36,1.05-0.71,1.35-0.43
							c0.31,0.29,0.67,0.6,0.91,0.67c0.24,0.07,0.63-0.51,0.73-0.77c0.31-0.83,0.88-1.28,1.44-1.91l4.02-4.61
							c-0.87-0.16-1.82-1.08-1.55-1.7c0.13-0.29,1.08-0.53,1.37-0.42c0.33,0.13,0.34,0.82,0.39,1.3c0.2,0.42,0.44,0.91,0.11,0.18
							l2.21-1.77c1-0.8,0.46-3.09,1.13-3.94l2.08-2.64c1.47,1.12,0.73,2.23-0.06,3.75c1.29-0.39,2.55-0.75,3.61-1.4
							c4.16-2.55,1.17-0.46,3.55-3.36l-0.14-3.58c-0.65,0.49-1.12,1.06-1.25,1.6c-0.68,2.85-0.37,1.55-1.3,2.36
							c-0.1,0.09-0.08-0.07-0.11-0.55l-0.31-4.85c-0.02-0.26,0.73-0.53,0.85-0.34l0.78,1.31l0.8-2.83c0.09-0.32,0.57-0.97,0.51-1.28
							c-0.2-1.19-2.52-0.8-3.07-5.2l-0.37-2.97l-1.98-1.92l-1.65-1.6c-1.77-1.72-4.47-2.47-6.85-2.68l-0.14,3.25
							c-0.97-1.27-1.35-2.48-1.78-3.95c-0.06,1.32,0.06,2.72-0.38,3.8c-1.23,2.97,0.03,2.43-0.97,3c-0.23,0.13-0.77-0.47-0.72-0.77
							c0.55-3.58,1.19-2.92-0.23-6.32c-0.86-0.87-2.46,1.53-5.1,1.73c0.08-0.86,0.12-1.65-0.25-2.39c-0.54-1.07-0.24-2.99,0.64-3.49
							c0.24-0.14,1.11-0.01,1.38-0.08c0.28-0.07,0.2-0.75,0.33-1.09c0.84-2.2,2.03-4.54,3.79-6.18l1.66-1.54
							c1.8-1.67,1.82-3.72,2.63-5.77c0.5-1.27,1.03-2.48,1.03-3.95c0-1.77,2.01-4.9,2.05-7.38c0.03-0.28,0.64-0.6,1.07-0.98
							l-1.1,0.01l-0.36-4.73c-0.66-0.52-1.21-1.67-1.14-2.48c0.03-0.36-0.6-1.06-0.49-1.38c0.1-0.32,0.48-0.89,0.61-1.05
							c-0.46-0.31-0.79-0.8-0.98-1.36l-0.73-2.23c-1.5-0.36-1.18-2.22-0.19-3.09c0.27,0.51,0.99,1.44,1.22,2.06l1.29,3.54
							c0.25,0.69,0.01,1.33-0.54,2.11l1.05,0.34l1.2,4.67c0.48,1.84,1.2,3.63,0.59,5.65l-1.29,1.46l0.62,0.81
							c0.14,0.18-0.7,0.6-0.72,0.83c-0.14,1.34-0.87,3.51-1.28,5c-1.23,4.36-0.18,5.46-3.59,8.46c-0.05,0.05-0.46-0.28-0.46-0.21
							l0.01,0.68c0.02,1.22-1.5,1.48-2.49,3.38c-0.48,0.92-1.28,1.91-1.55,2.79l-1.4,4.56l2.72-0.51c0.62,0.34,1.2,0.57,1.82,0.68
							l4.87,0.9c1.44,0.27,4.91,2.55,6.09,3.74c0.64,0.64,1.17,1.27,1.84,1.7l0.44,0.28c0.11,0.07,0.15,0.51,0.02,0.52l-0.56,0.04
							c-0.1,0.01-0.56,0.13-0.47,0.19c1.86,1.24,0.4-0.21,2.2,0.92c-0.46,1.9,0.19,4.11,1.15,5.19c1.4,1.57,3.93,3.81,2.29,5.72
							c-0.71,0.83-0.38,1.65-0.2,2.64c0.1,0.57-0.24,1.87,0.23,2.26c1.26,1.05,2.99,0.42,4.31,0.92c3.18,1.19,1.79,6.51,3.28,5.03
							c1.83-1.82,2.93-0.9,5.76-1.55c0.42,0.29,0.88,1.24,1.13,1.81c3,1.05,5.47,3.78,7.6,4.25c1.56,0.34,1.68,1.96,1.74,3.21
							c0.02,0.33,0.28,1.09,0.11,1.4l-1.23,2.24c-0.07,0.73-0.1,1.51-0.38,2.17c1.93,2.74,1.47,5.68-0.23,8.61l-0.59,3.02
							c-0.09,0.48-0.43,0.98-0.82,1.62c-0.63,0.09-0.51,0.08,0.03,0l0.58,0.33c0.09,0.05-0.05,0.36-0.12,0.46
							c-0.7,1.19-0.65,2.22-0.77,3.47l-0.31,3.22c-0.35,0.16-0.99,0.4-0.32,0.32c0.15,0.61,0.23,1.12,0.1,1.38l-1.02,2.05
							c-1.24,2.5-1.85,3.04-3.73,5.34c-2.18,2.67,0.08,1.26-2.99,4.37l-0.34,1.23l-0.56-0.52c-0.21-0.19-0.02,1.22-0.25,0.95
							l-0.18-0.21c-0.05-0.06-0.04-0.29-0.03-0.38l0.2-1.29c-1.03,0.91-1.25,1.5-2.57,1.65c-0.02-4.03,0.99-3.47,0.1-7.45l1.41-0.45
							c-0.36-0.96-0.49-1.72-0.52-2.72c-0.17-5.14,0.5-3.04,0.71-6.1c0.01-0.15,0.22-0.62,0.33-0.51c1.1,1.12,0.67,2.73,0.38,3.91
							c-0.32,1.31,0.1,4.75,0.95,5.56c0.37,0.36,1.33,0.4,1.79,0.38l-0.47-0.67c-0.11-0.16,0.15-0.62,0.27-0.79
							c0.8-1.13,0.43-2.1,0.24-3.32c-0.25-1.66-1.05-3.85-2.5-4.65c0.17,0.09-0.01-1.43,2.84,0.65l0.1-0.71
							c0.03-0.19,0.72,0.17,0.89,0.25l0.49-0.08c-0.27-0.7-0.43-1.12-0.63-1.35l-1.34-1.55c-0.11-0.12-0.46-0.41-0.39-0.52l0.32-0.52
							c-0.16-0.25-0.31-0.47-0.27-0.42c1.14-0.66,1,0.43,1.36,0.68c1.87,1.29,2.03,3.05,1.69,5.11c-0.51,3.07,0.77,3.98-0.65,6.59
							c-0.05,0.09,0.33,0.32,0.38,0.23l0.26-0.43l1.99-3.49c0.66-1.16,1.17-2.27,1.01-3.67l-1.66,1.33c-0.2-0.25-0.46-0.91-0.29-1.12
							l0.79-0.93c0.14-1.81-3.18-4.9-2.58-5.38c1-0.79,2.6,1.56,2.97,2.37l0.88,1.96c0.52-1.81,0.56-3.72,0.83-5.76
							c0.22-1.66,1.24-3.28,1.62-4.96c1.27-5.61-1.41-5.2,0.84-12.1c0.43-1.3-0.28-2.59-1.66-2.81c-1.51-0.24-2.73-1.16-3.1-2.79
							l-0.57,0.22l-2.22-0.99c-0.76-0.34-1.94-1.89-2.78-1.88l-3.65,0.38c-0.47,0.05-1.22,0.46-1.54,0.9
							c-0.77,1.05,1.51,2.56-1.76,5.03l-0.89,1.78c-0.77,0.67-1.38,1.24-1.71,2.11c-0.45,1.2-1.83,3.22-2.64,4.33l-1.47,2.02
							c1.13,0.45,1.06,4.83-0.85,4.54c-0.44-1.12,1.23-2.63-0.14-3.46c-0.77,2.73,0.15,1.89-0.38,5.12c-0.06,0.37-1.34,0.3-1.54,0.35
							l-1.69,2.13l-1.47,1.85c-0.3,0.37-0.71,1.26-0.97,1.68c0.28,1.24-0.21,3.3-0.87,2.82l-0.91-0.66
							c-0.47,0.71-1.22,1.89-1.39,2.55c0.29,0.76,0.47,1.23,0.42,1.78c-0.07,0.74-1.09,0.86-1.69,1.03l-1.68,3.33
							c-0.77,1.52,3.36,4.69,0.21,4.93l-1.77-2.91l-1.45,3.04c-1.62,3.39,5.36,4.27,1.95,7.25l-1.82-2.33
							c-0.29-0.37-1.31-1.27-1.52-0.87c-0.59,1.13-0.88,2.15-1.31,3.41c0.65-0.02,1.14-0.09,1.44,0.03c1.21,0.48,0.6,2.52,0.12,3.27
							c-1.9,2.99,0.74,4.6-0.85,5.05c-1.47,0.41-1.13-3.54-0.93-3.99c0.14-0.35,0.68-1.18,0.46-1.46c-0.61-0.79-2.86-0.67-4.25,1.55
							c-0.52,0.84-0.83,1.91-1.29,2.77c-0.78,1.47-1.5,2.91-1.29,4.69c0.05,0.44-0.54,1.29-0.91,1.24c-3.03-0.37,1.13-6.3,1.54-8.35
							c-0.51-0.95-1.43-2.24-2.1-2.96c-1.95,0.87,0.25,1.68-0.85,4.04c-0.23,0.5-1.04,0.75-1.84,0.73l0.69-2.12l0.83-4.13
							c0.18-0.88,0.36-1.96,0.35-2.95l-0.01-2.69c0-0.22,0.85-0.69,0.88-0.47c0.03,0.22,0.07,0.61,0.1,0.91l0.12,1.68l0.11,2.88
							c3.22-1.18,2.95-7.57,4.02-6.99c1.58,0.86-0.21,2.77,0.32,2.92l1.43-1.87l-0.41-1.52l0.54-0.66c0.24-0.3-0.51-1.47-0.32-1.51
							l0.91-0.2l1.25,1.51l1.7-2.49c0.6-0.88,0.92-2.15,1.03-3.22l1.15-0.89c-0.74-0.46-1.56-1.02-1.74-1.56
							c0.61-0.89,1.76-0.33,2.25,0.51c0.63-0.92,1.5-1.93,1.76-2.84c0.39-1.35-1.07-2.08-1.67-3.21c0.81,0.13,1.97,0.53,2.52,0.86
							c0.12,0.17,0.44,0.97,0.57,0.83l0.62-0.7c0.62-0.71,1.27-1.57,1.66-2.21c-0.48-0.41-0.96-0.87-1.08-1.24
							c-0.08-0.25,0.79-0.73,1-0.58l0.92,0.67c0.53-0.59,0.35-1.76-0.28-2.58c-0.31-0.4,0.01-1.56,0.63-1.42
							c0.39,0.09,0.76,1.03,1.13,1.46c0.33,0.38,1.36-0.38,1.86-0.71c0.63-0.42,0.53-0.82,0.76-1.52c1.83-5.46,0.07-1.31,3.12-6.7
							c0.57-1.01,1.31-2.17,2-3.15l1.98-2.8c0.35-0.49,0.54-0.98,0.81-1.7c0.34-0.89,1.7-1.79,2.11-2.65l1.01-2.08
							c1.12-2.31-0.62-4.13-0.94-6.91c-1.13-0.37-2.98-0.75-4.3-0.95c-0.29,1.07-0.78,1.34-1.94,1.34c-5.62,3.83-1.2,1.55-7.02,3.88
							c-0.53,0.21-1.49,0.96-1.88,1.36l-3.41,3.52c-0.73,0.75-1.48,2.04-2.18,2.66c-1.16,1.04-1.77,1.52-2.36,2.98
							c-0.53,1.32-2.04,2.2-1.12,4.19l-1.49-0.02c-0.1,0.79-0.78,1.42-1.23,2.06c-2.19,3.11-1.96,2.26-4.65,5.29l-1.82,2.06
							c0.5,2.26-1.83,0.6-3.57,3.75c-0.63,1.14-1.25,1.79-2.2,2.63c-2.32,2.06-0.87,5.1-3.46,5.42l-1.32,1.45
							c-0.4,0.43-0.25,1.46-0.23,2.53c-0.16,0.45-2.43-1.1-2.18-0.09c0.04,0.15,0.23,0.57,0.24,0.73l0.31,2.98
							c0.03,0.25-0.46,0.85-0.6,1.06c-0.17,0.26-1.19,0.12-1.17-0.21l0.12-2.92c-1.19-0.04-4.21,3.43-4.38,4.42
							c-1.25,0.48-2.49,1.13-2.81,2.67c-0.24,1.16-0.97,1.44-1.92,2l-1.76,1.02l0.38,0.27c0.06,0.05-0.19,0.15-0.3,0.23l-4.37,3.43
							c-1.02,0.8-3.8,1.35-5.09,3.72c-0.31,0.26-1.16,0.41-1.3,0.77c-0.53,1.32,0.3,1.46-0.05,2.84c-0.25,1-1.47-1.35-4.32,2.17
							c-0.35,0.43-0.54,0.86-0.8,1.47c-0.43,1-1.81,1.76-2.44,2.64C188.58,220.5,188.13,221.25,187.45,221.87z M235.2,203.7
							c0.5-0.19,0.47-1.28-0.1-1.73c-0.38,0.39-0.7,0.73-0.85,0.96C234.1,203.16,234.91,203.81,235.2,203.7z M149.4,251.96
							c-0.05-0.23-0.71-0.66-0.76-0.45c-0.04,0.16-0.08,0.58-0.05,0.78l0.48,3.35c0.1,0.69,0.23,1.32,0.38,2.06
							C151.49,257.15,150.11,255.31,149.4,251.96z"/>
						<path d="M42.85,153.6c-1.72-0.56-3.51-0.33-4.84,1.32c-0.44,0.55-0.28,1.42-0.14,2.37c-1.5,0.96-1.64-1.09-3.46-0.62l-3.6,0.93
							c0.21-1.37,1.13-1.66,2.24-2.31c0.4-0.23-0.41-1.35-0.92-1.34l-4.19,0.02c-0.66,0-1.59-0.29-1.99-0.86
							c0.6-0.7,1.47-0.95,2.29-0.96l6.42-0.07c1.59-2.39-3.39-1.23-0.52-8.38c0.63-1.58,0.56-3.25,1.71-4.5
							c0.48-0.52,0.9-1.28,0.91-1.96c0.01-0.52-0.64-1.26-1.14-1.66c-2.32-1.83-2.06-2.03-3.96-3.35c-1.42,1.31,0.58,3.95-0.68,4.23
							c-1.81,0.4-1.15-3.74-3.04-5.13c-0.52,0.18-1.12,0.41-1.56,0.6l-0.7,0.3c-0.19,0.08-0.09,0.71,0.05,0.91
							c0.77,1.06,1.43,2.52,2.09,3.59c0.84,1.37,1.58,2.54,1.83,4.03c0.32,1.93-0.52,2.6-1.59,3.89l-1.96,2.37l-1.67,1.95
							c-1.24,1.45-3.43,2.49-3.94,3.2l-1.92,2.7l-2.28,3.12c0.22,3.45-0.87,7.09-2.08,9.95c0.78,2.54-0.04,4.68-1.17,6.95
							c-0.86,1.73-1.17,3.89-2.91,5.16l-1.89,1.38l-1.7,1.34c-0.4,0.32-1.08,0.63-1.67,0.8c1.49-2.13,3.35-3.59,5.46-5
							c0.48-1.34,0.89-2.75,1.49-3.99c1.65-3.47,0.42-1.75,1.35-5.71l0.73-3.1c0.55-2.32,0.36-4.78,1.41-6.97
							c1.52-3.16-0.06-0.65,1.72-3.49c2.78-4.45,2.11-2.91,5.77-6.35c1.3-1.22,2.24-2.43,3.22-3.99c0.61-0.97,2.26-1.65,2.09-3.21
							c-0.11-1-0.48-2.69-0.99-3.48l-1.95-3.07c-0.8-1.26-2.01-2.2-3.15-4.54l-0.87-1.8l-1.95-4.47c-0.69-1.58-0.45-3.15-0.01-4.73
							l0.62-2.21l0.69-1.74c0.51-1.28,0.8-2.68,1.21-4.02l1.03-3.36c0.06-0.19,0.86-0.41,0.81-0.61c-0.85-3.29-0.18-1.2-0.77-4.85
							c-0.49-1.35-1.37-2.66,0.07-3.86c2.03,3.94,0.5,3.22,1.52,7.6l-0.54,2.7l-0.74-0.55c0.18,1.14,0.19,1.88-0.09,2.81l-0.62,1.99
							c-0.28,0.89-0.27,2.32-0.78,3.02c-0.64,0.87-0.92,1.34-1.11,2.33c-1.12,5.66-0.23,2.7,1.7,9.28c0.19,0.66,0.96,2.07,1.96,1.65
							c0.76-0.32,1.4-2.06,1.61-2.9l-2.57-1.67c0.65-0.88,1.07-1.62,1.87-2.18l1.83-1.25c1.26-0.87,2.05-3.15,3.07-4.45l2.21-2.84
							l1.36-1.32c0.66-0.64,1.62-0.34,2.41-0.46l4.83-0.74c1.36-0.21,2.68-0.11,3.86,0.76c0.38,0.2,1.28-0.28,1.99-0.64l1.76,2.34
							l6.37,3.52c0.78,0.43,1.93,1.11,1,2.3l-4.19-2.13l-3.64,0.69c-1.76,0.33-2.81,0.16-4.48-0.46l-3.22-1.2
							c-0.93-0.35-2.4-0.87-3.05,0.12c-0.92,1.41-2.1,2.47-3.42,3.54c-1.13,0.91-0.9,2.79-0.35,4c0.58,1.27,1.06,2.78,0.46,4.08
							c-0.5,1.1-1.16,2.5-0.08,3.48l2.31,2.09c0.73,0.66,2.68,0.54,2.86,2.07c0.11,0.96-1.31,1.8-1.67,2.54l-1.76,3.54
							c-1.05,2.12-1.65,4.88-0.18,6.94c2.18,3.05,1.96,2.42,4.2,2.36c1.28-0.04,2.91,0.04,3.71-0.97c1.57-1.99,1.38-0.1,5.37-2.36
							c0.3-1.5,1.95-2.8,3.42-2.03c0.58,0.31,1.35,0.86,1.81,1.15c0.55-0.31,1.07-0.62,1.42-0.62c0.4-0.01,1.13,0.78,1.14,1.25
							c-4.47,3.02-6.22,3.05-9.37,7.96l-2.34,3.64c-0.67,1.04,0.04,1.96,0.81,2.49c2.54,1.77,1.92-0.53,5.48,1.96
							c0.97,0.68,4.26,2.92,2.9,4.45c-0.21,0.24-0.86-0.15-1.07-0.44c-4.16-5.86-5-1.5-7.46-4.43c-0.22-0.26-0.9-0.7-1.23-0.65
							c-0.38,0.06-0.95,0.49-1.49,0.93l-2.65-1.53c0.52-1.05,1.34-1.01,2.43-0.88l0.74-2.21c0.1-0.3,0.6-0.93,0.56-1.25
							c-0.06-0.5-1.61-1.78-2.07-3.74L42.85,153.6z M45.43,115.91c0.29-0.1,0.07-1.21-0.22-1.3c-1.65-0.5-3.59-0.9-5.34-1.22
							c-0.52-0.09-0.91-0.04-1.03,0.38C38.54,114.86,42.75,116.82,45.43,115.91z M35.63,116.29c0.1-0.17-0.25-0.56-0.44-0.6
							c-0.96-0.19-1.21,0.58-1.41,0.92c-0.1,0.18,0.23,0.66,0.43,0.66C34.79,117.27,35.31,116.86,35.63,116.29z M27.86,124.67
							c0.95,0.33,1.55-1.57,0.98-1.87C28.15,122.44,26.75,124.29,27.86,124.67z M32.33,128.92c0.51-0.29,0.66-1.27,0.49-1.68
							c-0.16-0.37-0.7-1.07-1.09-0.97c-0.66,0.17-1.15,1.21-0.92,1.79C31,128.51,31.69,129.28,32.33,128.92z M48.14,152.41
							c-1.65-0.88-3.02,1.06-3.61,2.31c-0.15,0.32,0.36,1.24,0.69,1.25C45.8,155.98,47.64,153.48,48.14,152.41z"/>
						<path d="M125.88,225.3c-1.75,1.89-3.86,3.04-6.11,4.08l-3.64,1.69c-1.95,0.91-3.71,2.45-5.57,3.47l-2.66,1.47
							c-4.01,2.21-4.72,2.33-9.17,2.69c-0.85,0.07-1.41,0.81-1.99,1.23l-2.27,1.6c-0.56,0.39-1.17,0.95-1.7,1.29l-3.08,1.9
							l-3.41,2.11l-1.72,1.09l-2.7,1.73c-1.84,1.18-3.64,2.16-5.68,3.05c-1.57,0.68-3.19,1.69-4.76,2.22
							c-1.37,0.46-2.2,0.83-3.44,1.72c-0.64,0.46-2.09,1-3.05,1.09l-3.26,0.31l-5.36,2.37c-0.64,0.28-1.4,0.47-2.14,0.65l-5.76,1.38
							l-3.53,0.7c-0.77,0.15-1.7,1.46-2.88,1.36c-0.31-0.03-1.07,0.36-1.07,0.66c-0.01,1.4,2.01,0.79,1.14,2.48
							c-0.32,0.63-0.97,0.79-1.65,0.81c-7.08,0.25-4.26-2.43-9.35-0.41l-4.78,1.89c-4.24,1.67-1.64,2.76-4.3,2.14
							c0.72-1.29,1.92-1.48,2.98-2.2c4.14-2.82,3.5-1.24,4.81-2.42c0.14-0.13,0.03-0.77-0.17-0.86L25,264.62l-0.82-0.35
							c-0.15-0.06-0.06-0.53,0.05-0.64c0.57-0.57,1.73-0.18,2.44,0.14l2.35,1.06c1.61,0.73,3.92,1.06,5.62,0.41
							c4.02-1.52,4.97-1.31,6.58-1.78l1.95-0.57c3.49-0.44,0.34-0.66,5.43-1.77c2.13-0.46,4.13-0.49,6.02-1.47
							c0.9-0.47,1.74-0.68,2.82-0.97c-0.1-0.67-0.42-1.79-0.65-2.5c0.9-1.8,0.94-3.69-0.52-5.2c-0.51-0.53-1.25-0.86-2.03-0.95
							c-0.66-3.18-2.53-1.26-6.03-3.54c-0.77-0.5-1.39-0.58-2.22,0.1l-1.6-1.75c-1.17-0.29-2.16-1.02-1.73-2.26l1.43-4.14
							c0.51-1.48,0.56-3.36,0.22-4.99c-0.09-0.45-1.25-0.78-1.71-0.89c-1.06-0.25-1.76-0.86-2.72-1.49
							c-1.03-0.68-3.59-1.22-3.52-2.95l0.96-6.28c0.22-1.42,0.17-2.38-0.08-3.76c-0.43-2.31-0.55-4.65-1.45-6.81l-1.28-3.09
							c-1.22-0.77-1.82-1.79-2.14-3.25c-0.49-0.56-1.9-0.38-2.79-0.19c-0.28,0.06-0.22-0.78,0.06-0.89l2.19-0.88l-1.08-2.06
							c-0.43-0.18-1.52-0.66-2.02-0.67c-12.27-0.11-5.36-0.53-11.96,1.88c-0.99,0.36-2.09,1.13-3.22,0.84
							c-0.64-0.16-1.81-0.79-2.25-1.27c-2.92-3.22-4.11-2.81-6.15-4.85c-1.79-1.8-2.28-3.58-3.59-3.95C0.98,191.45,0.34,189.52,0,188
							c0.55-1.7,2.15-2.87,3.76-3.64c-0.19,2.32-3.34,2.18-1.72,5.68c0.28,0.61,0.61,1.17,0.99,1.78c1.07,1.75,1.93,3.99,4.04,4.89
							c0.94,0.41,1.44,1.05,2.34,1.64l2.27,1.47c1.72,1.11,3.26,1.82,5.14,0.81l3.53-1.9l5.74-0.15c3.74-0.1,3.77-0.58,6.82,2.13
							l0.78,1.42l0.71,1.14c0.2,0.32-0.48,1.2-0.51,1.59c-0.07,1.28,1.51,2.4,2.55,2.93c0.85,4.14,1.17,2.64,2.01,7.28
							c0.11,0.62,0.3,1.39,0.31,2.02l0.09,3.5c0.03,1.12,0.04,2.55-0.21,3.62l-0.7,3.06c-0.03,0.13,0.73,0.33,0.8,0.44
							c0.09,0.15,0.13-0.19,0.27-0.93c0.39-0.01,1.27,0.04,1.98,0.1c5.47,0.43,7.03-0.52,13.42,0.07c0.31,0.03,1.14-0.18,1.2-0.48
							c0.23-1.38-0.54-0.71-0.39-2.56c0.02-0.3,1.02-0.27,1.32-0.12l4.93,2.47l3.04,1.1l2.73,1.26l1.72-2.48
							c2.27,2.72,1.27,3.27,3.7,4.47c1.26,0.63-1.5,1.89-1.44,2.61c0.03,0.35,0.44,0.87,0.88,1.28c0.27,0.25,0.05,0.88-0.3,1.28
							c-0.25,0.29-1.14,0.21-1.4-0.23c-1.53-2.57,0.01-4.36-1.12-4.79c-0.27-0.11-1,0.09-1.17,0.34l-1.05,1.61l-1.72-0.19
							c-0.28,1-1.46,2.3-2.56,1.84c-2-0.84-1.92-0.43-3.67,0.96c-1.44,1.15-3,2.17-4.56,3.23l-2.75,1.87
							c-3.96,2.69-3.83,1.26-5.13,3.14c1.15,0.93,2.37,1.79,3.74,2.18l4.56,1.28c1.42,0.4,2.18,1.63,4.27,2.77
							c0.14,0.54,0.49,1.89,0.37,2.48l-0.82,4.22c0.29,0.57,0.93,1.31,1.51,1.9l0.55-1.69l2.37,0.06c1.41,0.04,2.79-1.22,4.16-1.57
							c1.38-0.35,2.49-1.28,3.66-1.74c1.38-0.55,2.72-0.97,4-1.64l1.82-0.96c0.64-0.34,1.38-0.63,1.95-1.02l1.81-1.25l3.05-1.56
							l3.95-2.45c1.41-0.87,2.7-1.82,4.06-2.79c1.52-1.09,3.12-1.88,4.6-2.76c0.73-0.43,1.31-2.02,2.36-2.05
							c1.17-0.03,2.47,0.06,3.51-0.23c0.88-0.25,2.3-0.47,2.99-0.82l4.8-2.41l2.9-1.96l2.56-1.33c1.46-0.76,2.82-1.68,4.23-2.6
							c0.94-0.61,2.1-1.06,3.09-1.63c0.65-0.37,1.2-1.78,1.7-2.44c0.21-0.28,1.08,0.07,1.24,0.36
							C125.82,224.19,126.1,225.06,125.88,225.3z M50.53,230.71c2.15-0.21,4.3-0.28,5.78-1.97l-2.18-0.4
							c-4.39-0.81-5.47-0.55-9.94,0.15c-1.6,0.25-3.07-0.93-4.84-0.13l1.82,1.89c1.35,0.21,2.54,0.56,3.68,1.03
							C46.77,232.08,48.64,230.89,50.53,230.71z M49.49,240.23c1.04-0.4,1.78-1.03,2.65-1.7l2.49-1.91l1.6-1.17
							c0.82-0.6,1.21-1.13,1.89-2.03c1.59-2.13,4.71-1.73,5.33-3.04c0.14-0.29-0.39-1-0.64-0.93c-0.25,0.08-0.71,0.6-0.98,0.67
							c-1.71,0.4-4.19,0.6-5.9,1.25c-0.97,0.37-1.64,0.61-2.61,0.76l-4.11,0.66c-0.79,0.13-1.95,0.62-2.83,0.82
							c-0.28,1.21-0.52,2.79-0.93,4.02c-0.37,1.1-1.6,4.32-0.96,5.19C45,243.5,46.99,241.19,49.49,240.23z"/>
						<path d="M140.64,205.1c-0.67,0.39-1.25,0.7-1.94,1.01l-1.96,1.65l0.05-1.27c1.01-0.22,1.59-1.17,2.39-1.62l3.91-2.2l2.24-1.26
							c0.4-0.23,0.79-0.42,1.23-0.73l6.15-4.35l1.9-1.88c0.55-0.55,1.44-0.98,1.93-1.43c0.66-0.61,1.23-1.32,1.94-1.91
							c2.54-2.13,4.43-5.38,7.82-8.07l5.7-4.52l3.52-2.48c0.98-0.69,1.63-1.48,2.72-2.04c0.6-0.31,1.14-0.87,1.66-1.28l2.35-1.84
							c0.5-0.39,0.93-0.82,1.43-1.24l3.79-3.19l4.44-3.77c2.53-2.15,3.42-3.3,6.04-5.77c2.5-2.35,2.86-3.39,5.75-5.5l1.61-1.18
							l2.51-1.89l3.58-2.51c2.48-1.74,2.77-2.4,5.15-3.69l3.92-2.12l1.61-0.87c1.01-0.54,1.94-1.27,2.93-2.03
							c0.62-0.48,2.24-1.19,2.17-2.06c-0.1-1.35,0.16-2.5,1.34-3.19l0.1,2.35c0.41-0.12,1.22-0.39,1.2-0.7l-0.15-2.62
							c0.79,0.08,1.36,0.86,1.56,1.66c1.83-0.33,1.67-4.98-0.12-6.28c-0.2-0.15-0.15-1.04,0.09-1.12c0.66-0.22,3.34,1.27,2.8,4.15
							c0.51,0.2,1.79-0.6,1.8-1.23l0.08-4.58c0.62-0.32,1.47,0.47,1.52,1.18l0.25,3.11l1.18-1.84c0.58-0.47,0.87-1.21,0.8-1.99
							c0.93-0.07,1.28,1.19,0.74,2.02c-1.09,1.69-0.07,3.6-0.81,3.5l-1.17-0.16c-1.07-0.14-2.04,1.08-2.82,1.72l-1.97,1.62
							c-0.61,0.5-1.48,1.49-2.1,1.87l-2.59,1.6l-5.37,3.21l-2.26,1.41c-0.6,0.38-1.26,0.89-1.94,1.25c-1.31,0.69-2.53,1.3-3.76,2.06
							c-0.63,0.39-1.33,1.13-1.97,1.57l-1.67,1.16l-2.36,1.7l-3.04,2.22c-0.62,0.45-1.38,1.06-1.97,1.58l-3.8,3.35l-4.95,4.4
							l-1.77,1.79c-0.45,0.45-1.03,1.12-1.46,1.49c-1.21,1.03-2.53,1.84-3.59,3.01c-0.56,0.61-1.14,1.08-1.76,1.6l-1.51,1.27
							c-1.16,0.98-2.56,1.46-3.59,2.53l-2.51,2.6l-1.46,0.75l-2.1,1.77c-0.59,0.5-1.19,1.05-1.83,1.51l-3.53,2.54
							c-3.25,2.34-1.4,1.46-3.89,3.24l-0.96,0.9c-2.28,2.12-3.34,3.06-5.26,5.75c-0.85,1.19-2.04,2.23-3.2,3.12l-1.9,1.45l-3.18,2.35
							l-1.33,0.81c-0.8,0.49-1.48,1.14-2.23,1.65l-2.6,1.78c-0.49,0.34-1.11,0.64-1.64,0.94L140.64,205.1z"/>
						<path d="M45.25,197.74c-0.65,0.76-1.6,1.89-2.63,1.03c-0.4-0.35,0.4-1.46,1.08-1.89c-0.6-0.82-1.89-1-3.07-0.84
							c-0.98,0.13-1.47-0.4-2.19-0.87c-1.64-1.07-3.77-1.13-5.74-1.46c-3.02-0.52-0.72,1.03-7.02,1.79c-2.26,0.27-3.08-0.27-5.3-1.12
							c-1.07-0.41-2.06-0.48-2.92-1.34c1.79-2.03,2.31-0.47,5.73-3.28c2.03-1.67,0.64,1.6,8.13,1.47c2.46-0.04,0.62,1.05,6.31,1.86
							c1.25,0.18,2.33,0.33,3.46,0.69l4.06,1.29c1.5,0.48,1.54-2.46,3.58-3c0.26-0.07,0.85,0.57,0.67,0.78l-1.01,1.2l-1.39,1.67
							L45.25,197.74z M24.25,194.37c0.18,0.07,0.64,0.01,0.83-0.03c0.14-0.03,0.1-0.66-0.04-0.7l-2.12-0.62
							c-0.14-0.04-0.48-0.05-0.62-0.05c-0.14,0.01-0.31,0.54-0.2,0.53L24.25,194.37z"/>
						<path d="M250.39,249.99l3-4.9c0.96-1.57,2.18-3.02,2.96-4.66c0.46-0.95,1.54-2.04,1.73-2.84l0.88-3.62
							c0.77-3.16,2.97-5.47,3.8-10.2l1.04-5.91c0.14-0.8,0.74-1.65,0.96-2.3c0.44-1.33,0.61-2.73,1.24-4.04
							c0.36-0.76,0.46-1.46,0.13-2.16c-0.33-0.72-0.85-0.98-1.87-1.22c-0.33-0.08,0.18-1.21,0.51-1.1l1.88,0.64l-0.95-1.94
							c-0.09-0.19-0.21-0.59-0.24-0.75c-0.04-0.17,0.58-0.41,0.66-0.33c0.38,0.75,1.04,1.57,1.96,1.92l1.13-2.1
							c0.32-0.59-0.69-1.43-1.18-1.87c-0.77-0.7-3.03-3.75-1.94-3.91c1.27-0.19,1.69,1.21,2.05,2.26l1.46,1.17
							c1.4,1.12-0.26-0.8,0.53-2.03c0.32-0.5,1.33-0.93,1.74-0.59c-0.05,0.81,0,2.11-0.27,2.69l-1.84,3.91l-1.48,3.2
							c-2.29,4.95-0.67,5.6-3.16,9.21c-0.28,0.4-0.35,1.13-0.43,1.63l-0.72,4.41c-0.33,2.04-1.28,4.11-2.09,6.05l-1.11,2.66
							c-0.88,2.09-1.3,4.21-2.43,6.22c-0.68,1.22-1.38,2.55-2.15,3.68l-1.91,2.79l-1.47,2C252.39,248.92,252.22,250.32,250.39,249.99
							z"/>
						<path d="M59.82,203.21c1.48,0.8,1.54-0.95,4.77,2.07l1.85,1.73c0.2,0.19,0.41,0.86,0.37,1.13c-0.05,0.32-1,0.56-1.31,0.38
							l-3.07-1.84c-1.25-0.75-2.45-1.42-3.72-2.04c-1.69-0.83-2.92-2.26-4.36-3.37c-1.91-1.48-2.9-2.79-3.2-5.36
							c0-0.02-1.11-4.35-1.19-5.14l-0.54-5.27c-0.13-1.32-0.23-2.74-1.99-2.98l-7.18-0.96c-0.98-0.13-2.21-0.73-2.69-1.42
							c0.63-0.91,1.78-0.28,2.1,0.36l0.54-0.48c-0.25,0.22,3.48,0.8,3.95,0.87c0.63,0.09,1.6,0.62,2.16,0.75
							c1.13,0.26,2.6-0.36,3.84,0.16c0.49,0.96,0.57,2.34,0.68,3.48c0.56,5.5,0.56,3.18,1.45,8.24c0.19,1.07,0.38,2.38,0.71,3.4
							c0.76,2.37,3.04,4.25,5.11,5.36L59.82,203.21z"/>
						<path d="M240.81,269.04c-1.58,2.32-3.65,7.1-4.31,10c-0.07,0.3-0.24,0.67-0.37,0.84c-0.17,0.21-0.92-0.66-0.84-0.95l0.73-2.9
							c0.71-2.83,2.05-5.4,3.6-7.84l1.26-1.98l1.76-3.48c0.35-0.69,0.93-1.37,1.43-1.52c-0.24-0.82-0.07-1.52,0.33-2.24l2.47-4.41
							c1.02-1.82,1.86-3.97,3.82-3.77c0.18,0.02,0.13,0.79,0,0.91l-1.25,1.18c-0.57,1.36-1.37,2.43-2.11,3.67l-1.73,2.9l-1.92,3.64
							c-0.32,0.61-0.8,1.32-1.04,1.92C242.08,266.4,241.64,267.82,240.81,269.04z"/>
						<path d="M21.93,85.15c-1.29,0.1-1.41-0.96-1.27-1.54c0.19-0.82,2.2-3.97,2.9-5.06c0.52-0.81,0.46-2.47,1.14-3.26
							c1.75-2.04-0.38-2.9,2.28-3.99c0.01,2.9-1.34,3.27-1.53,6.59c-1.58,1.79-1.48,2.86-3.36,4.84L21.93,85.15z"/>
						<path d="M228.35,206.21c-1.02-0.39-1.11-1.38-1.02-2.28l0.39-3.82c0.09-0.87,0.01-1.61,0.7-2.28c1.3,0.77,0.91,1.81,0.74,2.94
							L228.35,206.21z"/>
						<path d="M21.99,92.58c-0.05,2.95,2,3.73-0.01,5.12l-0.84-3.37c-0.4-1.61-0.04-3.53,0.04-5.17c-0.41-1.01-0.56-1.91-0.35-2.96
							c0.89,0.01,1.27,0.59,1.26,1.35L21.99,92.58z"/>
						<path d="M255.18,144.79c0.06,0.77-0.26,1.46-0.99,2.07c-0.52-0.87-0.69-5.33-0.45-5.66c0.11-0.16,0.56-0.28,0.75-0.24
							c0.2,0.04,0.44,0.58,0.46,0.8L255.18,144.79z"/>
						<path d="M136.41,207.11c0.9,0.9-4.1,4.14-4.54,2.5L136.41,207.11z"/>
						<path d="M75.59,232.57l-1.37,2c-1.32-0.57-0.33-2.83,0.7-3.21C75.22,231.24,75.79,232.27,75.59,232.57z"/>
						<path d="M20.72,273.43c-0.82,1.07-1.71,1.89-2.75,2.31C17.84,273.88,19.58,273.29,20.72,273.43z"/>
					</g>
					<g>
						<path d="M157.23,130.89c-1.48,2.24-4.05,2.36-3.01,5.27c0.23,0.65-0.51,1.57-1.13,1.99c-1.03,0.71-1.48,1.54-2.18,2.51
							c-1.03,1.43-2.19,2.68-3.34,4.11l1.01,1.13c0.48-1.14,1.42-1.66,2.56-1.76l2-0.17l-1.8,1.29c-2.66,1.91-2.13-0.21-3.89,2.49
							c-0.59,0.9-2.11-1.45-3.45,0.29l-1.73,2.24c-0.05,3.11-1.6,3.11-1.88,6.02c-0.02,0.17,0.7,0.56,0.82,0.44
							c1.17-1.27,0.15-1.29,2.37-3.33c2.78-2.55,2.29-1.15,5.34-3.73c2.68-2.26,3.47-2.25,4.23-2.91c0.83-0.71,1.54-1.65,2.42-2.17
							c0.7-0.41,1.31-0.76,1.87-1.21l2.62-2.11l-1.38-1.23l1.98-1.15l3.71-3.47c2.86-2.68,2.7-4.35,4.21-5.9
							c1.2-1.22,1.86-2.15,1.5-4.02c-0.47-2.47-0.84-5-1.18-7.52c-1.66-3.06-2.09-2.64-4.23-5.87c-0.19-0.28,0.22-1.23,0.52-1.29
							c0.35-0.08,0.95,0.29,1.15,0.63l1.34,2.3c0.59-0.37,1.09-1.05,0.99-1.48c-0.17-0.75-0.5-1.3-1.01-1.86
							c-0.74-0.8-1.14-2.23-1.94-3c-3.51-3.37-3.85-2.42-6.06-3.87c-0.52-0.34-1.42-0.58-2.2-0.81c-0.69-2.52-2.78-3.75-5.13-4.49
							c-1.03-0.32-1.82-0.49-2.89-0.3l-1.71,0.29c-1.85,1.01-4.01,1.37-6.04,1.33c-0.55,0.75-1.26,1.42-2.03,1.85l-2.12,1.2
							c-0.8,0.45-1,1.29-1.5,2.05c-0.87,1.32-2.07,2.49-3.3,3.6c-0.38,0.34-1.41-0.87-1.57-1.33c-1.08-0.01-2.36,0.65-3.37,1.32
							c-0.98,0.65-2.32,0.92-3.29,1.42c-1.08,0.56-2.02,1.06-3.33,1.18c-1.19,0.11,0.81,5.85-0.38,5.99c0.57,1.7-0.09,3.34-0.71,5.08
							l-1.26,3.55c1.69,0.15,2.15-1.08,2.96-1.8l3.27-2.88c0.12,2.95-4.25,2.91-2.3,6.54l-0.63,0.33c-0.25,0.13-0.41-1.24-0.72-1.4
							c-0.19-0.1-0.73-0.12-1.05-0.13c-2.26-0.05-3.8,1.24-4.94,2.98c-0.78,1.19-1.64,2.25-1.61,3.86l0.12,5.13
							c0.05,2.23,1.93,4.66,3.45,5.6c0.23,0.14,0.35,1.03,0.16,1c-0.19-0.03-0.75-0.15-0.93-0.29l-2.61-2.1
							c-1.6-1.29-1.43-4.65-2.23-7.1c-0.14-0.44-1.3-0.37-1.52-0.01c-1.11,1.82-1.76,0.93-3.8,3.87c0.01,1.13,0.09,2.63,0.01,3.75
							l-0.28,3.64c-0.12,1.61,1.15,2.77,1.9,4.01c1.61,2.67,1.8,1.23,2.5,2.99c0.12,0.3-0.63,1.05-0.95,0.94
							c-0.85-0.29-1.27-1.41-1.81-1.98c-2.62-2.78-2.16-4.08-3-4.37c-0.74-0.26-1.49,3.16-0.97,4.17l2.36,4.63
							c-1.05,0.32-1.67-0.59-2.15-1.28c-1.61,0.41-2.62-0.18-3.59-1.35L98.6,152c-0.84-1.01-1.44-1.84-1.97-3.05
							c-1.1-2.49-3.65-4.9-0.64-8.37c-0.82,2.47-0.74,4.69,0.94,6.2c0.25,0.24,0.22,1.23,0.53,1.32l1.35,0.39
							c0.21-1.94,0.16-3.98-0.09-6.01c3.85-1.17-0.04-4.14,3.08-7.75c1.04-1.2,2.24-2.13,3.65-2.61c0.73-1.52,1.14-0.32,3.66-2.53
							c0.2-0.18,0.87-0.13,1.03,0.05c0.19,0.21-0.25,0.77-0.32,1.25c-0.09,0.62,1.22,0.52,1.75,0.23c0.48-0.27,0.9-1.42,0.44-1.58
							c-0.78,0.06-1.51,0.16-2.02-0.01l2.22-1.73l2.02-1.57c0.34-0.26,0.96-0.64,1.31-0.85c0.08-0.75,0.38-1.48,1.04-2.03l0.31-2.57
							c0.36,0.46,0.6,0.82,0.79,1.25l0.28,0.62c0.08,0.18,0.86,0.09,0.93-0.09c0.62-1.83,1.68-5.42,1.39-7.27l-0.59-3.76l-3.89-0.21
							c2.01-1.1,4.04-0.96,5.97-1.6l3.48-1.15c0.49-0.16,0.98-1.11,1.29-1.64l1.91-0.31c1.54-2,3.02-1.62,2.68-3.15
							c-0.07-0.33-0.96-0.51-1.24-0.32l-1.48,1.02c-0.35-0.17-0.93-0.62-1.19-0.5c-0.26,0.12-0.7,0.49-0.99,0.74l-0.58,0.52
							c-0.13,0.12-0.58-0.51-0.46-0.65c0.9-1.11,2.33-1.22,4.49-3.78l1.8-2.13c1.02-1.21,2.23-2.89,1.09-4.51
							c-0.15-0.44,0.7-1.15,1.17-1.58c0.3-0.3-0.78-2.38-1.64-2.5c-0.31-0.04-0.86,0.38-1.06,0.71c-0.37,0.62-1.16,0.99-1.62,1.46
							l-1.93,1.94c-1.74,1.76-3.61,3.29-5.72,4.4c0.56-1.88,2.33-2.1,3.31-3.26l1.88-2.22c0.66-0.78,1.16-1.5,1.43-2.42l0.84-2.85
							c0.25-0.85,1.7-1.38,1.16-2.65c-0.58-0.05-1.48,0.28-2.26,0.54l-2.6,0.86c-2.13,0.7-3.93,3.87-5.23,4.01
							c-0.5,0.72-1.11,1.43-1.76,2.03c-3.3,3.05-3.13,1.84-6.74,4.25c-1.75,1.17-3.98,0.69-5.97,0.52c-6.24-0.53-4.06-1.94-8.72-1.63
							l-0.29-0.96c-0.08-0.26-0.72-0.32-1.08-0.37l-3.85-0.54c-1.71-0.24-3.5-1.21-3.86-3.05l1.31,1.16
							c2.74,0.62,5.29,1.78,8.05,2.18l2.36,0.34c1.61,0.23,3.07,0.97,4.59,1.31c0.62-1.14,1.4-0.99,2.4-0.99
							c3.8,0.01,1.05,0.47,4.73,1.51c2.87-3.09,2.23-0.87,6.28-4.25l1.36-1.13c-0.28,0.23,4.47-4.3,4.1-4.13
							c-0.66,0.12-0.99,0.27-1.16,0.18l-0.75-0.38c-0.47,0.49-1.06,1.07-1.97,0.52l1.65-1.01l3.35-1.96
							c1.42-0.83,2.63-1.74,4.26-2.66l2.03-1.15c0.96-0.54,2.43-1.24,3.45-0.89c0.86,0.29-0.14,1.55-0.62,1.81l-0.74,0.4
							c-0.15,0.08-0.63-0.51-0.79-0.44l-2.23,1c-1.38,0.62-2.52,1.18-3.87,1.92l1,1.09c0.61-0.44,1.18-0.74,1.87-1.04
							c1.33-0.58,2.67-1.57,4.08-1.68c0.88-0.07,2.04,0.31,2.52-0.71l1.22-2.61c0.39-0.84,3.16-3.86,0.69-5.07
							c-1.18-0.57-2.29-0.83-3.52-0.91c-1.69-0.11-2.19,0.66-3.18,1.68c-0.51,0.52-3.44,2.93-4.68,3.11
							c1.88-3.92,2.67-1.54,4.78-4.93l-1.33-0.18c-2.55,2.41-2.35,1.34-6.07,3.95c-0.86,0.6-4.78,3.09-5.56,2.07
							c1.17-0.93,2.24-1.3,3.33-1.89c1.18-0.65,6.78-3.99,6.89-5.08c0.06-0.58-1.03-1.88-1.77-1.74c-0.61,0.12-7.37,6.77-10.39,4.28
							l3.78-1.16c1.68-0.51,3.61-2.34,4.79-3.58l-0.51-1.28c-1.25-0.64-0.85-1.81-2.68-3.85c-0.39-0.44-1.48,0.25-1.77,0.6
							l-1.57,0.88c-0.56,2.05-1.59,3.83-3.04,5.22c0.5-1.3,0.93-2.16,1.11-3.33c-0.45-0.19-1.47-0.29-1.82-0.04l-3.47,2.52
							c-0.95,0.69-1.52,1.72-3.01,0.73l-1.61,2.37c-0.99,1.45-2,2.61-3.3,3.88l-1.5,1.46l-1.85,1.53c-0.39,0.32-0.92,1.2-1.4,1.52
							l-2.23,1.46c-0.8,0.52-1.49,1.04-2.46,1.37c-0.7,0.23-1.35,1.21-1.01,1.84c3.95,1.36,7.59-1.41,10.55-3.63
							c0.98-0.74,1.81-1.4,2.67-2.32c2.26-2.39,3.48-1.77,5.17-4.2c0.1-0.14,0.91-0.17,0.84-0.04c-0.09,0.18-0.26,0.48-0.43,0.72
							l-1.22,1.75l-0.43-0.02c-0.12-0.01-0.51,0.24-0.4,0.28c1.52,0.53,0.99,2.38,0.66,3.94l-2.46,1.63
							c-0.28-2.52,2.6-2.37,1.65-3.77c-0.29-0.42-1.54-0.26-1.91,0.08l-2.32,2.13c-0.84,0.77-1.75,1.2-2.7,1.77l-3.61,2.15
							c-2.76,1.65-5.03,1.91-8.09,0.33c-1.4-0.72-1.37,1-3.83-2.97c1.91,0.36,3.05,1.2,4.52,0.59c0.51-0.21,1.51-0.51,1.95-0.79
							l2.16-1.41c0.18-0.11,5.45-4.37,5.32-4.22l1.99-2.16c0.41-0.45,0.78-1.16,1.32-1.43c0.44-0.23,0.85-0.57,0.88-0.87
							c0.05-0.43-0.33-1.06-0.68-1.12c-1.9-0.34-0.63,1.39-2.79,0.96c-0.34,0.32-0.95,0.89-1.41,1.17l-3.26,2l-3.43,2.07
							c-1.06,0.64-2.37,0.72-3.38,0.37l0.02,0.52c0,0.12-0.4,0.36-0.46,0.26l-0.42-0.72l-0.47,0.67l-2.54-0.01
							c-0.19,0-0.56-0.27-0.65-0.43c-0.11-0.21,0.58-0.49,0.85-0.51l3.83-0.32c0.58-0.05,1.81-0.35,2.34-0.62l3.94-2
							c0.95-0.48,1.59-1.85,2.98-1.43c2.58-2.88,1.2-0.56,4.04-2.61c0.81-0.59,2.19-0.9,3.01-1.61c3.82-3.28,4.33-7.69,6.61-7.41
							c0.29,1.2-0.8,2.27-1.56,3.14l-1.44,1.64c-0.19,0.22,0.17,0.95,0.46,1.16l4.71-3.47c0.89-0.65,2.14-0.84,3.05-1.67
							c-4.2-2.42-3.07-1.81-7.35-2.07c-1.77-0.11-3.28-0.05-5.17,0.49c0.17-1.8,1.7-1.94,3.03-1.81c4.2,0.43,4.84,0.12,9.47,0.78
							c2.17,0.31,2.49-0.5,2.59-0.43c1.3,0.91,2.02,2.38,3.69,2.89c0.32,0.1,1.43,0.19,1.36,0.49c-0.17,0.8-0.91,1.49-1.72,2.3
							l2.99,1.54c2.39,3.23,5.79,3.4,9.41,2.43c0.72,0.61,1.73,2.15,2.58,2.21l3.52,0.22c1.86,0.12,3.37-0.3,4.97-1.13
							c1.05-0.54,2.54-0.35,3.75-0.69c1.47-0.41,5.73-1.88,6.29-0.86c0.1,0.18,0.02,0.84-0.19,0.88l-3.67,0.6l-1.77,1.22
							c-1.09,0-5.05,0.29-4.61,1.79l3.41,0.28l3.87,0.23l7.4,0.62c-1.98,1.8-3.28,0.07-3.74,1.18c0.44,1.96,5.3,0.83,8.44,2.2
							l-0.41-2.2c1.62-1.54,2.37,2.3,3.25,3.04c2.13-0.58,3.4,1.1,5.03,1.67c1.16,0.4,1.83,1.08,2.82,1.71
							c0.46,0.29,3.76,1.36,5.54,4.36c0.48,0.22,1.37,0.57,1.84,0.86l2.24,1.39c0.93,0.58,1.7,1.17,2.7,1.75
							c0.49,0.29,0.91,0.78,1.14,1.25c3.05,0.4,2.44,2.56,3.55,2.07c0.23-0.1,0.47-0.78,0.35-0.99l-1.02-1.76l-0.68-1.77
							c-0.77-2-5.85-7.76-5.98-9.17c-0.02-0.21,0.85-0.39,1.01-0.17c2.42,3.22,5.11,7.26,7.02,10.86c0.78,1.47,0.7,2.68,0.78,4.14
							c0.36,1.53,2.04,2.93,2.5,4.53l1.68,5.93c0.07,0.24,0.66,0.58,0.8,0.43c0.14-0.15,0.41-0.61,0.36-0.85
							c-0.52-2.52-0.07-5.46-0.36-8.04l-0.43-3.88c-0.16-1.46,0.04-2.85-0.29-4.29c-0.12-0.54-1.13-1.37-1.34-1.89
							c-0.73-1.8-1.96-3.13-3.72-3.95l0.54-1.43c1.39,1.27,2.94,2.59,4.17,4.04c1.73,2.03,1.6,4.53,1.84,6.9l0.42,4.2l0.21,2.79
							c0.12,1.58,0.22,3.26,0.51,4.82c0.18,1.01,0.47,1.66,0.09,2.8c-0.18,0.54-0.15,1.88-0.58,2.26c-0.99,0.89-2.23,2.07-1.34,3.65
							c1.71-0.28,1.37-3.5,2.56-3.22c0.31,0.07,0.67,0.48,1.02,0.9c1.27-1.02,1.67-2.61,2.07-4.17l0.68-2.64
							c0.23-0.9,0.34-1.59,0.28-2.51l-0.25-3.96l0.07-3.5c0.47-0.18,0.51-0.22-0.13-0.12c-0.34-0.36-0.7-0.78-0.76-1.08
							c-0.45-2.19-1.18-3.92-2.11-5.85c-0.43-0.9-1.11-1.61-1.67-2.41l-1.81-2.59c-0.79-1.14-1.57-1.85-2.36-3.51l-1.88-3.94
							c-0.44-0.93-0.75-1.82-0.91-2.99c-0.43-0.38-1.39-0.54-2.36-0.65l-0.37-2.09l-1.43-2.57c-0.13-0.24,0.27-0.91,0.52-1.01
							c1-0.37,3.61,2.83,3.93,3.39c1.24,2.14,1.71,4.57,1.43,6.59c0.97-0.04,1.24,0.98,1.7,1.68c0.53,0.82,0.9,1.47,1.23,2.44
							c0.26,0.75,1.32,1.47,1.78,2.14c0.71,1.03,1.29,2,2.11,2.9c0.65,0.7,1.02,1.48,1.56,2.33c0.43,0.67,0.51,1.42,0.47,2.27
							c-0.03,0.63,1.55,1.24,0.56,2.52l0.61-0.09c0.17-0.03,0.4,0.48,0.42,0.67l0.23,2.13c0.37,3.44,0.92,9.73-0.28,12.91
							c-0.78,2.07-1.76,3.87-2,6.2l1.13,1.73c0.83-0.94,1.21-1.75,1.56-2.91l0.74-2.46c0.1-0.32,0.85-0.67,1.14-0.6
							c0.29,0.07,0.57,0.92,0.43,1.19c-0.55,1.07-0.55,2.11-0.62,3.36l-0.34,5.91c-0.02,0.35-0.72,0.99-0.91,1.26
							c0.13,1.79-0.62,4.04-1.36,5.73l-0.9,2.05c0.49,0.92-1.5,7.85-2.03,8.85l-1.84,3.45c-0.18,0.34-0.68,0.85-0.86,1.29
							c-0.7,1.66-2.21,3.64-3.64,4.58c-0.27,0.17-1.1-0.19-1.29,0.02c-0.52,0.56-1.49,2.31-1.43,3.35c0.15,0.6,0.21,0.8,0.37,0.16
							c1.1-0.26,1.84-0.29,2.73,0.1c-0.47,1.36-1.55,1.86-2.28,2.72c-1.42,1.69-2.87,2.84-4.8,3.86c-0.87,0.46-1.76,1.03-2.67,1.45
							l-2.47,1.13c-0.53,0.24-4.31,1.42-4.51,1.55l-4.6,3.11c-0.5,0.34-1.82-0.07-2.45-0.08l-4.6-0.03c-1.01-0.01-1.95,0-2.83-0.22
							c1.76-1.37,3.5-0.84,5.29-0.84c1.18,0,2.2,0.09,3.46,0.39l2.06-0.61c0.81-1.28,1.99-1.98,3.1-3.01
							c0.64-0.59,1.32-1.43,1.95-2.1l1.88-2.01l1.58-1.95l1.94-2.21c1.41-1.61,2.58-3.46,3.72-5.28l0.97-1.55l0.1-1.69
							c-2.41,0.74-0.97,2.14-4.06,4.09l-3.29,2.09c0.12,0.57,0.32,1.2,0.26,1.59c-0.11,0.76-2.11,1.86-3.25,0.78
							c-1.24,0.54-2.6,1.19-3.88,1.84l-2.52,1.29c-1.06,1.27-2.64,2.49-4.41,1.66c-0.41-0.19-0.74-0.92-0.47-1.11
							c1.93-1.31-0.27,0.97,3.49-0.89c0.31-0.15,0.69-0.53,0.7-0.81c0.03-1.31-2.71,0.02-2.63-1.5l3.98-1.11
							c1.35-0.38,2.94-0.5,4.22-1.05c1.59-0.68,4.57-2.48,5.76-3.49c0.87-0.74,1.25-1.69,2.59-1.67c0.45,0,0.84-1.33,0.41-1.44
							c-0.8-0.2-2.28-0.44-2.93-0.13l-2.3,1.08l-2.98,1.13l-3.8,1.96c-0.51,0.26-1.39,0.53-1.85,0.27c-0.53-0.29-0.35-1.9,0.19-1.83
							c1.06,0.15,1.8,0.14,2.61-0.28l2.91-1.52c0.58-0.3,1.43-0.61,2.1-0.83c1.26-0.41,2.23-1.02,3.37-1.59
							c1.26-0.64,2.69-1.24,4.07-1.81c0.58-0.24,2.04,0.01,2.54-0.39l0.29-3.57c-0.39-0.4-1.31-0.12-1.73,0.43
							c-0.82,1.09-3.75,2.88-5,3.66c-1.17,0.73-2.32,1.63-3.64,2.24c-1.71,0.79-3.28,1.46-5.09,2.17c-0.69,0.27-5.6,0.53-4.94-1.28
							c6.36-0.16,3.66,0.59,8.86-1.89c1.21-0.58,2.43-1.37,3.59-2.12l2.83-1.82c1.2-0.77,2.1-2.08,3.2-3.13
							c0.31-0.3,1.19-0.58,1.64-0.85c1.84-1.11,2.39-4.99,1.57-4.49c-1.67,1.01,0.38,0.11-2.17,1.81l-2.29,1.53l-4.41,2.78
							l-1.58,0.97c-2.01,1.23-4.07,2.23-6.46,2.61l-2.2-1.27c2.25-1.9,1.97,1.38,4.84-0.62c3.59-2.51,4.32-2.27,7.61-4.49l2.28-1.54
							l3.88-3.02c1.28-0.99,2.04-2.5,1.19-4.22c-0.82,0.67-1.58,1.36-2.4,1.93l-4.24,2.93c-0.83,0.57-5.94,1.98-7.18,2.33
							c-1.49,0.42-2.77,2.09-4.66,1.32c0.1,1.62-3.26,5.49-4.4,6.23c-1.88,2.75-0.76,3.8-1.7,6.48c-0.38,1.1-0.68,2.33-1.11,3.36
							c-0.92,2.21-1.78,4.28-2.56,6.51l-0.99,2.84c-0.34,0.99-1.65,1.89-2.02,2.79c-0.37,0.9-0.69,2.05-1.48,2.43
							c-0.23,0.14-0.21,1.01,0.03,1.12l1.12,0.51l0.42,2.25c0.13,0.7,0.17,1.52,0.28,2.32c0.13,0.98,0.71,2.28,0.63,3.25
							c-0.37,4.65,0.87,5.32-0.24,6.33c-0.76,0.68-1.12,1.72-1.72,2.38c-1.86,2.07-1.71,2.17-3,3.65l-1.81,2.07
							c-1.51,0.21-2.46,0.87-3.32,2.12c-1.49,2.17-3.96,1.37-3.91,1.23c0.06-0.15,0.26-0.59,0.42-0.66l1.86-0.87
							c0.51-0.24,1.19-1.61,0.58-1.76c-1.09-0.26-2.15-0.1-3.1,0.11l-0.24,1.52c-0.59,0.18-1.72,0.14-2.31-0.24
							c-5.35-3.39-7.57,1.14-9.35-4.8c-0.52-1.73-0.91-3.2-1.23-4.91l-0.48-2.54l-0.69-2.82c-0.37-1.51,0.42-3.71,1.28-4.89
							c0.89-1.22,0.41-1.68,0.23-2.95c-0.28-1.98-0.21-4.28-0.09-6.38c0.15-2.73,0.84-3.94,1.28-6.01c0.35-1.69,0.94-3.13,1.63-4.71
							c0.65-1.49,2.32-2.02,3.4-3l1.68-2.19l3.97-4.85c0.46-0.96,0.01-3.02-0.54-3.85l-1.03-1.59c-1.35-2.08-4.03-2.52-3.6-4.75
							c0.1-0.54,0.93-0.96,1.56-1.44c0.64-0.49,1.24-1.88,2.13-1.87l1.78,0.01c0.31,0,0.46-1.07,0.25-1.29l-0.86-0.9
							c-1.34-2.17-3.96-2.98-4.38-3.33c-1.07-0.88-2.94-3.27-5.83-1.61l-0.16-2.84c-1.87-1.43-2.18-3.95-0.82-5.88
							c1.28-1.81,4.27-4.02,6.24-5.1c2.86-1.58,1.06,0.46,5.62,0.17c0.37,0.65,0.87,1.36,1.48,1.88l0.12,0.37
							c0.14,0.45-1.62-0.12-2.71,1.26c-0.7,0.89-1.48,1.72-2.04,2.56c-0.77,1.14-1.3,1.54-2.55,2.09c-1.02,0.45-1.77,0.93-3,0.92
							c-0.6-0.01-0.69,1.41-0.25,1.87c1.72,1.82,3.98,2.77,6.51,3.12l1.18-1.4l1.66,1.67c0.08,0.08,0.52,0.28,0.54,0.17l0.1-0.81
							c0.03-0.27,0.26-1.06,0.54-1.06c0.33,0,0.87,0.26,1.25,0.45c2.13,1.07,2.18,1.73,2.74,1.39c0.22-0.13,0.16-0.72,0.03-0.94
							l-0.24-0.4c-0.08-0.13,0.64-0.32,0.79-0.28c1.35,0.35,2.96,2.26,2.34,2.89c-0.11,0.11-0.28,0.09-0.67,0.07
							c-2.6-0.13-4.37,1.39-4.32,1.37l-1.5,0.55c-0.33,0.12-0.63,1.08-0.42,1.38c-0.19-0.26,2.99,3.75,2.54,3.25l1.3,1.47
							c0.07,0.08-0.01,0.8-0.12,0.81l-0.59,0.07c-0.17,0.02-0.12-0.27-0.14-0.69c0.04,0.01-0.15-0.03-0.51-0.09
							c-0.14,0.04-0.64,0.2-0.76,0.31c-0.41,0.37-0.12,1.92,0.43,1.94L157.23,130.89z M134.31,89.07c2.63-7.04,5.28-7.16,9.02-13.02
							c-0.96-1.55-2.84-1.32-4.27-0.44l-0.97,2.94c-0.65,0.89-1.55,1.61-1.68,2.71c-0.16,1.42-1.31,2.49-1.77,3.72
							c-0.34,0.91-0.37,1.85-0.97,2.68c-0.16,0.22-0.29,0.79-0.22,1.03C133.52,88.93,134.21,89.3,134.31,89.07z M150.85,77.56
							c0.35-0.23,0.69-0.75,0.66-1.13c-0.08-1.01-2.27,0.38-4.4-0.24c-2.03-0.59-2.87,0.67-3.92,2.06c-0.55,0.72-2.08,2.29-1.85,4.06
							c1.36-0.46,2.63-0.87,4.11-1.46C145.74,80.72,150.03,78.1,150.85,77.56z M154.04,154.77l-1.65,2.18
							c-0.76,0.99-0.83,1.7-0.98,3.02c-0.13,1.21-2.52,5.59-3.64,5.88l-3.18-0.67l-4.24,3.7c-1.02,0.89-1.69,2.89-1.89,4.23
							c-0.18,1.22,0.68,2.53,0.87,3.61c0.21,1.15,0.41,2.15,0.68,3.23l0.92,3.65c0.22,0.88,1.27,2.15,2,2.63
							c3.33-0.89,3.5,0.97,5.07,0.14c-1.38-1.33-2.48-2.3-3.53-3.81c-1.8-2.59-2.79-6.18-2.08-9.41c0.32-1.48,1.46-2.73,1.91-4.12
							l3.47-0.39c-1.83,3.92-2.61,0.03-4.04,4.34c-0.42,1.29-0.53,2.23-0.12,3.44c0.35,1.05,0.4,2.71,0.71,3.85
							c0.53,0.68,1.38,1.96,2.04,2.68c2.49,2.71,10.01,4.02,10.21,0.85c0.09-1.46,1.74-1.3,2.35-2.13c1.85-2.5,2.02-5.87,1.68-8.84
							l-1.59-2.29l-2.29,0.37c0.52-1.54,1.03-0.51,1.36-1.99c0.04-0.19-0.66-0.32-0.86-0.26c-1.97,0.62-4.8,0.2-4.9-0.36
							c-0.04-0.22,0.08-0.72,0.27-0.84c1.02-0.66,2.24,0.91,3.11,0.29c0.91-0.65,1.79-1.09,2.93-1.05c0.55-0.57,1.35-1.43,1.89-2.11
							c0.2-0.26,0.16-1.22,0.48-1.31c1.47-0.41,0.95,0.11,2.88-2.23c2.04-2.47,3.44-8.18,4.83-10.78c2.7-5.05,1.05-7.05,3.48-11.34
							c0.91-0.93,1.67-1.62,2.33-2.69c2.64-4.25-0.18-2.86,1.66-5.27c1.17-1.54-1.7-2.55,1.22-4.57c0.83,0.4,0.91,1.8,0.79,2.72
							l-0.28,2.26c2.81,0.27,3.36-0.65,5.86-1.48l3.35-1.12c2.49-0.83,5.47-2.58,6.85-4.64c0.23-0.34-0.3-1.15-0.6-1.29
							c-0.26-0.12-0.74,0.59-1.02,0.63l-2.02,0.28c-2.07,1.07-4.01,1.63-6.31,2.08c-0.7,0.14-1.87,0.8-2.62,1.08
							c-0.47,0.17-1.81-0.23-1.97-0.7c-0.22-0.64-0.36-1.52-0.44-2.22l1.7,1.35c0.34,0.27,1.29-0.35,1.74-0.45
							c1.37-0.31,2.59-0.72,4-1.38c-2.36-1.35-2.36,0.41-5.58-0.87c-1.78-0.71-2.91-2.93-3.93-4.68c-0.13-0.23,0.27-1.16,0.45-1
							l0.6,0.53c3.4,3.02,0.11,4.03,6.74,4.28c1.25,0.05,2.43,0.29,3.54-0.22l4.9-2.21c0.38,0.23,0.87,1.01,1.15,0.9l1.23-0.47
							c1.03-0.39,1.95-0.85,2.38-1.94c1.72-4.3-1.02-5.78,1.41-7.31l-1.09-3.71c-0.49-1.68-0.92-3.19-1.52-4.75
							c-1.36-3.53-1.93-4.58-4.96-6.88c-2.97-2.25-3.77-2.36-6.8-4.48c-0.94-0.66-2.1-1.26-2.93-1.99c-1.92-1.7-1.05-0.81-2.76-2.33
							c-0.17-0.15-0.7,0.05-1.07,0.22l1.08,1.74c0.55,0.88,0.98,1.71,1.7,2.45c0.21,0.22,0.67,0.93,0.45,1.07
							c-0.97,0.58-2.56-0.82-2.99,0.99c3.4,2.56,4.05,2.27,7.79,4.16c0.68,0.34,2.11,0.42,2.67,0.79c1.99,1.32,2.63,1.72,5.22,1.38
							c0.44-0.06,0.7,1.45,0.26,1.53c-0.94,0.19-2.59,0.3-3.27-0.12c-0.86-0.71-1.51-1.15-2.68-1.27c-1.22-0.12-2.3-1.31-3.41-1.61
							c-2.09-0.57-3.74-1.69-5.35-3.1c-0.9-0.79-2.32-1.65-2.49-2.95c0.6-1.31,0.21-3.3-0.81-3.81c-2.01-1.02-3.02,1.13-4.57,0.35
							l2.05-1.45c-0.66-2.36-4.47-3.47-6.05-5.83l-3.92-0.71c-1.14-0.21-2.6-0.39-3.71-0.51c-1.61,2.25-6.78,3.52-9.12,1.84
							l-3.31,2.31c-1.35,0.94-2.91,1.68-4.61,2.51c0.18-2.03,4.1-2.75,5.8-4.56c2.88-3.06,1.26,0.11,5.23-2.56
							c0.57-0.38,0.92-0.82,0.8-1.35c-0.1-0.43-1.04-0.98-1.41-0.75l-3.49,2.19c-0.82,0.51-1.67,0.9-2.55,1.35
							c-1.75,0.9-3.34,1.74-5.38,2.02c-2.61,0.36-7.1,3.66-5.62,6.84c0.67-0.2,1.36-0.69,2.06-1.16c2.5-1.67,2.1-0.36,2.82-1.38
							c0.36-0.51,0.49-0.7,0.69-0.84c0.2-0.14,1.04,0.07,1,0.18c-1.12,1.17-1.82,1.49-2.82,2.22l-2.32,1.68
							c-1.8,1.3-2.07,3.46-3.02,5.11c-2.37,4.15-5.12,4.17-4.43,6.56l2.02-1.03c0.42-0.01,1.17,0.08,1.37-0.18l0.79-1.02
							c0.47,0.24,1.27,0.82,1.7,0.81c1.23-0.78,1.85-2.7,2.05-4.17c0.05-0.42,0.94-1.01,1.22-1.32c0.72-0.81,1.54-1.22,2.46-1.71
							c1.24-0.66,2.13-2.33,4-1.52c-4.08,3.71-5.13,1.66-7.46,6.62c-0.28,0.59,0.4,1.7,0.92,1.48c2.44-1.09,7.65-2.85,10.28-3.03
							c0.42-0.03,1.18,0.06,1.11-0.21c-0.06-0.25-0.26-0.76-0.42-0.94c-1.98-2.21,0.21-4.96-2.56-5.16c-0.69,0.42-1.65,0.87-2.2,0.98
							c0.41-0.77,0.67-1.21,0.81-1.57c0.12-0.33-0.6-0.9-0.92-1.32c-0.19-0.27,0.76-0.74,1.15-0.75c0.33,0,0.62,0.27,1.17,0.73
							c0.43,0.36,1.36-0.57,1.79-1.08c1.34-1.56,3.13-2.46,5.04-3.27c0.82-0.35,4.09-2.4,3.88-1.51c-0.3,1.25-2.17,1.5-2.17,3.19
							c0.3,0.41,1.22,0.45,1.74,0.43l0.84-0.04c-0.6,0.03,1.53,1.1-2.43,0.62c-2.38-0.29-4.44-0.32-6.28,1.77
							c0.45,1.34,2.01,2.07,3.36,2.09c0.34,0,1.02,0.46,1.35,0.61c1.32,0.64,2.89,1.11,3.99,2.07c0.54,0.48,0.96,0.85,1.63,1.22
							c0.44,0.25,0.7,1.21,1.04,1.64l0.61,0.79c0.13,0.17-0.62,0.66-0.83,0.57c-0.47-0.2-0.73-1.18-1.12-1.63
							c-0.66-0.76-1.49-1.65-2.09-2.19c-1.7-0.29-1.48-1.06-4.19-1.79l-3.28-0.89c0.02,0.69-0.11,1.77-0.24,2.32
							c1.11,0.17,0.99,1.6,3.08,3.12c0.74,0.54,2.28,0.64,3.1,1.05c4.03,6.33,3.47,3.78,7.57,6.91c0.23,0.18,1.05,0.42,1.06,0.16
							c0.02-1.7-1.08-1.01-0.53-2.98c-1.87,0.1-2.18-2.2-2.94-3.69c-0.09-0.18,0.42-0.6,0.47-0.6l1.79,2.19
							c0.67,0.82,1.09,2.1,1.69,2.91l2.62,3.58l1.89,2.43c0.38,0.49,1.31,1.38,1.1,1.9c-0.18,0.48-0.57,1.05-0.47,1.35
							c0.09,0.25,0.41,0.7,0.52,0.97c0.57,1.38,1.27,2.24,2.12,3.47c0.89,1.3,0.97,3.33,1.48,4.85c0.48,1.42,0.74,2.87,0.5,4.38
							c-0.49,0.13-1.48-0.43-1.92-0.4c-1.35,0.09-2.15,2.64-1.27,3.52c0.35,0.35,0.71,0.64,0.78,0.9c0.06,0.21-0.19,0.7-0.3,0.91
							l-1.21,2.19l-1.29,1.06l-0.96,1.77c-0.94,1.74-2.6,4.47-5.13,4.16l-2.33,1.34c0.06-0.75,0.47-1.03,1.07-1.42
							c8.11-5.29,3.69-5.87,6.51-7.27c0.57-0.28,0.78-1.52,0.4-2.09c-2.48,1.82-2.8,4.3-5.41,6.5l-3.54,3
							c-0.19,0.16-0.27,0.97-0.04,1l1.09,0.11l-1.72,1.34c-1.23,0.96-2.3,1.85-3.03,3.31c-0.72,1.44-1.68,0.33-4.27,2.27l-2.4,1.8
							c-0.98,0.73-2.12,1.67-3.19,2.27c-1.37,0.76-3.51,1.67-4.28,3.41l-1.35,3.07c-0.65,1.48-1.47,2.62-1.47,4.36
							c0,0.89-0.46,2.58,0.1,3.14c0.67,0.67,1.55-0.27,1.64-0.9c0.07-0.51,0.32-1.35,0.48-1.57c2.39,0.38,1.53-1.42,3.84-1.96
							c0.18-0.04,0.59,0.83,0.41,0.91l-0.61,0.27c-0.34,0.15-0.64,0.93-0.52,1.36c0.09,0.32,1,0.51,1.41,0.48l1.65-1.65
							c0.77-0.77,1.08-2.01,0.23-2.81l-1.58,0.26c-0.34-1.58,1.05-2.46,1.89-3.4c0.3-0.33,0.63-1.33,1.02-1.48
							c0.39-0.15,1.16,0.23,1.64,0.35c0.41,0.1,1.24-0.58,1.29-1c0.14-1.32-0.73-2.63-0.06-2.66c0.81-0.04,3.04,2.07,3.7,2.89
							C155.79,155.05,155.22,154.88,154.04,154.77z M148.03,109.08l0.44-0.89l-1.83,0.47c-0.31,0.08-0.82,0.49-1.01,0.72
							c-0.18,0.23-0.1,1.05,0.16,1.2C146.6,110.69,147.64,109.89,148.03,109.08z M143.11,111.69c0.2-0.53,0.14-1-0.17-1.07
							c-0.44-0.09-1.08,0.12-1.14,0.43c-0.08,0.41-0.14,0.87-0.13,1.09c0.01,0.22,0.65,0.29,0.86,0.23
							C142.74,112.3,143,111.96,143.11,111.69z M169.48,113.7c-0.29-0.03-0.78,0.42-0.65,0.65l1.35,2.38
							C170.37,115.73,170.38,113.79,169.48,113.7z M205.95,118.28c0.15-0.64,0.24-1.62-0.04-1.86c-0.94-0.21-1.41-0.58-2.09-1.37
							c-0.77,2.6-1.4,5.1-1.65,7.71C204.86,117.99,205.34,120.98,205.95,118.28z M198.8,124.76c1.68-0.6,1.72-1.99,1.94-3.31
							c0.45-2.72,1.42-3.18,0.96-5.36c-1.51,0.69-2,1.99-1.66,3.22C200.78,122.03,197.16,120.49,198.8,124.76z M198.51,143.59
							c-0.3,0.33-0.46,1.4-0.31,1.56c1.5-0.03,1.5-1.57,2.13-2.41c2.84-3.77,2.86-5.78,4-9.73l1.34-4.59c0.36-1.22,0.58-2.4,1.02-3.6
							c0.82-2.25,1.56-4.37,1.04-6.8c-1.18,0.82-1.94,3.66-2.18,4.41l-0.87,2.72c-0.19,0.6-0.52,1.35-0.64,1.98l-0.93,4.49
							c-0.34,1.65-0.3,3.21-0.75,4.79C201.6,139.11,200.55,141.38,198.51,143.59z M172.15,122.07c0.51-0.28,1.05-0.47,1.07-0.79
							c0.07-0.9-0.48-2.02-1.28-2.33c-0.24-0.09-0.97,0.17-1.14,0.44c-0.48,0.74-0.15,2.17,0.1,3.12l0.29,1.09
							c0.06,0.22,0.56,0.26,0.83,0.28L172.15,122.07z M185.43,159.42c2.17-0.63,5.84-2.63,7.22-4.33l-0.52-1.48
							c1.18-2.15,2.09-4.24,2.83-6.53c1.07-3.28,3.58-5,4.65-7.42c1.18-2.67,1.59-5.38,2.24-8.29c0.23-1.04,0.22-3.05,0.22-4.12
							c0-0.26-1-0.41-1.07-0.16l-0.25,0.94c-0.33,1.25-0.63,2.69-1.16,3.8c-0.72,1.52-1,2.98-1.65,4.49l-1.71,3.97l-1.11,2.68
							c-0.5,1.21-0.68,2.78-1.33,3.92l-1.32,2.31c-1.28,2.25-4.17,5.14-6.06,7.97C185.95,157.87,184.94,157.93,185.43,159.42z
							M197.33,132.67c0.54-1.04,0.88-1.68,1.11-2.45l0.88-2.97c-1.44,0-1.09,1.11-1.51,1.76
							C197.06,130.2,196.2,131.54,197.33,132.67z M102.41,140.22c1.45-0.93,6.44-4.34,5.98-5.59c-0.87-0.83-1.35-1.65-1.31-2.79
							c-2.28,2.35-2.36-0.07-4.97,4.79C101.52,137.73,101.41,139.08,102.41,140.22z M112.93,133.18c0.15-1.1-1.17-1.4-1.82-1.04
							c-0.48,0.26-0.06,1.11,0.37,1.34C111.97,133.72,112.84,133.87,112.93,133.18z M102.95,148.33c0.33-1.31,0.52-2.11,0.81-3.06
							l1.27-4.15c-1.36-0.66-2.56,0.06-2.94,1.31C101.68,143.76,101.43,148.7,102.95,148.33z M102.85,155.35
							c0.71-0.58,0.51-1.66-0.16-2.24c-0.17-0.14-0.61-0.28-0.82-0.29c-0.16-0.01-0.15,0.67-0.06,0.8L102.85,155.35z M164.56,177.48
							l-1.73-1.37c0.48-0.63,0.93-1.21,1.38-1.74c0.94-1.11-0.01-2.4-0.2-3.58c-0.18-1.09-0.23-2.16-0.34-3.31l-0.86-1.26
							c-0.17-0.25-0.52-0.64-0.76-0.72c-0.24-0.07-0.71,0.29-0.87,0.49c-1.38,1.7-2.07,1.36-1.97,2.29c0.03,0.25,0.73,0.46,0.84,0.71
							c0.4,0.84,1.09,2.21,1.57,3.05c1.3,2.25,0.36,4.62-0.04,6.94c-0.25,1.45-0.25,2.55-1.66,3.51c-0.5,0.34-0.93,0.96-1.08,1.83
							C160.69,184.4,164.8,179.33,164.56,177.48z"/>
						<path d="M212.29,130.33c1.45-2.95,3.43-8.74,3-12.31c-0.99-0.44-1.27,1.97-2.23,2.54c-1.1-2.75,1.71-4.72,2.18-6.47
							c0.07-0.25-0.74-0.27-0.98-0.39c-2.11-1.1-0.44-4.23,0.57-5.6l0.57-0.78c0.16-0.21,0.72-0.16,1.15-0.02l0.42-1.95
							c0.28-1.3,0.15-2.83,0.24-4.09c0.64,0.1,1.24,0.09,1.31,0.32c0.17,0.63,0.41,4.02-0.23,4.9c-1.38,1.91-3.26,3.31-3.36,5.86
							l1.94-1.97l0.24-0.49c0.08-0.16,0.73,0,0.72,0.18c-0.19,2.04-1.02,0.74-0.67,3.64l0.27,2.24c2.13-0.89,0.68-2.73,2.98-2.6
							l1.88-3.34l0.83-2.99c0.41-1.48,3.2-8.11,2.71-11.77c-0.07-0.51,0.2-1.61,0.27-2.09c-0.34-0.69-0.78-1.66-0.82-2.47l-0.1-2.1
							c-1.01-1.94-0.71-5.89-1.25-7.83c0.39-0.13,0.74-0.23,0.64-0.3l-0.62-0.44c-0.9-1.52-0.55-3.56-0.33-5.37l0.28-2.28
							c-0.66-0.95-2.37-0.71-3.17,0.46l-3.62-0.57c1.34,1.59,0.28,2.32,0.12,3.44c-0.18,1.27,0.45,3.08-0.09,4.36l0.59,1.69
							c1.78,5.06,3.74,5.3,3.12,10.83c-0.12,1.04-0.3,2.17-0.78,3.05c-1.73,3.13-0.17,2.75-1.66,5.31l-1.27,0.06l0.62-3.03l0.72,0.32
							c0.09,0.04,0.14-0.25,0.1-0.34c-0.04-0.09-0.51-0.47-0.48-0.55c1.27-2.9,1.88-7.68,0.22-11.22c-2.18-4.66-3.06-6.84-1.76-12.06
							c0.39-1.57-1.35-2.58-2.34-2.7c-0.93-0.11-1.57-0.68-2.27-1.04c-1.81-0.93-3.95-2.19-4.7-4.48c-0.64-1.95-1.83-1.93-3.97-4.79
							l-1.74-2.32c-0.54-0.71-0.48-2.58-0.72-3.57c-1.08-4.53-0.31-5.61-1.52-8.63c-0.3-0.75-0.52-1.38-0.62-2.16
							c-0.43-3.51-4.04-3.17-4.02-5c-1.05-0.76-1.64-2.43-2.28-3.61c-0.6-1.11-1.44-2.62-2.01-3.55c-0.38-0.62-1.73-1.49-1.47-2.35
							c0.05-0.17-0.03-0.62-0.12-0.64c-0.1-0.02-0.35,0.01-0.35,0.1L188.4,30c-0.29-0.07-0.88-0.54-1.13-0.95l-0.47-0.75
							c-0.1-0.16,0.62-0.54,0.79-0.41c0.75,0.58,2.34,1.58,3.11,2.31c1.74,1.65,3.81,6.74,3.49,6.34l3.07,3.83
							c2.73,0.76,2.06,2.3,3.15,4.95c1.01,2.46,1.44,5.23,1.61,7.87l0.24,3.81l2.11,3.03c2.47,3.54,2.13,0.92,3.99,4.69
							c0.76,1.54,2.29,3.26,3.83,4.06c1.04,0.54,2.26,0.84,3.37,1.22l1.5-0.78l0.41,1.54c2.86-0.12,4.77-0.76,7.67-1.05l4.16-0.42
							c4.05-0.41,1.99-2.27,6.23-2.03c3.67,0.21,6.88,0.36,10.4,0.02l4.53-2.3c0.96-0.49,2.1-1.31,3.12-1.72
							c0.41-0.16,1.15,0.75,1.04,1.15c-0.3,1.05-2.01,1.38-3.46,2.41c-3.35,2.37-7.09,3.04-11.15,2.46c-1.39-0.2-3.18,0.24-4.49-0.15
							c-1.56-0.48-2.68,0.2-3.46,1.46c-0.32,0.51-1.58,0.59-2.19,0.63l-4.46,0.34l-0.72,2.16c-0.15,0.6-0.31,1.49-0.67,2.14
							c0.81,0.71,0.56,2.07,0.72,3.03l0.46,2.9l0.49,3.62c0.1,0.71,0.59,1.84,0.74,2.64l0.15,0.8c0.04,0.19-0.6-0.05-0.82-0.1
							l0.41,1.88c-0.25,0.45,0.16,0.17,0.69-0.29l-0.1,1.19c0.59,0.91,0.79,2.38,0.3,3.37c0.21,0.5,0.47,1.28,0.35,1.91l-1.5,7.71
							c-0.21,1.09-1.04,2.31-1.16,3.39c-0.15,1.29-0.39,2.21-0.95,3.24l-1,1.82c-0.39,0.71-1.01,1.12-1.58,1.83l-3.09,3.8
							c-0.08,0.09-0.78-0.18-0.83-0.07l-0.24,0.55c-1,2.25-0.1,3.41-1.92,7.46l-0.86,1.91c-0.39,0.86-0.42,1.69-0.94,2.61l-1.63,2.87
							c-0.6,1.05-0.77,2.07-1.36,3.15l-1.64,2.99c-0.76,1.39-0.8,3.67-3.03,3.55l1.94-3.06l0.74-1.79l1.14-2.74L212.29,130.33z"/>
						<path d="M76.94,60.45c-2.2,0.91-4.5,1.28-4.57,1.85c-0.11,0.91-0.93,2.19-1.78,1.98c-0.73-0.18-1.44-0.42-2.13-0.39
							c-2.47,0.08-1.96-2.85-3.38-2.23c-0.35,0.15-0.75,0.64-1.22,1.19l-1.99-1.94c-0.13-1.46-0.66-2.41-1.72-3.28
							c-1.14-2.28-1.74-1.71-2.1-3.7l1.96-0.4c0.8,1.29,2.78,1.34,2.21,1.79l-0.65,0.52c-0.37,0.3-0.32,1.57,0.15,1.74
							c2.35,0.88,4.51,0.1,6.46-1.02c1.77-1.01,3.21-1.92,4.15-3.96c0.27,0.2,0.7,0.78,0.58,1.03c-0.15,0.3-0.51,0.75-0.81,1.11
							c-4.79,5.65-4.98,2.03-8.77,5.48c1.54,0.46,3.02,0.61,4.35,0.17c4.34-1.46,1.43,0.05,5.29-2.32c6.27-3.84,5.44-4.4,7.71-10.95
							c-1.47-0.41-3.07-0.23-4.11,0.75l-1.74,1.63c-0.82,0.77-1.9,1.08-2.93,1.54c-1.72,2-5.31,3.53-7.64,3.82
							c-0.09,0.01-0.65-0.42-0.56-0.42c0.52,0.01,5.41-2.1,6.12-2.56c0.7-0.45,1.29-1.38,2.16-1.8c0.09-0.05,3.46-2.2,2.32-2.58
							l-0.9-0.3c-1.43-0.48-2.63-0.69-3.83,0.5l-2.08-0.11l-1.5,0.53l0.78-1.37c-0.83-0.39-1.53-0.74-1.64-1.73
							c3.89-0.03,2.07,0.91,6.12,0.17c1.63-0.3,2.75-0.89,3.91-2.01c0.41-0.4,1.28-0.26,1.16-1.1c-0.09-0.66-0.46-0.67-1.17-1.1
							c-1.3-0.79-2.34-2.27-3.44-3.5c-1.45-0.73-4.24,0.61-4.47-0.35c-0.21-0.85,1.5-0.68,2.05-1.65l-0.98-1.59l-0.76-0.11
							c-0.2-0.03-0.26-0.78-0.22-0.87l2.59,1c1.77,0.68,3.73,3.55,5.05,3.12c0.64-0.21-0.43-1.4,0.45-1.73
							c0.2-0.07,0.62,0.41,0.72,0.65c0.33,0.83,1.33,0.56,2.07,0.02l0.23,1.26l6.22,0l3.8-0.3l9.61,0.34l3.32,2.12
							c0.31,0.2,0.64,1.15,0.76,1.56c-1.99,1.13-1.71-1.75-4.45-2.04c-2.6-0.28-5.23-0.78-7.83-0.67c-1.89,0.08-3.55,0.27-5.45,0.07
							c-1.25-0.13-2.85,0.71-4.49,0.39c-0.6-0.12-1.47,0.14-1.94,0.51c-0.4,0.32-0.86,1.36-0.49,1.72c0.48,0.47,0.92,0.98,0.92,1.47
							c0,0.5-0.79,0.72-1.4,0.87c-0.18,0.15-0.47,0.94-0.38,1.24c0.51,1.85,4.03,1.39,5.38,1.08c0.53-0.12,4.28-3.23,6.28-2.91
							c0.42,0.07,0.39,1.43-0.02,1.55l-3.55,1.09l-1.2,1.87c-2.87,0.47-2.29,2.88-4.66,7.13l-1.34,2.39
							c-0.08,0.14,0.01,0.86,0.17,0.85c1.64-0.16,0.76-0.7,3.51-1.73l1.66-1.78l-0.07,1.81c0.21,0.21,1.34,0.31,1.79,0.02
							c2.1-1.32,4.31-1.85,6.61-1.84l1.35-0.7c1.56-0.81,3.34-1.21,4.91-1.2c0.36-0.56,0.87-0.7,1.55-0.94l2.34-0.8
							c0.18-0.06,0.86,0,1.04,0.04c0.18,0.04,0.27,0.55,0.19,0.71c-0.43,0.91-0.93-0.04-3.76,1.11c-0.94,0.38-2.23,0.47-3.15,0.77
							c-0.6,0.2-1.25,0.36-1.81,0.51c-0.47,0.12-1.07,0.88-1.74,0.92c-1.19,0.08-2.11,0.49-3.14,0.89l-1.78,0.7
							c-0.34,0.13-1.21,0.2-1.59,0.38l-4.85,2.32C79.49,59.36,78.26,59.9,76.94,60.45z"/>
						<path d="M143.48,58.28l2.66-1.99c3.82,0.34,7.48,0.52,11.4,0.5c0.48,0,1.34,0.45,1.76,0.69c3.31,0.12,6.46,1.04,9.83,1.35
							c2.26,0.21,5.37-0.5,7.02,0.51c1.04,0.64,0.17-1.68,0.49-2.18c0.2-0.31,0.95-0.76,1.3-0.64c0.34,0.12,0.72,0.85,1.02,1.11
							l2.97,2.64l0.08,2.51l-4.09-0.6c-2.53-0.37-2.84-1.64-4.52-1.68l-5.71-0.15c-3.98-0.1-7.68-1.81-11.55-2.24
							c-1.88-0.21-3.67,0.76-5.74,0.08c-0.95-0.31-3.05-0.44-3.97-0.07l-2.74,1.09c-0.57,0.23-1.53,1.14-2.09,1.13
							c-3.31-0.75-5.46-0.05-7.62-0.84c-1.69-0.62-3.51-1.18-4.88-2.3c-0.5-0.41-0.97-0.63-1.44-1.09l-3.4-3.33
							c-0.51-0.5-0.92-0.72-1.43-1.19c-1.07-1-2.85-1.99-4.1-2.71c-0.48-0.28-1.69,0.36-1.82,0.56c1.02,0.6,1.09,1.99,0.94,2.11
							c-0.06,0.05-0.3,0.23-0.31,0.2c-0.02-0.05-0.25-0.41-0.25-0.4l-1.36-0.09l-2.69-0.21c0.34-1.13,0.45,0.04,1.58-0.84
							c0.23-0.18-0.12-1.21-0.39-1.26l-2.45-0.47c0.87-2.04-1.83-2.77-3.44-3.5c-0.34-0.16-0.71-1.02-1.07-1l-1.65,0.09
							c-0.32,0.02-0.79-0.03-1.02-0.1c-0.28-0.07,0.05-1.03,0.29-1.22c1.92-1.56,0.75-3.07,3.67-2.83c0.56,0.05,1.1,0.67,1.64,1.35
							l2.37,0.91c0.3,0.11,0.78,0.63,0.72,0.93c-0.32,1.49-2.1-0.04-2.33,1.77c2.41,0.6,3.43-1.14,5.54-0.71l0.72,2.05l2.14-0.49
							c0.18-0.04,0.76,0.34,0.67,0.5c-0.51,0.92-1.32-0.17-1.56,1.07c0.48,0.69,1.8,1.3,2.83,1.32c1.57,0.02,1.38-1.45,1.91-1.88
							c0.55-0.44,4.18,1.44,4.87,1.92c5.11,3.51,3.92,0.71,5.37,3.52c0.45,0.88,1.56,0.73,2.51,0.5c2.03-0.5,4.74-1.39,6.4-2.42
							c0.19-0.12,0.33-0.91,0.52-0.93c0.23-0.03,0.6-0.04,1-0.02l4.41,0.19c-0.25-0.01,3.51-0.49,2.91,1.04
							c-0.37,0.94-3.69,1.01-5.76,0.36c-1.01-0.32-1.84,0.77-2.62,1.27c-2.71,1.72-7.51,2.7-10.59,2.45
							c-0.07-2.17-1.32-3.36-3.14-3.32l-2.97-2.43c-0.62-0.23-1.82-0.4-2.7-0.32c-0.41,0.16-0.54,1.42-0.28,1.81
							c0.77,1.15,2.08,1.57,3.22,2.3l1.52,1.95c0.81,1.04,1.71,1.37,2.89,1.87c1.04,0.44,2.12,1.57,3.28,1.81l2.63,0.55
							C141.78,57.41,140.98,60.14,143.48,58.28z M115.57,46.67c-0.58-0.03-1.36,0.05-1.83,0.13c0.35,0.89,1.3,1.27,2.02,1.2
							C116.05,47.86,115.96,46.69,115.57,46.67z"/>
						<path d="M119.83,35.32c0.31,0.67,0.64,1.66,1.03,2.01l2.08,1.78c0.24,0.21,0.56,0.56,0.68,0.76c0.14,0.26-0.38,0.86-0.75,1.11
							l-2.31-2.17c-0.45-0.2-1.57-0.39-1.87-0.76c-0.3-0.36-0.41-1.24-0.49-1.77c-0.08-0.54-1.1-1.35-1.62-1.36
							c-1.31-0.01-0.41,2.3-0.89,2.94c-0.44,0.58-3.69,0.66-4.85-1.27l-1.51-2.5l-1.47-1.88c-2.1-2.68-3.37-1.88-3.59-3.56
							l-0.25-1.86c-0.26-1.95-4.1-3.2-4.94-2.23c-0.14,0.16-0.14,1.08,0.05,1.19l3.28,1.95l1.58,0.94c-2.35,0.85-6.1-1.17-7.25-3.86
							c-0.4-0.95-1.52-1.92-2.48-2.21l-5.71-1.74c-0.01-0.77-0.25-1.96-0.66-2.37c-1.93-1.82-3.68-3.82-6.07-4.99
							c-0.78-0.38-5.24-1.17-5.18-0.38l0.1,1.37l-1.78-0.82c-0.6-0.28-1.43-0.42-2.21-0.52c-0.04-0.45-0.16-1.61-0.6-1.72
							c-0.7-0.18-1.48-0.4-2.31-0.75l2.21-1.24c0.23-0.13,0.62-0.32,0.82-0.34c0.25-0.02,0.38,0.6,0.39,0.9l0.03,1
							c0.01,0.19,0.66-0.23,0.83-0.37c1.05-0.86,2.55-1.09,3.81-1.46l3.39-1c0.86-0.25,5.14-1.27,5.52,0.35
							c-1.24,0.4-2.14,0.59-3.32,0.75l-2.11,0.3c-0.39,0.06-1.24-0.5-1.44-0.36c0.01,0.86-0.09,1.32-0.44,1.89
							c5.38-0.92,3.57,4.14,10.09,5.45l1.18-0.84c0.75,1.37,2.02,1.78,3.54,1.41l2.47,1.12c0.24,0.11,0.83,0.19,1.06,0.12
							c1-0.3-0.16-3.04,0.31-4.29l1.73,2.96c0.59,1,1.37,1.25,2.36,1.86l2.88,1.8l2.03,2.09l-1.09,0.71
							c-0.17,0.11-0.81-0.21-0.79-0.42l0.15-1.14l-1.04,0.45c-2.18,0.94-3.74-2.01-4.9-1.44c-0.32,0.16-0.58,1.07-0.42,1.28
							c2.39,0.5,4.86,2.01,6.09,4.26c0.7,1.28,2.04,2.66,3.37,3.3l2.11,1.02c4.15,2.01,2.99-0.82,4.78,0.66
							c2.21,1.84,3.28-0.2,5.44,1.52c0.31,0.25,1.26,0.38,1.58,0.14c0.32-0.24,0.65-0.98,1.02-1.43c0.61-0.47,2.7,4.72,1.48,5.68
							l-1.42-3.08C122.27,34.28,121,34.64,119.83,35.32z M96.92,21.09c0.34-0.23,0.15-1.44-0.19-1.64c-1.69-0.97-3.45-0.63-3.15,0.13
							C94.03,20.74,95.86,21.75,96.92,21.09z M115,35.82c-0.12-0.74-0.4-1.57-0.56-1.97l-3.25-0.57c-0.28,0.73,0.83,3.32,2.06,3.67
							C113.93,37.15,115.12,36.56,115,35.82z"/>
						<path d="M46.49,59.98l4.06,0.3l-0.07,1.23c-0.01,0.27-0.66,0.19-1.04,0.18l-3.83-0.04L38.83,62c-0.67,0.03-1.61,0.02-2.11-0.29
							c-1.68-1.01-2.23,1.1-3.1,1.68c-1.55,1.03-3.67-0.67-4.92-1.41c-2.92-1.75-3.4-3.42-4.29-6.29c1.75-0.76,3.13-1.4,4.55-2.39
							c0.93-0.65,1.62-0.82,2.81-1.12c3.33-0.83,3.78-1.54,6.04-0.97c0.83,0.21,1.79,0.1,2.71,0.83l2.25-0.55l2.2,1.69
							c1.34-0.25,2.07,0.26,3.06,0.83c0.87,0.5,1.86,0.57,2,1.93l-2.93,0.67l-4.81,1.01c-2,0.42-3.2,3.13-2.38,3.41
							c1.44-0.46,2.82-0.46,4.29-0.57C44.74,60.42,45.77,59.92,46.49,59.98z M33.02,55.16l2.96,2.63c0.14-0.85,0.18-1.07,0.34-1.67
							l0.35-1.3c0.09-0.34,0.24-0.84,0.48-0.87c0.18-0.02,0.72,0.14,0.88,0.28c0.52,0.47,1.38,0.92,2.06,0.24
							c0.44-0.44,0.85-1.63-0.16-1.85c-3.4-0.72-4.07-0.85-7.62,0.54c-0.62,0.24-1.41,0.65-1.51,1.13c-0.13,0.6,0.24,1.45,0.3,2.1
							l0.33,3.3c0.03,0.25,0.39,0.78,0.52,0.98c0.13,0.2,0.89,0.15,1-0.09C33.92,58.48,31.15,56.07,33.02,55.16z M45.95,55.48
							c0.46-0.09,0.8-0.95,0.77-1.49l-1.77-0.36c-0.74-0.15-1.67,0.08-2.2,0.69c-0.34,0.39-0.39,1.55-0.12,1.8L45.95,55.48z"/>
						<path d="M224.3,127.28l1.24-1.66l0.33-3.6c-0.51-0.1-1.13,0.26-1.73,0.88l-2.14,2.2c-0.21,0.22-1.04-0.07-1.2,0.14l-0.82,1.13
							c-0.58,0.8-0.86,1.76-1.27,2.62c-0.8,1.68-1.72,3.3-2.31,5.06c-0.75,2.26-1.83,3.98-3.58,5.53c-0.64,0.57-1.01,1.71-2.27,1.05
							c1.09-0.61,3.86-4.87,4.35-5.87c0.57-1.18,0.49-2.42,1.42-3.53c0.64-0.78,0.85-2.12,1.19-3.17c0.31-0.99,1.07-1.96,1.42-2.9
							l1.23-3.31c-0.69-1.49-0.12-2.7,0.54-4.11c0.54-1.14,1.07-1.89,1.9-2.78c0.81-0.86,1.47-2.25,2.2-3.18
							c1.82-2.33,2.14-4.86,2.45-7.65c0.13-1.1,0.45-2.41,0.65-3.56l0.34-1.88c0.07-0.39,0.06-1.03,0.25-1.28
							c0.19-0.25,0.79-0.52,1.09-0.7c0.07-0.04-0.03-0.46-0.11-0.45l-0.56,0.03l0.5-1.98c0.29-1.15,0.53-2.18,0.61-3.4l0.36-5.8
							c0.08-1.25,0.33-2.6-0.01-3.86c0.4-1.46,0.35-2.16,1.3-2.6c0.83-0.38,0.1,4.71,0.08,5.98l-0.06,4.33
							c-0.02,1.39-1.03,5.93-1.55,7.45c-1.2,3.48-1.69,6.95-1.46,10.72c0.06,0.99-0.43,2.5-1,3.27c-2.33,3.15,0.15,1.86-2.65,5.34
							l-2.14,2.65c-0.51,4.24-1.73,2.68-1.82,6.33c2.77-2.28,0.41-0.56,2.61-3.15l2.18-2.57c-0.15-0.99-0.32-1.91,0.11-2.62
							c0.37-0.61,1.19-1.04,1.95-1.27l0.56-1.4l0.68,1.96c1.83-2.79,2.27-3.91,2.94-6.9c0.23,0,0.96,0.31,1.07,0.11l0.69-1.24
							c0.08,0.76,0.2,2.12-1.18,2.3l0.55,0.68l-1.46,4.1c-0.54,1.51-1.64,2.23-3.11,2.81c-0.5,0.91-0.73,2.43-1.11,3.46
							c-0.74,2.02-1.05,3.77-0.78,5.89C226.63,127.52,225.37,128.02,224.3,127.28z"/>
						<path d="M113.51,99.15c-4.51,2.04-6.49,1.52-8.95,3.72c-1.02,0.92-1.79,1.94-1.3,3.22c2.6-0.33,5.32-1.24,7.47-2.27
							c0.2-0.09,0.86-0.1,1.04-0.05c0.18,0.05,0.21,0.54,0.18,0.74c-0.11,0.64-1.34,0.53-2.82,1.3c-1.89,0.98-4.07,1.62-6.15,1.18
							c-1.49-2.5-2.53-2.14-5.3-1.89c-1.66,0.95-3.14,1.49-4.98,2.02c-0.96,0.28-1.9,0.23-2.93,0.32c-1.1,0.09-2.75,0.76-3.89,0.5
							c-0.15-0.04-0.64-0.01-0.67,0.09l-0.25,0.68l-1.52-1.47c-0.26-0.26-1.1-0.57-1.32-0.86c-0.51-0.66-1.18-1.01-1.76-1.55
							l-4.94-4.63c-1.9-1.78-3.8-3.76-5.01-6.13c-0.86-1.69-2.27-3.03-3.38-4.56c-0.53-0.73-0.97-1.57-1.58-2.22
							c-1.09-1.15-1.52-2.37-2.06-3.88l-1.23-3.5c-0.04-0.1,0.28-0.45,0.38-0.4c0.14,0.09,0.46,0.37,0.53,0.54l0.76,1.83
							c0.04,0.09,0,0.47-0.01,0.57c0,0.1,0.31,0.11,0.5,0.15c0.27,0.74,0.95,2.01,1.57,2.47c0.85,0.64,0.26-3.01,1.5-4.21
							c0.85-0.82,1.18-1.42,1.24-2.62c0.08-1.8,0.14-3.62-0.8-5.2c-0.87-1.45-1.49-3.21-1-4.75c0.37,0.86,0.61,1.43,0.95,2.09
							c0.78,1.52,1.09,3.39,1.7,4.94c1.16,2.92-0.07,4.04-1.64,7.99c-0.64,1.59,0.11,3.25,0.71,4.72c0.31,0.76,0.76,1.23,1.13,1.93
							l1.8,3.37l1.38,2.05c1.06,1.58,3.82,4.16,5.49,5.35c2.38,1.71,1.97,1.46,3.82,3.42l2.23,2.34c0.88,0.93,2.56,0,3.49-0.06
							l2.52-0.16c1.56-0.1,3.01-0.18,4.3-0.93c1.14-0.66,2.4-1,3.65-1.4c3.73-1.2,4.13-0.25,5.9-2.05c0.35-0.36,0.01-1.59-0.42-1.74
							c-0.59-0.21-1.34-0.61-1.77-0.72c-1.63-0.41-3.52-0.56-4.88-1.91c4.94-0.76,3.03,2.14,10.56,2.3c0.47,0.01,1.52-0.33,2.01-0.5
							l2.81-0.99c0.47-0.17,1.2-0.69,1.72-0.94c2.07-0.99,1.6-2.12,2.63-1.75c0.26,0.09,0.34,1.02,0.12,1.23
							c-0.43,0.41-1.31,0.86-2.02,1.09C114.55,98.11,113.94,98.96,113.51,99.15z"/>
						<path d="M82.07,31.56c-0.71-0.14-1.61-0.43-2.33-0.65c-4.26-1.31-3.9-2.53-6.68-3.25c-0.62-0.16-0.56-1.61-0.03-1.74
							c1.46,0.43,2.75,0.61,4.2,0.32l2.28,0.45c0.2,0.04,0.56,0.39,0.62,0.57c0.26,0.84-1.72,0.11-2.61,0.91
							c0.3,1.22,1.33,1.55,2.47,1.55c0.89,0,1.74,0.47,2.49,0.64l6.25,1.43c0.26-0.1,0.61-0.72,0.47-0.89
							c-0.15-0.18-0.55-0.58-0.78-0.67l-4.48-1.75c-0.68-0.27-1.52-0.38-2.41-0.67c0.61-0.43,1.26-0.42,2.03-0.3l2.02,0.3l-0.29-1.13
							c-0.07-0.26-0.48-0.51-0.92-0.85l0.76-0.41c0.23-0.13,0.75,0.26,1.04,0.38l3.85,1.61l2.68,0.85l0.42,1.32l-2.6-0.46
							c-0.36-0.06-0.9,0.08-1.26,0.39l2,1.62c1.06,0.86,1.85,1.45,3.14,0.67l0.85-0.51c0.51-0.31-1.77-1.66-1.88-2.2
							c0.8-0.09,1.39-0.12,1.86,0.02l4.63,1.43c0.42,0.13,0.93,0.66,0.89,1.09c-0.17,1.67-2.15-0.19-4.29,0.91
							c-1.5,0.77-2.75,1.53-4.11,2.57c-0.65,0.49-2.61,0.8-2.88-0.08c-0.52-1.67-1.08-2.24-2.8-2.58L82.07,31.56z"/>
						<path d="M117.77,13.47l-1.02-1.8l-2.82-2.3l-0.46-1.68c-1.44-0.5-4.28-2.7-5.41-3.88c0.98-1.38,1.65,0.14,2.44,0.56l2.62,1.39
							c1.14,0.6,1.83,1.33,3.19,1.5l1.03,0.13c0.27,0.03,0.49-0.79,0.4-1.13c-0.27-0.94-1.12-2.31-1.81-3.26
							c-0.27-0.37-0.56-1.05-0.86-1.35c-0.48-0.48-0.69-1.13-0.62-1.65l2.41,1.56l1.55,1.73c2.92,3.26,1.02,3.33,3.28,5.54
							c0.24,0.24,0.52,0.96,0.52,1.31c0,0.39-0.85,0.87-0.97,1.25c-0.82,2.57,1.12,6.4-0.49,7.42c-0.21,0.13-1-0.26-0.97-0.5
							l0.17-1.71c-0.3-1.61-0.35-2.77-0.42-4.73L117.77,13.47z"/>
						<path d="M44.93,44.86c-0.44-0.37-1.56-0.99-2.02-0.76l-3.61,1.79c-2.06,1.02-4.27,1.47-6.51,0.93
							c-0.19,0.91-0.77,1.32-1.56,1.7l-2.99,1.46l0.25-0.95c0.08-0.31,1.09-0.5,1.38-0.64c0.74-0.77,1.81-1.99,2.85-2.57l2.05,0.14
							c2.54-1.65,4.64-0.69,5.28-2.55c-2.28-2.23-3.55-1-6.31-2.19c1.4-1.62,2.82-0.51,4.2-0.3l3.03,0.47
							c0.28,0.04,0.97-0.21,1.12-0.43c0.44-0.64-0.49-2.04,0.24-2.37c0.67-0.3,2.05,0.3,2.26,0.82c0.31,0.79-1.39,1.44-1.47,2.37
							c-0.02,0.3,0.58,0.75,0.87,0.83c2.53,0.72,3.89,3.91,7.32,4.38l0.53-0.96c-0.89-0.66-1.31-1.3-1.84-2.31
							c2.59-0.74,1.78,3.63,4.63,4.13l1.96,0.35c-1.6,1.01-1.71,2.6-2.1,2.35l-0.67-0.41c-2.06-1.28-4.76-1.82-7.29-3.93L44.93,44.86
							z"/>
						<path d="M189.08,77.82c-1.74,0.69-2.09-2.84-4.52-2.48c0.28,0.87,0.41,1.44,0.41,2.17l0.89,1.06c0.26,0.31,0.69,0.86,0.72,1.2
							c0.03,0.34-0.31,0.84-0.7,1.31c-1.73-2.47-1.22-2.91-2.99-5.65c-1.37-1.13-3.11-1.6-4.85-2.05l-2.66-1.91
							c-0.8-0.58-2.49,0.63-5.51-3.64l-2.1-0.61c0.03,0.6,0.08,1.5-0.11,1.88c-0.16,0.31-1.25,0.01-1.38-0.31
							c-0.15-0.38-0.34-1.27-0.13-1.67c0.7-1.35,2.3-1.53,3.61-1.79c0.52-0.1,1.82-0.73,2.06-0.06c0.46,1.32,0.99,1.95,1.95,2.83
							l1.54,1.41c1.54,1.4,1.52,0.17,4.64,1.35c0.85,0.32,1.35,0.84,1.75,1.78l3.1,0.88c0.57,0.16,1.07,0.75,1.19,1.2
							c1.63-0.13,2.85,1.12,3.2,2.77c0.06,0.3,0.62,0.53,1.04,0.66c0.63,0.19,1.28,1.35,1.84,1.74c1.01,0.71,3.7,2.21,2.29,4.06
							c-1.01-1.04-1.68-2.22-2.67-3l-2.32-1.83l-0.41-0.32C188.86,78.73,188.97,78.42,189.08,77.82z"/>
						<path d="M114.07,24.17l-0.37,1.93c-1.67-0.11-2.65-3.42-5.1-5.09l-0.96-1.77c-0.61-0.63-1.31-1.36-0.36-2.14
							c1.61,1.21,2.11,3.38,4.08,4.43c0.56-0.19,0.51-1.26,0.01-1.62c-0.76-0.53-0.85-1.28-1.01-2.15l-0.35-1.96
							c1.33,0.02,2.05,0.98,2.73,1.93l1.39,1.94l1.23,1.46c0.69,1.31,1.39,2.39,2.15,3.6l1.02,1.61c0.56,0.89,0.53,1.9-0.01,2.55
							c-1.03,1.23-4.02,0.39-4.36-0.09c-0.4-0.56-0.47-1.21-0.33-2.01l1.36,1.08c0.39,0.31,1.79,0.26,1.8-0.23
							C117.02,26,115.89,24.86,114.07,24.17z"/>
						<path d="M102.18,132.55c-1.82,1.17-3.82,2.28-4.96,4.17c-0.45,0.75-0.91,1.89-1.7,2.05c-1.09-0.9-0.33-2.07,0.41-2.78
							c1.22-1.18,2.29-2.81,3.78-3.58c1.77-0.91,3.38-1.65,4.68-3.16c1.94-0.14,3.15-1.52,3.57-3.41l1.65-7.48L109,116.3
							c1.62-0.32,1.37,3.59,1.19,4.57l-0.54,2.9c-0.21,1.13-0.55,2.07-0.99,3.19c-0.23,0.58-0.48,2-1.05,2.18
							C105.45,129.82,103.85,130.79,102.18,132.55z"/>
						<path d="M55.32,37.54c-2.52,0.23-4.49-1.01-6.18-2.74c-0.7-0.71-2-0.99-2.64-2.1c-0.68-1.18-1.77,0.01-5.56-2.88
							c-0.47-0.36-2.17,0.02-2.26-0.73c0.58-2.19,3.51,1.63,5.12,0.73c0.3-0.17,0.64-0.81,0.92-1.09c1.58-1.62,2.8-3.29,3.43-5.41
							l0.49-1.65l0.16-0.52c0.04-0.12,0.49-0.24,0.56-0.13c0.1,0.17,0.17,0.65,0.09,0.87l-0.76,2.14l-0.65,1.62l-1.08,2.72
							c-0.4,1.02,2.16,0.93,2.16,1.15l-0.01,0.75c-0.82-0.14-2.31,0.28-2.4,1.08c0.77,0.59,1.29,1.07,1.88,1.88
							c0.99,1.36,4.17,2.97,3.61,3.01c0.12-0.01,0.42-0.03,0.57-0.04c1.42,0.52,2.71,0.83,4.38,1.17
							C56.77,37.8,55.85,37.5,55.32,37.54z"/>
						<path d="M117.52,58.39c-0.68-0.51-1.63-1.11-2.06-1.92c-0.61-0.13-1.77-0.32-2.49-0.34l-4.28-0.15
							c-0.95-0.03-2.15,0.16-2.54-1.35c2.74-0.85,10.86,0.58,13.6,1.74l1.65,2.35c-0.92,0.43-1.78,0.82-2.67,1.14
							C118.25,60.02,117.85,58.64,117.52,58.39z"/>
						<path d="M123.41,30.76l-3.54-0.05l1.34-2.95l-1.68-0.83l0.08-3.1l0.05-1.84l-1.82-3.12c-1.55-2.66-3.05-2.3-2.04-4
							c1.33,0.83,2,2.22,3.03,3.31c0.48,0.51,0.97,0.91,1.18,1.61l1.2,4.08l1.46,1.34l-0.83,2.75
							C121.3,29.73,123.82,29.77,123.41,30.76z"/>
						<path d="M213.38,97.14c-0.74-0.63-1.13-3.81-1.63-6l-1.11-4.84c-0.79,0.11-1.64,0.17-1.92,0c0.41-2.65-0.58-2.64,0.33-3.69
							c0.18-0.2,0.91-0.3,1.16,0C212.96,86.01,213.66,92.38,213.38,97.14z"/>
						<path d="M237.57,110.54c1.56-1.59,1.78-3.95,2.4-5.91c1.92-1.96,1.01-3.02,1.45-3.29l0.7-0.43c-0.47-0.93,0.07-1.69,0.96-2.49
							l0.45,0.7l0.54-0.72c0.11-0.15-0.19-0.52-0.35-0.8c0.22-0.62,1.13-1.7,1.3-2.38l0.84-3.4c0.42-1.71-1.04-3.55-0.55-5.95
							l-0.66-1.23c-0.15-0.28,0.31-0.92,0.65-1.28l1.67,4.82c0.6,1.73,0.46,3.92,0.06,5.75c-0.18,0.81-0.72,1.52-1.1,2.18l-1.25,2.15
							c-0.25,0.43-0.74,0.99-1.12,1.36c-0.12,1.55-0.45,3.18-1.91,4.17l-0.56,2.06c-0.43,1.58-1.4,5.42-2.64,6.33
							c-0.53,0.39-1.63,0.22-2.46-0.01L237.57,110.54z"/>
						<path d="M118.22,163.04l1.43-1.37c0.26-0.25,1.19,0.59,1.48,1.01c-2.06,2.79-5.46,3.14-8.3,1.66c-1.39-0.72-2.72-1.2-3.83-2.32
							l-1.77-1.8c-0.58-0.59-1.65-1.21-0.74-2.34l2.37,3.06c-0.01-0.01,3.2,1.96,3.7,2.06l2.71,0.55
							C115.93,163.67,117.63,163.59,118.22,163.04z"/>
						<path d="M123.83,148.24c-0.95-0.39-2.17-0.3-2.49-1.35c1.63-1.41,1.08,0.43,5.51,1.33c2.58,0.52,4.74-1.78,5.27-3.94
							c0.03-0.13,0.29-0.47,0.34-0.56c1.49-2.43-0.2,4.42-0.18,3.74l-2.54,1.74C127.19,150.96,127.64,149.81,123.83,148.24z"/>
						<path d="M132.39,45.1c-0.77,1.03-4.79-0.92-3.64-2.27l2.45,1.12c4.91-0.48,3.88-0.01,7.96,0.37c1.03,0.1,2.25,0.49,3.02-0.32
							l2.33-2.46c0.13-0.14,0.38-0.36,0.5-0.46c0.11-0.1,0.75,0.34,0.67,0.47c-0.35,0.58-1.23,1.49-1.81,2.08
							c-0.31,0.32-0.65,1.29-1.05,1.4s-1.28,0.07-1.69,0.16c-1.78,0.4-3.61-0.04-5.21-0.54c-0.61,0.51-1.51,0.5-2.31,0.09l-0.68-0.35
							C132.8,44.32,132.58,44.84,132.39,45.1z"/>
						<path d="M85.28,53.18c-0.09,0.22-0.58,0.79-0.78,0.69c-2.45-1.25,1.85-1.28,1.19-4.27c0.45-0.57,1.25-1.37,1.55-1.86
							c0.67-1.25,1.29-1.4,2.62-1.57l3.78-0.46l2.81-0.29c0.18-0.02,0.52,0.67,0.39,0.79c-0.13,0.12-0.5,0.37-0.68,0.38l-4.68,0.47
							c-1.93,0.2-3.86,0.72-3.83,3.15l-1.63,1.17L85.28,53.18z"/>
						<path d="M75.28,69.15l3.8,0.06c-0.77,1.15-1.95,1.18-3.09,0.81c-0.89-0.29-2.23-0.28-2.82-1.18c-1.72-2.63-3.86-1.52-3.8-2.95
							c0.01-0.13-0.41,0.53-0.54,0.48l-1.65-0.64c0.55-0.87,4.85,0.34,5.53,0.83c0.86-0.88,2.34-1.16,3.77-0.9
							c0.38,1.21-2.68,1-2.47,2.25C74.11,68.46,74.74,69.14,75.28,69.15z"/>
						<path d="M237.04,96.89c-0.35-0.09-0.97-0.2-0.95-0.38l0.17-1.04l0.47-3.06c0.14-0.91,0.1-2.03,0.05-3.01l-0.04-0.82
							c-0.01-0.19,0.55,0.06,0.75,0.09l-0.15-1.18c-0.43-0.43-0.98-1.18-0.99-1.69c-0.01-0.66-0.21-1.9,1.32-1.91
							c0,0.97,0.77,5.79-0.31,5.78c-0.13,0,0.61,0.43,0.61,0.56l-0.13,4.19C237.82,95.17,237.29,96.27,237.04,96.89z"/>
						<path d="M128.72,133.65c0.38,1.41-0.91,1.86-1.97,2.02l-1.59-1.43c-0.04-4.36-3.16-4.31-2.09-6.5l1.76,1.98
							C126.33,131.42,126.11,134.47,128.72,133.65z"/>
						<path d="M211.38,109.55c-1.9-0.22,1.56-10.26,1.58-12.27c1.69,0.61-0.21,6.16-0.27,6.45L211.38,109.55z"/>
						<path d="M158.88,107.14c-0.66-0.03-1.44-0.84-1.96-1.39c-0.59-0.63-1.29,0.05-3.02-0.07c-0.27-0.02-0.54-0.72-0.52-1.08
							c1.24-0.53,3.09-0.76,4.34-0.24C158.83,104.81,159.7,105.93,158.88,107.14z"/>
						<path d="M83.05,63.56c-0.83,0.92-1.82,1.39-2.97,1.54c-0.54,0.07-1.42,1.05-2.02,0.28c0.81-1.96,3.86-1.46,7.23-3.08
							c0.91-0.44,2.06-0.55,3-0.87c1.65-0.57,2.82-2.2,4.96-1.47l-1.35,0.83c-0.59,0.18-0.89,0.35-1.38,0.83l-2.45,0.63l-1.53,0.95
							C85.49,63.85,84.3,63.96,83.05,63.56z"/>
						<path d="M234.39,105.72c-1.7-1.95,0.22-3.46,1.06-4.85c0-0.64,0.1-1.33,0.23-2l0.23-1.18c0.06-0.3,0.56-0.34,1.23-0.44
							c0.2,1.01-1.34,5.29-1.75,6.2L234.39,105.72z"/>
						<path d="M92.14,69.74c-2.93,1.11-3.51,0.16-6.65-0.28l-0.38-0.42c-0.12-0.13,0.44-0.49,0.64-0.46l2.73,0.41l2.68,0.29
							c1.15-0.69,2.25-1.13,3.64-1.28c-0.11,0.57-0.3,1.25-0.62,1.31c-0.32,0.07-1.03,0.06-1.35-0.01l-0.56-0.12
							C92.16,69.16,92.19,69.44,92.14,69.74z"/>
						<path d="M114.82,112.36l0.64-0.78c-1.91,0.41-3.56-0.17-5.34-0.54c-0.34-0.07-4.49-0.69-4.36-1.79l5.16,1.17
							c1.61,0.37,4.65-0.01,4.93,0.93C115.98,111.78,116.07,112.63,114.82,112.36z"/>
						<path d="M131.26,117.69c-0.1,0.16-0.93,0.1-0.91-0.06c0.26-1.89,1.55-2.63-0.28-5.09c0.82-0.58,2.22,0.04,2.33,0.87
							C132.57,114.71,131.88,116.68,131.26,117.69z"/>
						<path d="M63.15,16.99c-1.15,1.06-2.57,2.03-4.4,1.8c-0.42-0.83,1.94-1.12,1.96-2.04l0.04-1.93l0.99,1.55l2.03,0.51
							C64.03,17.63,63.79,17.52,63.15,16.99z"/>
						<path d="M83.14,79.79l-1.22-0.05l0.46,2.85c-2.25-1.56-2.21-3.04-4.06-4.1l2.73,0.2l0.45,0.89
							C81.94,79.03,82.6,79.01,83.14,79.79z"/>
						<path d="M67.13,65.08c-0.67,0.9-0.84,1.71,0.13,2.78c-1.59,0.25-2.17-0.84-2.44-2.09c-0.16-0.75-1.49-1.44-0.57-2.33
							C65.12,64.42,65.68,64.73,67.13,65.08z"/>
						<path d="M236.8,83.7l-0.8-1.73c0.21-1.56-0.65-3.91-0.28-4.11l0.69-0.37c0.19-0.1,0.39,0.87,0.42,1.09l0.34,2.18
							c0.13,0.81,0.52,2.59,0.5,2.59L236.8,83.7z"/>
						<path d="M155.38,143.09c-0.64,0.43-0.98,1.1-1.79,0.35l2.98-2.12l0.87-0.71c0.21-0.17,0.9,0.18,0.99,0.46L155.38,143.09z"/>
						<path d="M128.58,43.14c-0.36,0.22-1.24,0.07-1.33-0.22l-0.52-1.54c-0.08-0.23-0.63-0.61-0.77-0.82
							c-0.16-0.24,0.11-0.82,0.33-1.33C127.35,41.54,127.71,40.73,128.58,43.14z"/>
						<path d="M53.29,30.72l-3.08-0.21c-0.14-0.01-0.57-0.08-0.69-0.1c-0.17-0.02,0.05-0.71,0.22-0.7l4.21,0.11l-0.12,0.68
							C53.81,30.61,53.41,30.73,53.29,30.72z"/>
						<path d="M119.61,107.04l-4.26-0.19l1.08-0.5c1.21-0.56,2.59-0.67,3.81-0.28l0.07,0.66
							C120.32,106.81,119.8,107.04,119.61,107.04z"/>
						<path d="M54.83,63.22l-1.51-1.76c-0.29-0.34-0.72-0.6-0.55-0.84c0.27-0.4,0.72-0.68,0.91-0.41l1.67,2.45L54.83,63.22z"/>
						<path d="M98.14,90.9c-0.14,0.06-0.94-0.48-0.88-0.5l1.42-0.66c0.79-0.36,1.55-1.5,2.66-0.32L98.14,90.9z"/>
						<path d="M59.82,72.29c-0.44-1.04-0.62-2.13-0.89-3.29l-0.29-0.78c-0.06-0.16,0.51-0.3,0.69-0.36
							C59.76,69.21,60.51,70.58,59.82,72.29z"/>
						<path d="M65.14,24.65l-2.24,0.86c-0.66,0.25-1.69,0.22-1.83-0.44l-2.63,0.2c-0.4,0.03-1.25-0.09-1.39-0.3
							c0.17-1.41,3.07-0.45,4.42-0.41L65.14,24.65z"/>
						<path d="M236.02,74.22l0.16,1.07c-0.01-0.04-0.6,0.56-1.3-0.34l-0.56-0.71c-0.11-0.14,0.36-0.52,0.5-0.62l0.69-0.47
							C235.71,73.02,235.98,73.94,236.02,74.22z"/>
						<path d="M85.07,5.27c0.3,0.03,0.92,0.07,0.87,0.22l-0.2,0.59c-0.07,0.2-3.34,0.12-3.69-1.1L85.07,5.27z"/>
						<path d="M84.46,20.15c-1.2,0.27-2.31-0.37-2.7-1.27l-0.3,0.61c-0.05,0.11-0.36-0.13-0.45-0.2c-0.09-0.08,0.24-0.62,0.35-0.66
							C82.22,18.28,83.91,19.03,84.46,20.15z"/>
						<path d="M162.65,117.89c-0.16,0.19-0.84,0.28-1.02,0.17c-0.23-0.15-0.53-0.69-0.53-1.11c0-0.34,0.82-0.53,1.14-0.42
							C162.65,116.68,163.03,117.46,162.65,117.89z"/>
						<path d="M95.04,9.68c-1.16-0.46-1.79-0.88-1.75-1.7c0.24-0.17,1.52-0.04,1.65,0.32C95.06,8.66,95.06,9.26,95.04,9.68z"/>
						<path d="M23.16,52.88l-0.37-3.03c0.9,0.4,1.23,0.83,1.22,1.32C24.01,51.81,23.84,52.23,23.16,52.88z"/>
						<path d="M100.81,56.46c-2.31,0.71-2.93,2.06-3.85,1.29C98.23,56.84,99.34,55.89,100.81,56.46z"/>
						<path d="M66.83,33.62l-1.96-1.6c0.81-0.38,1.31-0.33,1.8-0.03C67.3,32.37,67.26,33,66.83,33.62z"/>
						<path d="M104.44,62.38c0.7,0.1-0.58,1.89-2.49,1.71l1.64-1.54C103.74,62.41,104.26,62.36,104.44,62.38z"/>
						<path d="M174.7,107.27l-0.43-0.83c-0.12-0.23,0.57-0.68,0.66-0.92c0.32-0.9-0.28-2.01-0.99-2.78c-0.46-0.5-0.42-1.79-0.71-2.29
							c-1.84-3.18-0.63-0.64-1.89-5.76c-0.96-3.9-0.25-0.52-1.23-2.87c-0.12-0.3,0.27-0.89,0.56-1.23c0.53,0.57,1.24,1.38,1.36,2
							c0.69,3.48,1.69,6.42,3.24,9.45c0.6,1.17,1.05,2.29,1.89,3.21l0.87,3.35C176.67,109.25,175.34,108.52,174.7,107.27z"/>
						<path d="M192.63,110.62c-2.07,0.52-5.5,0.67-7.22-1.01l0.14-1.12l4.76,1.38l4.06-1.66c0.71-0.29,1.23-0.53,1.72,0.14
							c0.33,0.44,0.1,1.38-0.57,1.55L192.63,110.62z"/>
						<path d="M158.5,152.87c-1.87-1.42-3.12-0.48-3.28-1.57c-0.23-1.5,2.73-1.05,4.06-0.52c0.69-0.8-1.12-1.77-0.26-2.58
							c0.43-0.4,2.01,0.15,1.81,0.99C160.51,150.6,159.53,152.09,158.5,152.87z"/>
						<path d="M185.31,107.76l-0.95,1.17c-3.09-2.79-4.1-1.89-6.25-3.83c1.68-0.93,2.83,0.39,4.15,1.07L185.31,107.76z"/>
						<path d="M163.54,88.41l-2.72-0.7c0.13-0.66,0.15-0.85,0.06-0.51c-0.7,0.09-1.2,0.12-1.17-0.12c0.05-0.45,0.97-0.92,1.27-0.75
							c0.3,0.18,0.67,0.7,0.94,1.14c1.32,0.06,2.77,0.2,4.22,0.63C165.34,89.16,164.54,88.67,163.54,88.41z"/>
						<path d="M164.23,145.17c-0.62,0.97-1.15,1.52-1.99,2.25l0.32-2.22c0.04-0.25,0.39-0.7,0.59-0.83
							C163.4,144.21,164.43,144.86,164.23,145.17z"/>
					</g>
				</g>
			</g>
		</g>
	</g>
</svg>
