<?xml version="1.0" encoding="utf-8"?>
<!-- Generator: Adobe Illustrator 30.1.0, SVG Export Plug-In . SVG Version: 9.03 Build 0)  -->
<svg version="1.0" xmlns="http://www.w3.org/2000/svg" xmlns:xlink="http://www.w3.org/1999/xlink" x="0px" y="0px"
	 viewBox="0 0 1095.88 3254.41" style="enable-background:new 0 0 1095.88 3254.41;" xml:space="preserve">
<g id="Layer_2">
</g>
<g id="Layer_1">
	<path d="M231.65,2202.97c13.47-16.42,25.56-30.99,39.36-45.5c5.84-6.14,16.89-10.22,14.24-20.65c-0.45-0.55-1.64-2.21-2.08-2.76
		c-0.65-0.81,1.5-2.7,2.53-2.86c0.69-0.11,2.59,0.32,2.53,1.01l-0.45,5.59c4.08-0.6,6.13-7.58,5.26-12.49
		c-6.54-36.82,9.62-69.62,8.95-90.39l-1.2-37.68c-0.44-13.71-1.07-26.46-1.09-40.05l-0.09-87.11c0-3.43,2.89-9.89,2.69-12.63
		c-2.18-29.56-5.03-17.19-6.59-52.07c-0.35-7.91-0.09-17.93-1.17-26.1c-3.58-27.08-5.4-52.57-8.75-79.09l-5.95-47.04
		c-3.63-28.72,6.76-39.24,1.18-73.78l-5.83-36.1c-1.59-9.88-6.94-19.5-1.31-29.2c5.25-9.04,4.36-17.63-1.08-26.6
		c-5.02-8.29-2.22-22.93,4.4-29.49l17.53-17.37c2.91-2.89,7.44-4.78,13.09-4.95c-0.43,12.87-18.96,13.78-28.04,33.64l9.8,27.75
		c-6.91,13.56-9.89,27.88-4.05,41.32c5.15,11.84,5.42,24.98,7.45,37.67c4.27,26.63-4.73,31.5,0.61,74.97
		c3.05,24.8,5.86,47.92,6.6,72.57c1.05,35.07,7.96,25.97,6.97,70.27c-0.28,12.66,0.42,23.83,4.56,36.13
		c3.32,9.89-1.61,21.28-1.12,31.15l1.16,23.18l-1.46,35.61l-0.76,29.06l3.05,15.94l-1.01,16.07c-2.59,41.06,9.04,23.32,2.2,56.43
		l-4.91,23.78c-4.03,19.51-8.14,37.21-5.03,57.16c1.78,11.42-4.4,23.59-11.26,33.31l2.67,13.58l5.56-3.98
		c2.46,21.57-9.15,20.66,0.9,36.91c2.63,4.26,3.46,8.39,2.03,12.77c-1.62,4.93-5.66,5.89-12.48,7.17
		c-3.38,19.69,12.12,26.73-2.59,41.62l-16.03-19.69c-0.95-1.17-1.51-6.71-2.92-6.51l-9.28,1.31c-3.42-4.29,0.41-36.94,2.9-26.75
		c0.26,1.06,0.79,3.68,0.73,4.86l-0.72,13.73l11.2-8.38l8.69,10.8l3.43-13.88c4.49-18.16,6.76-36.71-2.74-53.97l-17.02,14.34
		c-7.73,6.51-13.44,17.3-20.51,24.87c-5.88,6.3-17.51,20.59-21.33,26.67c-17.68,28.15-52.19,5.87-54.84,1.17
		c-1.67-2.96,1.77-11.11,4.2-13.38c12.87,0.06,23.29-5.23,32.59-13.63l11.08-10.02c-11.05-9.09-12.66-21.05-20.71-30.76
		c-40.9-49.34-34.3-80.41-40.37-96.24c-3.03-7.89-8.36,14.9-23.99-31l-7.78-22.83c-4.21-12.34-8.82-25.42-15.14-36.28
		c-2.35-4.04-4.27-6.13-4.87-10.27c-1.65-11.33-2.01-20.57,0.38-31.82l4.5-21.13l3.51-26.47l7.05-45.6
		c2.84-18.34,4.66-41.09,6.31-58.96c0.15-1.65-2.87-5.36-3.96-6.4c-7.2-6.92-3.64,10.53-12,23.03c-1.69,2.53-1.23,10.03-2.28,12.7
		l-10.41,26.55c-4.86-5.09,0.02-9.27,0.94-13.88c3.2-16.04,11.98-51.29,21.67-64.17c5.86,1.23,9.93,4.95,11.85,8.78
		c2.99,5.96,0.69,11.65,0.53,17.2c-0.39,13.95-1.39,27.46-3.52,41.86l-3.21,21.63l-10.86,77.41c-2.33,16.64-0.4,30,6.13,45.86
		l8.18,19.85c1.42,3.45,4.46,7.69,7.99,11.78l-6.89-44.63c-2.24-14.5,1.16-28.71,5.37-42.33c9.73-31.48,8.56-39.92,15.28-63.76
		c8.24-29.22,14.66-57.72,17.72-88.07l4.44-44.04c1.28-12.69,1.05-25.15,1.34-38.11c0.33-14.42,2.6-28.66-1.95-42.24
		c-2.69-8.05-7.34-17.48-7.75-25.67c-1.3-25.77-0.21-45.55-32.38-52.02c-1.13,16.51-2.74,31.13-2.74,46.72l0.03,89.53l-2.48,34.22
		c-0.3,4.15-4.53,11.07-8.22,14.73l-1.47-28.92c-0.12-2.33,2.11-6.47,0.85-9.55c-3.06-7.47-1.26-15.57-1.83-23.04
		c-1.14-14.85,2.01-28.89,2.69-43.76l2.82-61.89c1.05-22.93,3.75-45.05,1.49-67.56c-0.66-6.62-1.71-13.12-1.22-19.45l2.44-31.5
		l1.79-21.32c1.73-20.58-2.11-41.86-6.35-62.36c-15.64-75.58-3.96-117.49-20.08-189.56c-3.33-14.89-4.73-29.9-7.5-44.98l-3.53-19.2
		l-4.21-35.6c-3.26-27.61-25.66-55.48-11.96-117.71l4.22-19.19l4.05-20.02c2.37-11.69,9.58-33.64,14.33-44.02
		c6.81-14.88,7.92-30.23,10.56-46.13c2.72-16.43,1.2-32.9-1.15-49.6l-4.49-31.93c-0.78-5.55-1.41-12.41-1.63-17.95l-1.21-29.91
		l-0.73-16.63c-2.43-55.56,16.75-41.77-8.45-81.21c-5.39-8.44-6.63-16.51-7.35-25.91c-0.86-11.23-6.62-24.9-4.16-35.92
		c2.5-11.22,2.88-19.48,2.52-31.1c-0.83-27.23,15.86-38.36,4.56-72.79c-3.6-10.97-2.97-24.28-4.96-35.76
		c-2.44-14.09,1.46-25.89,3.16-39.66c1.21-9.78-13.85-23.77-3.6-36.5l14.84,25.39c0.35,12.17-7.67,25.48-5.94,37.76
		c4.61,32.64,15.51,54.02,8.37,79.23l-5.86,20.71c-2.59,9.16,0,19.14-0.78,27.81c-1.14,12.59-2.59,21.44,1.43,33.8
		c2.28,7-4.14,20.35,0.42,27.88l14.42,23.84c4.2,6.94,7.74,19.98,5.93,28.1c-4.16,18.61-5.22,26.59-4.59,45.41
		c0.28,8.41,1.53,18.61-1.46,20.32c5.2,11.24,5.56,24.69,3.85,37.21l2.35,9.89c2.32,9.75,6.27,46.54,5.29,57.85
		c-1.8,20.74-4.11,40.66-7.87,61.63c-0.48,2.69-8.89,17.48-13.21,34.38l-8.98,35.13l-3.9,20.85c-1,5.36-4.26,12.94-4.56,18.36
		c-0.8,14.53,0.15,29.08,2.99,42.63l2.39,11.42c4.15,19.77,9.21,29.05,10.3,39.82l3.4,33.44c0.71,6.97,1.98,12.59,2.28,20.39
		c0.24,6.04,3.91,14.35,5.24,21.09l9.85,49.89c1.25,6.31,3.71,49.14,4.03,58.89l1.88,57.42c0.51,15.5,5.94,30.02,8.11,45.02
		l4.41,30.43c3.19,21.99,3.35,28.81,1.37,50.57l-3.18,34.94c-0.72,7.95-2.15,31,5.58,35.01c-0.71,2.52-2.83,9.21-2.82,12.69
		l0.08,22.18c17.11,4.32,36.59,14.65,37.92,32.29l0.9,11.93l3.32,20.85l8.43,25.63c5.64,17.15,0.72,36.88-0.83,55.48l-5.02,60.49
		c-1.74,20.95-4.53,39.38-9.35,59.37l-20.13,83.54c-3.05,12.66-6.63,24.43-8.73,37.53c-2.5,15.59,4.21,31.6,6.11,46.89
		c4.59,36.92,5.16,22.05,13.63,51.23c6.15,21.22,15.06,75.03,27.7,90.74l13.14,16.33c5.21,6.47,9.06,11.57,15.66,17.72l8.15,19.6
		c14.38-16.97,2.8-76.62,16.92-87.32l-5.98-31.99c-5.89-31.48,2.07-54.01-4.84-92.51c-4.4-24.56-10.71-7.73-5.35-45.83
		c1.17-8.31,5.09-17.44,11.68-21.84c8.56-5.72,4.6-10.23,5.34-18.25l7.16-77.91c1.61-17.49-1.82-34.93-1.59-52.24l0.57-43.41
		c0.04-3.09-12.67-59.81-14.32-65.43c-4.71-16.09-7.63-31.11-9.86-47.69c-2.43-18.14,2.94-35.49,6.77-53.48l18.9-88.9
		c3.2-15.05,1.22-31.22,0.95-46.44c-0.39-21.37-11.6-23.42,4-63.75c-3.08-24.82-9.21-28.21-7.27-48.1
		c2.79-28.66,5.6-83.31-1.52-109.74c-3.99-14.82-15.96-27.36-17.18-42.88c-0.68-8.68,1.34-18.71-1.28-27.67
		c-4.05-13.85-1.48-26.81-1.7-40.72c-0.27-17.44,0.16-34.27,2.46-52.01l7.81-60.38c1.3-10.07-0.1-22.73,2.59-31.7
		c3.47-11.55,6.52-20.3,5.8-32.02c-1.58-25.67,7.16-41.65,8.9-66.12c-7.07-0.95-5.74,9.53-10.86,7.11c-1.68-0.8-2.48-4.89-1.7-6.84
		c5.71-14.33,11.1-28.06,15.82-42.58c2.15-6.6,3.5-13.51,11.45-17.06c4.23,3.21,2.21,8.8,1.28,14.07
		c-5.06,28.56-4.52,41.41-8.78,66.7c-3.53,20.97-1.38,29.77-4.94,48.86c-1.18,6.33-4.21,14.32-4.98,20.3l-4.21,32.7l-3.31,30.55
		c-3.14,29.04-6.11,36.88-6.3,66.94l-0.2,32.46l3.66,39.03c4.29,45.79,18.77,32.4,19.78,72.51l0.74,29.69
		c0.21,8.51,0.8,17.79,0.02,26.25c-1.88,20.55-1.23,49,2.08,68.79c2.54,15.18-4.08,29.35-3.48,43.87l2.1,51.31
		c0.61,15.03,1.52,31.11-3.42,44.97c-2.56,7.2-2.39,12.02-4.38,18.89l-5.32,18.41c-3.67,12.71-4.3,24.71-7.01,37.79
		c-8.8,42.39-6.66,52.06,2.45,91.83l4.58,19.99l3.66,15.96c2.36,10.27,9.53,23.25,8.39,34.02c-2.15,20.26-3.82,38-1.66,58.34
		c1.8,16.88,3.94,34.48,1.59,50.96l-7.59,53.4c6.23,20.74-0.46,11.84,5.2,42.31c1.78,9.56,2.53,19.27,3.54,29.45
		c2.96,29.64,9.12,31.62,6.58,60.04c-3.66,40.9,3.97,53.03-10.31,84.29c-3.42,7.48-7.66,12.85,0.3,20.04l-12.61,15.71l-3.31,31.83
		c-6.83,65.56-42.24,74.24-42.23,84.38c0,1.11,5.44,2.37,6.66,1.75C216.11,2223.47,224.94,2211.15,231.65,2202.97z M257.72,2027.11
		c-0.71-14.96,3.6-30.86,0.75-45.59c-3.03-15.7-5.14-30.11-6.12-45.77c-0.66-10.5-2.14-20.72-6.08-31.85
		c-8.47,19.44-5.66,39.23-3.14,59.36c5.71,45.68-5.31,65.81,8.74,103.52C261.73,2059.86,258.23,2037.83,257.72,2027.11z"/>
	<path d="M1018.46,909.69c-13.81,30.04-0.69,31.47-13.17,36.38c-11.8,4.64,15.75,19.79-3.08,34.82c-3.36,2.68-6.71,8.21-9.48,11.88
		c-6.27,8.33-17.48,13.25-12.64,27.61l9.43-8.82c1.08-1.01,3.48-2.95,4.52-3.73c1.04-0.78,2.41,4.3,3.15,6.54l7.04-2.36
		c-2.89,5.6-5.48,9.98-8.97,15.53l-14.69,23.32c5.75,25.27-24.5,34.04-23.05,65.09c0.14,3.03,5.78,7.93,5.25,10.42
		c-2.46,11.58-13.98,10.37-18.21,30.93c-2.75,2.99-8.64,9.03-12.27,10.34l-27.25,9.8c-17.8,6.4-26.7,23.2-48.05,26.52
		c-4.48,0.7-14.47-3.23-18.44-1.08c-11.3,6.09-34.81,4.1-47.25-0.16c-20.54-7.04-23.89-4.67-36.76-12.98
		c-3.53,7.89-0.5,21.07,3.2,29.94l7.08,16.97c5.88,14.09,10.84,27.97,23.66,37.74l10.01-5.06l8.62,11.75
		c3.44,4.68,3.32,7.61,0.21,12.44l-6.18,9.62l-22.54-12.73c-5.79-4.69-16.17-15.6-19-22.78l-10.06-25.45
		c-3.83-9.69-4.8-21.82-7.07-33.06l4.99-18.71l-36.63-6.78c-8.69-1.61-15.44-6.76-22.94-10.94l-14.44-8.04l-0.01,15.62l-5.39,18.45
		l-7.25,26.95c-2.33,8.68-4.58,13.78-1.63,22.71c5.52,16.73,14.46,30.13,13.17,34.57c-1.19,4.09-4.69,10.38-8.84,10.69
		c-7.21-6.3-9.88-15.25-13.26-23.61c-2.49-6.16-7.02-13.79-5.3-20.55l15.51-60.78c1.44-5.65,1.47-17.08,2.58-23.75
		c1.12-6.75-12.4-6.96-16.6-12.52c-1.36-1.81-1.24-7.97,0.49-9.45c4.02-3.44,14.68-4.55,19.03-0.9c7.12,5.97,14.52,6.94,22.56,10.41
		c12.41,5.35,39.13,22.03,54.34,14.81c-4.44-28.11-5.28-44.35-4.24-72.07l1.63-43.55c0.37-9.84-1.23-20.48-1.57-30.29l-0.63-17.95
		l-0.44-19.58c-0.22-9.64,0.3-18.77,0.86-28.71l1.1-19.56c-3.6-7.36-6.28-16.92-8.25-24.93c-3.43-2.58-9.84-8.05-13.73-10.15
		l-16.99-9.17c-11.44,3.67-23.64,1.79-29.84-10.21c-2.11-4.09-12.71-4.69-16.22-7.62c-7.26-6.05-11.25-14.95-17.44-22.61
		c-1.98-2.46-3.61-7.1-2.88-9.6c2.05-7.06,19.64-11.23,22-9.1l18.63,16.8c7.32,6.6,13.94,10.8,23.02,13.79
		c18.93,6.23,17.07-1.26,39.2-1.99c3.8-29.3-5.66-14.17-1.42-44.38l5.29-37.64c0.72-5.15,3.37-17.78-3.15-19.64l-17.35-4.94
		c-21.67,12.3-18.4-13.47-29.55,3.48c-12.26,2.21-26.27,7.82-37.99,12.75c-15.39,6.47-25.48,14.67-37.86,25.54
		c-12.93,11.35-32.02,15.91-43.16,33.76c-4.22-6.12-2.57-14.13,0.71-17.05c7.27-4.96,18.06-4.8,19.34-16.52l-26.8,11.47
		c4.34-30.11,47.98-10.64,82.7-53.71c1.96-2.43,22.37-18.15,29.77-17.82c6.87,0.31,13.92,5.17,19.06,9.71
		c4.2-1.19,11.31-3.2,16.04-3.46l22.39-1.24l-0.51-36.17c-0.09-6.15,0.48-10.69-0.49-16.31c-1.56-9.07-1.72-19.21-3.75-27.63
		c-4.21-17.39-3.93-37.59-1.83-56.01c1.83-16,2.76-31.3,3.39-47.41c0.34-8.62,2.03-18.15,5.45-25.99
		c5.54-12.73,9.2-37.65,8.79-50.03c-0.5-15.18,10.94-26.22,18.89-37.9c3.76-5.52,7.07-12.82,15.46-9.22l-21.71,33.03
		c-3.41,5.19,3.5,17.09,3.2,22.45c-5.67,8.68-9.8,17.18-12.34,26.55l-6.45,23.76c-1.8,6.64-2.69,10.81-3.04,17.73l-3.71,73.09
		c-0.66,13.06,8.68,26.05,7.65,39.76c-0.34,4.52,0.88,8.6,1.61,13.26c2.97,19.11-2.49,49.63,7.76,43.84
		c13.58-7.67,27.64-12.48,43.01-15.48c28.8,11.97,28.39-4.45,54.51,2.28c1.74,0.45,5.3,5.78,4.42,7.12
		c-1.06,1.6-2.78,2.23-6.02,3.92l-2.86,5.66c-0.76,1.5-4.85,0.68-7.49,0.67c-1.76-0.01,0.26,4.32,0.8,6.35
		c3.16,11.93-22.31,18.18-31.19,18.57l-31.37,1.35l-23.78,1.46c0.25,2.86,1.83,10.43,0.78,13.08c-7.86,19.69-8.04,41.49-5.73,62.07
		l2.92,26.13c4.08,1.21,9.55-1.58,12.58-4.8c11.61-12.31,20.02-8.31,19.77-41.94c-0.02-2.38-3.72-7.72-2.78-9.82
		c2.5-5.56,20.71-10.21,23-8.5l14.71,10.95c-3.84,4.25-7.08,1.08-9.1-2.58c-2.91-5.28-13.63-9.61-15.76-3.64
		c-4.36,12.19,6.07,19.8,14.37,23.29c9.3,3.91,3.09,15.68,2.1,22.33c-1.73,11.53-4.45,22.65-13.77,29.68
		c-3.92,0.3-11.55,0.26-14.51,1.93l-12.12,6.82c-3.72,2.09-8.74,7.85-13.15,9.61c-21.34,8.5-3.2,31.96-4.75,50.29
		c-1.08,12.69-3.02,34.29-2.54,46.31l2.09,52.3c0.34,8.42-2.75,17.58-3.26,25.59c-0.35,5.59,0.76,12.42,0.16,18.36l-2.22,22.23
		c-1.67,16.7,2.95,46.03,8.07,61.76c10.74,2.65,19.36,5.57,29,9.53c19.31,7.93,18.28-6.61,21.75-4.41l4.47,2.84
		c1.15,0.73-1.42,3.84-2.61,6.46c21.23,8.02,32.69-0.19,55.92-0.81c16.91-18.73,28.25-12.24,47.94-33.86
		c5.33-5.85,25.76-30.09,25.89-35c0.03-1.08-1.67-3.8-2.63-3.26l-5.99,3.34c-8.11,4.53-14.59,8.28-22.7,13.53
		c-7.06,4.58-34.64-1.33-41.36-11.65l-2.79-15.85c4.82-1.86,10.16,0.46,15.78,3.69c8.23,4.73,59.27-7.66,58.42-21.58
		c-0.36-5.79-6.23-4.67-21.14-7.91c-7.89-1.72-14.74,3.94-19.5,10.39c-7.96-2.72-17.1-7.23-24.79-6.9
		c-13.35,0.57-27.72,3.41-39.7,1.58c-10.8-1.66-19.46-6.09-30.44-1.63c-3.94,1.6-13.12,0.85-17.52,0.41l17.04-14.62
		c17.63-15.13,43.23,12.78,76.53-11.06c12.78-9.16,30.05-0.72,43.4-1c7.18-0.15,17-4.39,24.01-1.04l19.23-18.64l-22.84-1.77
		l-8.43-6.87c-30.91-14.33-11.99-13.2-38.53-17.92l-13.49-2.4l-16.11-0.41c-5.05-0.13-13.8,2.63-18.2-1.53
		c-2.27-2.14-0.06-9.33,1.82-11.76c2.18-2.83,7.4-3.5,12.12-3.99l22.22-2.32c9.7-1.01,17.82-2.2,26.68,3.7l22.96,15.29
		c4.35,2.89,16.01,3.45,21.27,2.42c5.31-1.04,11.19-5.57,16.33-7.31c11.21-3.8,24.02-12.04,24.01-25.57l-12.51-28.63
		c-1.92-4.39-3.1-6.93-5.68-11.47l1.54-7.41c-3.64-4.4-3.75-11.27,0.76-15.2c9.29-8.08,18.08-16.94,27.77-23.91
		c15.86-11.41,31.93-21.14,40.91-39.41c8.21-16.69,19.38-31.95,18.89-51.95c-0.07-2.82-1.55-9.02-0.2-11.3
		c1.04-1.76,7.43-1.15,9.26-0.24c2.2,1.08,4.11,6.28,3.56,8.83c-7.01,32.34-3.82,25.4-21.64,56.4
		c-10.1,17.57-13.08,18.67-25.85,32.32C1023.28,887.73,1022.55,900.8,1018.46,909.69z M826.65,731.17
		c-34.49,13.53-28.66-17.13-77.32,11.51c8.57,2.6,15.7,1.51,23.52,0.29C806.67,737.66,829.21,747.71,826.65,731.17z M799.82,852.06
		c0-1.93-1.56-3.49-3.49-3.49c-1.93,0-3.49,1.56-3.49,3.49c0,1.93,1.56,3.49,3.49,3.49C798.25,855.55,799.82,853.99,799.82,852.06z
		 M759.29,883.24c-1.01-1.55-5.28-1.52-7.77-0.32c-2.21,1.06-4.26,4.69-4.47,7.95C751.39,889.76,753.34,888.49,759.29,883.24z
		 M733.4,897.32c0-2.02-1.63-3.65-3.65-3.65s-3.65,1.63-3.65,3.65s1.63,3.65,3.65,3.65S733.4,899.34,733.4,897.32z M993.73,937.62
		c8.25,12.1,11.6-37.01,8.7-38.87c-5.07,3.39-10.06,6.71-12.33,9.97C985.36,915.53,989.48,931.39,993.73,937.62z M948.32,1087.29
		c10.04,0.59,13.39-6.48,11.16-14.03L948.32,1087.29z"/>
	<path d="M925.18,781.63c-1.7-12.88-4.68-24.87,6.71-36.2c-5.7-2.35-9.53-3.58-10.91-5.84c-1.38-2.27,1.48-9.24,3.62-10.8
		l26.55-19.23c19.08-13.82,7.34-23.13,27.41-23.59l9.94-9.32c7.02-6.58,13.74-9.13,23.37-8.78l15.53-16.23
		c13.07-13.66,28.02-13.5,30.33-19.06c1.05-2.54-0.03-9.06,0.2-12.17l1.87-25.41c0.7-9.53,9.35-19.71,4.84-29.78
		c-21.61-22.65-4.7-6.93-13.98-29.23c-2.81-6.75-1.03-16.9,0.6-24.47c2.09-9.69-6.59-28.97-14.69-32.98
		c-2.35,3.03-3.68,8.75-2.96,11.93c8.03,35.38,7.04,59.53,13.63,82.74c1.23,4.35,7.05,7.43-6.76,17.5
		c-1.66,1.21-8.15-3.41-8.54-5.72c-7.37-42.95-8.62-74.49-17.09-121.18c-1.03-5.67-2.77-8.97-7.59-12.83l-13.69-10.95l-3.92-3.55
		c-0.87-0.79-4.17,1.54-5.78,2.01c-2.38,0.69-1.91-6.98-2.63-9.37c-2.98-4.64-6.71-12.63-6.97-20.25l-18.87-17.65l3.12-11.09
		c15.1-2.1,3.55-1.49,25.96-15.7c7.08-4.49,17.78-9.49,25.7-4.1c3.03,2.44-0.37,12.28-3.75,14.23l-14.35,8.3l-0.72-4.76
		c-0.17-1.13-4.9-1.29-5.77-0.55l-5.97,5.03c-3.61,3.04,17.7,12.87,22.06,28.79l10.19-6.14c43.22,15.86,26.78,34.11,34.46,46.36
		l15.24,24.29l5.44,10.79c1.41,2.79,1.97,7.19,4.61,9.58c5.16,4.65,10.79,24.06,12.9,32.37c1.36,5.38,5.57,13.06,5.87,18.41
		c0.78,13.79,2.43,25.77,5.49,38.81l-3.71,18.81c-2.12,10.72-4.21,21.37-6.79,31.48c-3.33,13.08-8.68,24.64-3.65,38.89
		c7.31,20.7-14.2,15.06-1.52,50.9c1.46,4.12-2.34,13.04-5.53,16.53c-11.77,12.85-4.06,7.78-14.44,29.1
		c-7.2,14.8-17.86,19.52-33.26,19.15c-8.85-0.21-19.36,6.9-38.03-0.09c-9.74,0.46-18.48,0.32-28.2-0.5
		c2.72,4.1,3.54,8.99,0.96,13.12c-1.62,2.6-5.24,6.76-7.4,6.34c-2.16-0.42-4.33-4.45-5.89-7.4l-7.77,11.12
		C926.21,783.07,928.12,803.87,925.18,781.63z M1015.82,433.06c-8.07-6.69-7.41-16.5-9.79-15.34c-1.1,0.54-3.8,1.65-3.26,2.58
		l2.72,4.66C1008.27,429.73,1012.4,433.78,1015.82,433.06z M1026.32,442.6c0.66-5.19,1.72-9.69,0.29-9.57l-7.34,0.58L1026.32,442.6z
		 M1072.98,541.84l-4.98-19.43c-0.42-1.65-5.83-4.85-6.12-3.28C1060.29,527.77,1061.77,544.59,1072.98,541.84z M1065.93,628.99
		c15.45,0.66,15.95-36.41,14.47-44.76c-0.25-1.42-4.41-2.36-4.94-1.3c-0.4,0.79-2.12,3.96-2.25,4.81l-2.13,14.78
		C1069.82,611.35,1068.57,618.88,1065.93,628.99z M1067.45,673.49c0.57-2.78,0.28-9.23-1.04-11.79c-1.12-2.17-8.65,2.84-8.43,5.27
		c0.19,2.08,1.17,5.11,2.34,8.52l1.93,5.63c0.38,1.11,3.77-0.7,4-1.84L1067.45,673.49z M1019.91,742.71l20.68-9.88
		c2.53-1.21,7.19-5.54,8.23-8.37l-9.62-16.11c5.24-21.4-3.77-2.23,3.25-26.33c0.6-2.07-4.56-5.68-6.46-4.7l-8.15,4.17
		c-2.2,1.02-2.81-6.84-3.82-12.06l-42.46,54.31c-4.23,5.41-5.51,10.72-11.47,14.6c-7.23,4.71-4.53,18.26,2.46,20.89l2.2-8.88
		c0.37-1.48,4.31-2.67,5.87-2.4l17.41,3.02C1005.24,748.35,1013.2,745.92,1019.91,742.71z M1072.32,704.76
		c-1.24-2.63-3.75-5.81-6.33-8.49l-0.36,8.98C1065.55,707.18,1073.17,706.57,1072.32,704.76z M966.59,727.43l14.6-19.62
		C970.09,707.98,962.26,717.69,966.59,727.43z M1014.72,754.33c10.52,2.83,22.2-1.46,27.74-11.92c-3.64,0.62-9.62,1.38-11.61,2.54
		L1014.72,754.33z M945.45,771.33l4.71-5.36c1.16-1.33-1.85-7.21-3.51-7.45C942.55,760.68,941.52,767.74,945.45,771.33z
		 M1038.81,777.89c11.77-2.99,15.72-10.99,13.7-18.67l-14.84,14.29C1037.61,773.28,1038.53,776.79,1038.81,777.89z M948.38,793.15
		c0.66-7.45,0.62-12.07-0.82-17.38C942.9,782.04,945.71,787.88,948.38,793.15z"/>
	<path d="M73.98,2062.75c23.41,16.49,12.95,27.03,42.96,39.3c6.35,2.6,12.49,5.04,19.01,5.29l3.17-13.23
		c2.49,1.44,6.05,4.18,5.4,5.86l-3.01,7.83c-2.51,6.53-6.77,13.04-12.6,17.51c-15.53-4.06-30.25-11.2-40.65-23.45
		c-24.12-28.4-27.39-22.45-48.47-49.34c-5.5-7.02-18.58-38.64-21.34-48.19c-3.68-12.77,0.14-27.84-1.6-41.17
		c-0.96-7.36-1.9-14.81-1.15-21.96c2.43-23.03,3.78-44.81,4.34-67.79l1.54-63.72c0.78-32.36,23.85-47.29,26.45-78
		c0.51-5.98-0.58-13.68,0.45-19.13c7.54-39.7-2.01-56.09-0.6-77.22l4.05-60.58c1.33-19.88,4.2-39.45,7.4-59.53
		c3.43-21.54,5.19-42.1,6.68-63.79c1.8-26.13,0.54-51.35,0.34-77.3l-0.3-37.63l0.06-27.22l0.23-25.38
		c0.16-18.06,7.14-73.34,6.89-75.66c-3.18-29.16-9.86-38.51-16.97-62.58l-9.11-30.85c-2.48-8.39-5.29-18.57-5.62-27.63
		c-0.89-24.58-1.66-47.64-4.79-72.06L26.5,935.06c-2.41-18.85-5.11-36.52-4.93-55.71l0.27-29.73
		c0.46-50.16-26.03-89.61-21.26-134.44l5.28-49.59c1.44-13.57,3.54-26.47,2.97-40.41c-1.71-42.26,17.91-79.28,35.27-118.24
		l11.18-25.1c4.84-10.86,6.19-25.45,20.74-29.39c-4.74,10.12-9.11,19.09-13.15,28.46l-19.12,44.3
		c-16.9,39.15-25.65,46.9-26.12,91.81c-0.43,41.24-7.22,60.71-7.49,100.86c-0.33,49.67,18.94,76.28,20.13,95.1
		c1.01,15.98,2.35,30.79,1.72,46.06l-1.33,32.14c-0.29,7.07,2.38,14.02,3.39,20.89l3.28,22.38l4.02,30.75l1.89,17.73l3.25,26.28
		l1.96,33.9c1.1,19.12,5.96,62.17,12.38,78.76l11.74,30.3c20.49,52.9,3.42,76.67,3.9,107.23c0.23,14.97,0.78,28.95-0.3,43.28
		c-1,13.21-1.14,25.78-0.87,38.91l0.76,36.76c0.55,26.95,1.6,39.25-0.47,67.12c-1.81,24.36-3.96,47.66-8,71.79l-2.79,16.64
		c-1.47,8.79-2.43,18.29-3,27.41l-2.01,32.28c-0.62,9.94-3.31,23.63-2.03,33.28c3.5,26.49,3.75,50.14,1.95,76.16
		c-1.82,26.35-3.34,51.05-20.78,72.54l-6.97,23.02c-1.77,5.85-1.35,14.52-1.52,21.28l-0.71,29.61l-0.6,23.51
		c-0.47,18.64-0.67,35.46-3.38,53.08c-1.95,12.73,0.97,26.78,0.18,38.78c-1.37,20.74,2.65,36.95,11.84,55.2
		C47.85,2040.1,52.31,2047.49,73.98,2062.75z"/>
	<path d="M184.89,68.96c4.15,5.73,10.68-1.72,15.76-3.81l17.64-7.24c1.65-0.68,4.94-0.32,6.35,0.58c1.76,1.12,0.04,8.28-2.93,9.58
		l-58.24,25.52c5.81,8.55,11.82,4.07,19.75,3.69c0.5,2.06,0.44,6.94-1.18,8.35c-4.55,3.96-22.26,10-28.64,4.27l2.06-20.32
		l19.82-15.55l14.76-31.12c-5.25-4.58-27,5.38-33.23,12.49c-9.37,10.69-17.49,21.7-26.3,33.16c-12.86,16.72-10.07,38.61-8.19,59.9
		c1.02,11.56,0.43,22.86-0.53,34.74l-1.96,24.25c-0.47,5.88,0.46,11.81-3.68,16.88c-7.53,9.22-9.68,19.15-13.09,29.57
		c-6.43,19.69-10.16,29.82-13.53,51.84c-1.52,9.9-3.05,18.04-13.88,23.17c-0.84-7.3,0.74-12.09,2.86-18.46
		c3.74-11.25,4.58-22.98,6.95-35.36c1.25-6.52,7.38-14.42,9.73-20.67l12.09-32.1c8.7-23.12-0.8-78.17,3.4-104.77
		c2.3-14.54,7.65-26.29,16.56-37.61l13.34-16.95c38.79-49.31,51.4-32.55,53.38-34.73l4.91-5.39c9.68-2.48,19.78-1.09,29.87,0.57
		c7.22,1.19,16.91-5.55,24.17-5.3l17.29,0.59c6.1-6.97,14.67-5.73,21.51,0.1c29.86-9.49,23.44-1.78,55.53-10.03
		c4.18-1.08,11.71-0.76,16.43-1.58c9.63-1.66,17.93-1.83,28.27-1.75l19.45,0.14c21.78,0.16,30.12-7.06,39.06-5.34
		c6.01,1.16,8.47,10.76,9.62,16.18c3.88,18.35-0.61,34.93-5.01,52.49l-4.8,19.13l-5.8,24.21l12.57,7.37
		c8.49,9.45-7.55,25.15-0.37,26.19c1.44,0.21,4.54-0.41,5.66-1.5c10.07-9.78,27.44-18.1,40.45-8.85c5.32,3.78,0.56,15.29,0.06,22.96
		c16.56,0.54,39.51-3.56,55.02-6.87c1.12-0.24,5.14,1.64,4.91,2.67c-2.09,9.34-31.08,24.11-41.38,29.39
		c-3.5-7.43-10.2-14.06-17.36-12.6l-20.35,4.15c-4.78-7.19,16.27-14.89,7.26-31.47l-17.26,5.24c-13.19,4.01-23.15,14.71-36.73,20.99
		c-1.32-15.07,6.41-19.64,10.55-33.66c0.35-1.19-2.16-3.85-3.31-3.36c-6.44,2.76-6,11.89-15.96,21.75l-1.71-19.4l-23.79,23.83
		c-1.37,1.37-6.23,2.56-7.59,1.32s-1.49-5.17-0.66-7.12l18.9-43.91c4.96-11.53,7.56-17.71,0.94-30.66c-4.09-8-0.64-24.81-8.19-31.61
		c-9.87-8.89-33.2-5.76-43.46-4.66c-15.36,1.65-31.47,0.19-46.82,4.28c-7.87,2.1-10.17,17.92-26.52,11.61
		c1.27-25.67,22.4-11.78,24.62-23.57c-5.04-1.55-12.57-1.58-16.07,0.59c-9.99,6.16-17.12-2.82-25.36-2.61
		c-7.42,0.18-16.89,3.31-25.56,2.49c-18.56-1.76-6.25,8.03-36.77,4.88c-3.13-1.11-9.81-4.14-10.99-1.63L184.89,68.96z M431.76,85.31
		c1.32,5.68-0.86,11.77,5.21,16.48l7.94-31.17c3.03-11.9,6.99-24.54,5.85-37.09c-0.42-4.61-5.48-15.82-10.12-14.98
		c-10.54,1.93-18.51,4.09-29.65,7.06l9.53,8.5l7.2,33.78L431.76,85.31z M421.17,127.05c3.69-1.16,5.45-11.71,1.68-11.57
		c-3.54,1.91-6.98,4.85-8.04,6.74C413.94,123.79,419.39,127.62,421.17,127.05z"/>
	<path d="M857.34,1946.33c-0.24-5.36-2.13-10.73-5.16-9l-6.92,25.87l5.32-3.56c1.27-0.85,3.27,4.07,2.89,5.66
		c-6.17,25.76,2.19,17.31-20.11,50.17c-5.24,7.72-12.33,14.54-20.46,17.51c-17.83,6.51-25.5,20.33-34.98,21.24
		c-2.41,0.23-5.54-3.55-7.85-5.95l-12.27-12.7c-5.27-5.45-15.18-8.82-19.73-17.57c-3.88-7.45-5.21-17.46-7.5-26.31
		c-2.04-7.89-1.95-16.4,4.68-22.26c27.98-24.74,6.73-52.63,70.63-55.93l12.24,8.4c1.65,8.95,9.17,15.19,15.35,19.46
		c-8.9,29.81,2.58,26.26-27.7,48.51c-3.47,2.55-8.45,5.8-11.75,5.75c-5.86-0.09-27.66-11.01-23.22-30.63
		c2.03-8.97,8.16-18.32,15.51-24.17l17.93-3.52c-3.51-6.24-8.96-7.03-15.3-6.69c-37.07,2.01-31.14,29.46-39.86,38.22
		c-8.39,8.43-11.26,16.79-5.33,27.65c14.97,27.42,32.35,21.99,36.96,38.94c9.06-2.62,20.57-8.71,29.18-14.89l2.13-13.22
		c1-1.01,3.62,0.89,6.29,3.43c23.91-18.97,20.76-16.31,27.91-47.92l-8.11,5.56c-1.35-11.45,0.44-21.31,3.94-30.59L823,1912.86
		c-4.27-5.59-13.41-9.92-18.33-14.85c-7.49-7.51-8.84-14.87-11.65-23.72c-2.48-7.81-3.32-12.91-1.22-21.76
		c1.14-4.8-1.63-12.72,3.55-16.92c12.71,4.78-4.26,20.34,15.84,41.39l12.74,13.34l11.32,11.48l15.35-16.96
		c13.42-14.83,25.84-29.62,41.45-42.06c0.84-13.2,8.14-24.35,17.25-33.33c8.87-8.74,10.51-17.54,12.14-28.93
		c4.08-28.61,4.57-37.06,16.98-63.85l24.87-31.77l-12.43-13.57c-6.04-6.59-13.16-10.12-22.77-13.6l-15.52-22.38
		c-1.99-2.87-0.4-9.6,2.43-10.97c3.82-1.86,8.2,0.22,10.81,3.59c7.39,9.58,16.01,16.08,25.15,23.53
		c9.08,7.39,17.37,15.56,30.38,17.9c0.58,14.75-10.15,23.5-18.62,33.35c-15.68,18.27-20.74,22.44-25,46.44l-8.89,50.03
		c-1.53,8.6-2.23,20.6-5.7,28.07l-19.46,41.87c-3.58,7.71-15.93,14.13-19.35,23.41l-9.4,0.07c0.49-7.39,4.05-11.46,9.09-16.49
		c21.38-21.35,10.39-15.71,21.13-32.8c6.18-9.83,10.39-20.28,11.99-31.97c-27.34,16.14-7.28,33.65-26.52,47.43
		c-7.46,5.35-12.23,13.2-18.99,19.38l-6.3,5.77c0.57,8.56-1.84,22.4-5.32,29.14c-0.67,1.31-6.47,2.27-6.84,1
		c-0.37-1.25-0.78-3.35-0.63-4.64l0.89-7.33c0.15-1.28-3.37-1.37-4.4-0.65c-1.03,0.72-4.3,4.49-3.87,5.68l6.95,19.54l0.43,8.34
		c5.14-5.21,9.17-7.6,15.4-8.1c4.63-0.37,12.09,8.3,9.62,12.96c-4.23,7.96-5.92,14.24-4.46,23.35l4.58,28.62
		c2.51,15.71,2.67,32.74,2.35,49.08c-0.19,9.85-4.22,20.5-5.01,30.13c-4.5,54.5-26.01,45.74-11.46,91.06l19.47,60.62l8.19,34.34
		c1.75,7.36-0.47,14.83-0.9,21.76c-1.53,24.6-7.44,47-12,71.22c-2.7,14.32,0.08,30.26-1.75,44.83c-1.64,13.06,0.74,23.38,4.43,35.56
		l4.88,16.1c2.4,7.92-4.27,23.81-6.81,31.57c-0.36,1.09-5.18,0.61-5.14-0.53c1.37-40.4-14.01-28.55-8.59-81.72
		c1.33-13.06-2.47-28.49,0.74-41.5l8.78-35.64c2.35-9.55,4.08-35.87,3.49-45.77l-1.43-23.88c-13.43-30.69-22.41-61.22-29.84-93.82
		c-3-13.15-0.58-26.05,6.06-38.65c7.32-13.89,9.29-27.8,11.26-43.26c2.39-18.8,3.48-36.47,1.89-55.34
		c-0.66-7.82-0.66-16.64-1.97-24.25C861.56,1978.04,858.1,1963.47,857.34,1946.33z M802.25,1976.38c3.01-1.54,10.19-5.84,11.13-9.01
		l3.59-12.14c0.31-1.05,0.42-5.88-0.56-5.4l-4.64,2.29l-23.05-0.3c-3-0.04-6.55,5.96-6.58,8.74
		C782.03,1972.48,797.87,1978.63,802.25,1976.38z"/>
	<path d="M389.36,2673.18c-2.55-4.42-7.06-85,6.83-74.13l-3.27,4.11c-0.69,0.86,4.22,4.23,4.16,5.33l-1.4,28.93
		c-0.55,11.42,17.88,19.5-11.91,72.74l-26.56,47.47c-2.37,4.24-4.9,8.08-11.79,7.62l5.13-20.38c3.62-14.41,6.07-28.8,9.14-43.58
		l9.15-44.09c1.63-7.88,0.69-16.95,1.44-24.88l6.14-64.99c1.67-17.72-3.43-39.37-0.41-76.99c0.97-12.08-1.48-24.63-2.84-37.13
		l-5.75-52.96c-2.24-20.65-5.41-40.06-4.31-61.09l2.7-51.54l0.93-16.6c0.65-11.6-0.48-24.14,1.32-35.49l4.35-27.5
		c2.76-17.43,4.35-56.21,3.75-73.75l-1.61-47.08c-0.67-19.71,0.39-36.67,2.97-55.88c1.48-11.02-3.11-23.73-1.99-35.35l4.51-46.66
		c0.74-7.71,25.31-46.52,29.59-51.49l15.91-18.44c5.46-6.33,12.68-10.6,17.54-18.48c1.32-2.15,7.95-3.12,9.58-0.92
		c-1.42,3.8-3.9,10.41-6,13.05c-22.39,28.02-22.29,12.77-44.65,51.71c-6.71,11.69-13.51,21.39-11.28,36.94
		c1.03,7.21-1.92,16.19-3.12,23.97c-1.04,6.75,3.08,15.88,0.54,22.65c-2.41,6.4,1.47,13.7,1.16,18.88
		c-0.9,14.86-3.94,28.42-1.69,43.24c1.84,12.13,0.13,24.3-0.4,36.81c-1.21,29.14,3.53,31.9,0.25,64.32
		c-3.58,35.31-6.63,32.59-7.95,71.72l-1.15,33.94l-3.1,47.1c-1.43,21.73-0.27,42.43,3.23,64.18l5.61,34.86l3.6,23.82
		c6.81,45.11-5.26,51.44,8.14,67.82l-8.79,8.86c0.73,28.86-1.53,56.7-5.56,85.55c-0.97,6.98-2.12,14.98-2.31,21.71l-0.81,28.68
		c-0.2,6.93-5.02,13.93-5.81,19.77l-4.84,35.93c-4.99,0.55-1.83,1.32,1.91,2.14c3.48-6.38,9.16-14.48,11.77-21.88L389.36,2673.18z"
		/>
	<path d="M889.13,2811.62c-15.19,53.04-21.94,34.76-49.93,71.74c-14.96,19.76-25.39,66.47-33.29,74.71
		c-14.31,14.93-25.61,29.81-39.08,45.1l-8.35,9.48c-14.94,16.97-34.35,28.33-55.67,36.65c-0.32-11.18,8.7-14.96,16.45-19.82
		c19.01-11.93,37.52-26.9,50.01-45.79c28.65-43.31,27.64-15.1,44.41-65.78c5.04-15.23,9.82-29.97,19.76-42.02l15.82-19.18
		c7.63-9.25,21.25-17.9,25.4-29.98c5.33-15.54,21.28-72.23,20.41-85.36c-2.09-31.5-16.28-44.94-17.47-85.12l-0.75-25.45
		c-1.47-49.71,15.16-57.38,15.32-46.86c0.09,5.63,7.4,11.81,8.91,16.7c6.5,20.99,3.81,39.24,8.01,63.3
		c4.66,26.7-1.33,36.16-1.19,66.88l0.15,34.03c0.13,28.09,2.24,54.64-5.66,81.64c-8.28,28.27-18.81,61.23-36.14,84.21
		c-6.41-2.63-8.72-3.23-15.86-5.05c6.61-11.48,11.73-6.53,23.62-27.86c5.81-10.42,9.64-20.1,12.51-31.64
		c2.52-10.18,7.04-21.14,7.96-31.31l2.15-23.99c0.66-7.33,0.01-15.44-0.43-23.93L889.13,2811.62z M898.98,2679.47
		c-3.19-15.92-2.2-30.02-4.61-46.58l-3.66-25.17c-0.19-1.27-2.49-3.81-3.68-4.71c-1.79,19.92,0.53,81.77,13.31,94.69
		C900.12,2690.97,900.04,2684.8,898.98,2679.47z"/>
	<path d="M1012.18,307.76c-24.5-1.13-15.57,9.01-30.81-7.19c-3.14-3.34-7.91-6.94-8.28-11.67c-1.67-21.7-19.09-13.17-22.06-31.89
		c-2.08-13.1-10.02-21.07-17.18-30.44c-5.96-7.8-15.31-13.59-23.4-8.26c-5.49,3.61-7.02-1.5-8.47-2.88
		c-1.08,2.83-2.05,6.43-3.73,6.55c-1.68,0.13-5.97-1.61-7.27-2.94c-3.7-3.76-9.3-6.71-13.81-9.78l-26.27-17.93
		c-3.96-2.7-8.91-8.02-12.06-12.02c-44.05-9.5-16.31-36.45-60.9-22.01c-6.83-3.95-29.62-9.88-34.03-9.14
		c-7.83,1.31-13.66,0.39-21.3,0.55c-11.62,0.24-31.54,13.27-33.3,2.8c-0.5-2.95-1.62-8.02-3.57-7.94c-1.94,0.08-5.91,1.52-8.62,2.66
		l-21.22-4.24c1.73-7.62,7.15-17.11,12.46-18.13c7.97,2.38,14.45,4.21,22.74,5.84c4.85,0.95,10.11,5.83,15.08,8.42
		c3.91,2.04,12.69-3.02,17.84-4.32c3.94-0.99,11.24,0.33,15.1,0.08c10.44-0.67,18.64-1.54,28.1,3.02
		c22.57,10.88,44.52-10.49,61.97,16.67c2.44,3.8,12.2,5.43,17.4,6.59c20.47,24.16,36.7,25.1,58.96,46.69
		c24.15-8.59,22.83-7.11,42.77,7.29c4.35,3.15,6.99,8.59,8.01,13.17c8.09,6.11,2.1,22.81,22.59,29.95
		c7.77,11.65,9.79,29.94,14.06,32.68c8.95,5.74,12.32-1.28,31.07,3.87c9.73,9.46,13.31,20.97,9.91,34.21
		c-0.75,2.92-8.65,7.37-9.97,4.7C1020.99,324.37,1017.3,314.68,1012.18,307.76z"/>
	<path d="M624.12,3111.9c-6,3.5-12.65,4.43-18.37,9.89c-2.82,2.69-7.37,2.04-11.1-0.48l-1.63,23.5
		c-1.95,28.11,12.51,21.09,13.7,31.53c0.28,2.47-5.74,5.85-8.03,7.36l-2.3,17.74c-2.32,17.94,10.72,37.9-4.73,52.97
		c-1.59-6.95-3.67-14.84-3.57-20.72l0.38-22.55l2.5-28.76c-17.18-18.52-5.78-18.05-8.15-42.87l-1.94-20.3l-4.54-37.77
		c-2.85-23.68-0.88-45.01,8.04-67.38c8.47-21.25,9.17-16.25,23.64-40.01c10.03-16.48,8.36-36.25-3.09-42.18
		c-11.61-6.02-16.34,19.2-17.42,27.1l-3.52,25.69c-11.03-11.06-2.64-21.92-0.71-32.03c2.07-10.87,12.55-41.81,28.65-34.33
		c14.83,6.89,10.29,29.14,11.13,42.68c-6.29,12.4-11.51,24.8-18.94,35.43c-7.03,10.05-11.72,18.29-14.79,30.3
		c-12.5,48.87-0.46,26.95,0.08,80.12l4.63-5.07c0.43,1.38,5.83,6.08,8.25,5.03l29.52-12.82l18.8-12.75
		c21.11-14.32,54.28-10.76,65.27-15.24c16.75-6.83,32.34-18.72,44.08-31.55l25.92-28.32c20.59-22.5-3.28-9.47,24.14-34.27
		c-3.48,9.15-4.5,14.11-4.42,21.24c-5.02,10.73-10.12,16.79-19.33,25.52c-28.28,26.83,0.4,17.18-61.7,56.99
		c-2.78,1.78-9.78,2.34-12.56,3.89c-9.26,5.17-20.63,4.9-30.79,6.07C659.29,3088.07,642.29,3101.29,624.12,3111.9z"/>
	<path d="M492.87,879.66c-17.2-20.05,16.77-17.89,9.63-33.89c-4.39,1.39-12.85,1.76-15.13-2.67c-3.17-6.14-1.35-13.59-0.5-20.04
		l2.59-19.78c1.08-8.29-1.76-16.74,1.93-25.7l6.56,8.73c9.41-0.44,6.35-23.61,8.32-41.64c0.3-2.7,3.54-8.38,2.34-10.53
		c-1.21-2.15-8.27-0.85-10.13,1.27l-19.91,22.72l-26.12,32.18c-1.34,1.65-3.44,6.54-4.94,8.04l-9.54,9.55
		c-2.09-5.9-0.49-12.69,3.76-17.76c9.47-11.3,16.55-25,27.04-35.03l27.57-26.36c28.17-26.94-19.44-21.05,46.2-68.33L558.39,649
		c4.36,3.19,10.78,7.82,14.51,8.72c20.08-12.78,25.47-34.6,42.96-41.33c6.16-2.37,0.31,17.13-14.02,22.33
		c-1.96,15.41-15.42,33.65-28.13,42.98c0.13-0.1-19.89,12.02-24.64,3.79c-1.93-3.34,1.29-9.13,5.69-10.9
		c2.94-1.18,5.18-3.7,5.84-5.85l-8.95-1.26c-5.88,4.81-11.3,8.31-17.31,12.16l-11.7,11.03c-5.9,5.56-10.63,9.56-9.11,19.37
		l11.66-6.96c1.87-1.11,6.01-1.96,7.99-1.26c1.98,0.7,2.6,7.88,1.37,9.6c-5.92,8.24-14.41,18.49-19.03,27.85
		c-2.97,6.03,3.1,16.19,1.63,21.58l-6.23,22.83c-2.53,9.29-2.86,14.17,3.73,22.05c2.58,3.09,5.53,10.1,8.18,13.79
		c4.13,5.74,6.87,9.62,6.15,15.94c-0.87,7.67-5.84,10-10.44,15.21L502.32,869L492.87,879.66z M508.91,827.62l-8.65-12.89
		c-4.24-0.07-4.62,8.88-2.56,12.3C499.38,829.82,507.53,830,508.91,827.62z"/>
	<path d="M466.35,1379.03c-59.16-4.37-12.64-11.74-60.07,8.79c-3.76,1.63-13.25,2.82-17.42,2.46c-22.09-5.12-36.75-11.02-55.75,8.85
		l-25.14,26.31c-14.84-4.4,22.2-37.18,25.18-40.05c7.35-7.07,14.09-15.85,25.78-15.44l18.15,0.63c14.1,0.49,26.13,1.26,38.71-5.98
		c19.65-1.62,10.73-9.55,37.48-3.53c10.48,2.35,19.67,2.18,30.16,1.44c8.79-0.62,18.77,2.74,27.89,3.67l16.89,1.72
		c42.58,22.71,67.47-13.93,98.78,0.1c3.14,1.41-0.14,10.09-2.57,12.62c-6.95,7.24-7.19-5.26-31.9,5.85
		c-19.4,8.72-38.87,9.06-59.72,4.26l-39.35-9.05C484.43,1379.59,475.81,1379.73,466.35,1379.03z"/>
	<path d="M183.92,1313.06c-2.02,9.89-4.74,17.77-8.03,26.81c-1.91,5.24-0.22,15.96-7.36,18.69c-2.03,0.78-2.31-4.14-1.88-5.95
		l6.6-27.96c2-8.49,5.95-20.07,4.11-28.89c-38.76-15.59-23.94-118.49-25.89-129.42l-7.6-42.52l8.31-46.84
		c0.41-2.3-3.07-40.28-3.88-45.53c-4.66-30.38-4.98-28.68-4.84-60.42c0.11-24.23,6.21-7.12,4.25-37.89l-2.17-34.03
		c-2.21-34.6,3.75-38.61,2.33-64.64c-0.66-12.16-3.39-25.52,8.3-35.68c0.74,13.82,1.53,25.81,1.34,37.68
		c-0.34,21.48-4.82,42.63-1.44,63.98c5.43,34.27-7.96,53.81-2.27,94.04l5.63,39.82l2.08,19.88c2.17,20.8-0.63,29.89-8.13,51.55
		c-3.62,10.47-0.89,18.01,2.06,28.53c6.84,24.38,5.44,20.64,4.73,44.89l-0.76,26.28c-0.37,12.88,5.18,10.21,1.09,40.32
		c-0.72,5.3,3.53,16.25,7.5,20.14l21.27,20.84L183.92,1313.06z"/>
	<path d="M857.51,1554.46c4.32,5.02-3.82,17.24-8.43,21.24l-15.41-20.87l-5.49-7.92c-1.21-1.75-6.8,0.57-8.89,0.05
		c-12.47-3.12-16.3-16.6-22.19-25.88c-8.09-12.76-21.59-21.82-23.61-38.15c-1-8.07,0.5-18.87-2.3-26.65
		c-2.44-6.78-4.55-17.87-8.06-22.52c-4.24-5.61-7.53-8.6-9.27-16.22l-11.46-50.15c-0.51-2.23,5.57-7.86,7.58-6.77
		c7.6,4.13,0.28,6.85,9.17,29.62c4.03,10.32,9.57,19.76,16.43,28.46c7.75,17.02,5.51,27.8,17.88,39.88l16.25,15.86
		c8.7,8.49,14.12,18.57,9.56,30.51l12.14,13.08c3.09,8.76,7.32,14.66,13.29,21.58L857.51,1554.46z M806.36,1497.64l-10.89-11.96
		l6.53,15.8c0.35,0.84,4.02,3.93,3.67,3.1C805.33,1503.73,806.97,1498.3,806.36,1497.64z"/>
	<path d="M521.94,1430.89c-24.74-4.18-22.77-11.95-44.03-5.08c-6.86,2.22-16.93,0.53-24.43,0.46l-16.84-0.17
		c-8.08-0.08-17.74,6.25-25.89,8.34c-33.06,8.49-29.92,3.32-49.64,7.13c-3.42,0.66-8.1-0.02-9.31-2.28
		c-8.89-16.73,36.81-16.64,47.35-16.2c10.77,0.45,21.81-6.72,32-8.67l21.84-4.19c-2.01,0.39,46.85-4.34,47.93-4.4
		c11.15-0.64,21.82,18.58,41.05-1.5c6.73,6.56,5.6,18.14-1.86,24.31c-10.73,8.88-17.91,20.46-26.38,31.58
		c-34.94,45.83-15.81,41.18-40.17,79.8l-15.53,24.63c-1.22,1.93-6.98,2.44-7.96,0.42c-1.12-2.29,0-6.87,1.82-9.03
		c31.04-36.88,22.97-60.28,47.48-92.56L521.94,1430.89z"/>
	<path d="M298.22,1302.59c-8.73-8.85-8.48-37.97-8.34-49.39c0.14-12.02,3.23-23.5,7.5-34.85l6.2-16.51l6.5-16.6
		c-7.04-22.93-29.54-60.14-33.51-80.77c-4.99-25.89-8.39-50.96-11.16-77.09c-0.89-8.44-1.68-14.18-4.52-21.96
		c-4.32-11.82-6.35-26.87-4.85-39.32c1.03-8.57,7.96-36.83,14.88-40.78l1.37-5.06c0.4-1.5,4.49-2.67,5.94-2.67
		c-7.13,13.62-10.38,26.79-13.3,41.93c-3.22,16.69,4.86,26.44,9.06,51.57l3.76,22.5c7.14,42.74,7.29,70.56,30.89,109.04
		c3.36,5.49,5.54,13.1,8.06,19.15c14.69,35.24-27.32,46.38-16.3,110.36C301.44,1278.21,306.19,1298.74,298.22,1302.59z"/>
	<path d="M791.17,2108.53c-1.62,7.95-5.83,8.57-12.06,10.57l-27.21,8.75c-1.22,0.39-4.85-1.92-6.03-2.42
		c-1.19-0.5-2.82,5.18-4.43,5.84l-34.93,14.32c-3.5,1.44-10.64,3.83-13.84,3.91c0.84-0.02-39.92-2.06-37.51-1.62l-26-4.71
		c-20.72-3.75-79.36-40.31-52.81-55.3l9.55,12.37c7.79-0.45,11.4,6.57,17.71,10.55c13.04,8.24,29.37,15.19,44.18,18.16l10.58,2.12
		c20.52,4.12,42.76,3.7,61.27-4.47c29.96-13.23,13.37-8.58,45.73-20.23l17.36-6.25c1.57-0.56,6.25,0.08,7.43,0.88
		C791.62,2102.01,791.76,2105.63,791.17,2108.53z"/>
	<path d="M581.72,2486.47c-10.57-4.89-19.4-12.5-30.28-14.78c-8.32-1.74-14.13-7.68-22.06-11.18l-45.09-19.91
		c-1.8-2.31-5.62-7.2-7.8-8.97c-14.81-12.05-23.77-29.37-31.56-47.46c-9.33,4.86-17.21,9.04-27.94,6.04
		c1.12-7.33,5.61-13.2,12.18-19.56l0.87,9.96l17.68-11.24c16.56,7.04,3.75,6.36,24.42,32.1c16.47,20.51,22.91,31.39,49.6,33.39
		c17.23,10.26,33.63,20.78,52.62,27.3c13.41,4.6,24.41,11.31,34.92,21.43l-7.38,14.12C593.3,2491.99,589.91,2490.26,581.72,2486.47z
		"/>
	<path d="M776.08,1350.3c1.7,7.77-6.31,15.19-15.77,15.52c-16.81-31.76-4.39-34.27-15.94-53.46l-13.82-22.94
		c-5.47-9.09-10.94-18.52-15.07-28.3c-2.75-6.51-4.05-14.51-9.58-18.42c-14.12-9.99-25.36-20.45-36.83-33.49l7.59-14.41
		c14.96,8.85,16.31,15.3,29.32,25.16c7.08,5.37,15.37,6.71,18.5,16.04c16.96,50.5,12.91,21.88,33.37,64.62
		c3.63,7.58,8.96,12.63,6.21,22.48C761.86,1331,765.68,1350.91,776.08,1350.3z"/>
	<path d="M635.31,483.38c-29.5-4.96-17.61-12.19-48.62-20.04c-10.64-2.69-18.09-9.86-27.06-16.57c-3.51-2.62-10.06-4.82-12.48-7.64
		c-2.72-3.17-2.76-11.01-2.32-17.39c14.41,1.11,24.46,8.25,35.66,18.46c7.13,4.07,17.38,7.61,25.95,10.88
		c20.57,7.85,1.79,4.75,48.73,18.2c9.92,2.84,21.37-17.68,44.7-15.72c2.24-0.99,6.91-3.67,8.84-5.07
		c7.76-5.64,17.31-11.14,25.29-16.27c13.49-8.69,25.81-18.11,38.49-27.42c4.29-3.15,5.41-8.28,13.98-4.54l-10.5,10.1
		c-10.39,10-21.07,15.34-34.06,30.81l-9.14-1.53c-1.84-0.31-3.64,5.42-5.3,6.31c-10.78,4.74-22.63,13.95-32.71,17.72
		c-10.94,4.1-21.98,5.71-29.64,13.28c-2.39,2.35-8.33,5.4-10.33,7.68C648.78,491.48,641.58,484.43,635.31,483.38z"/>
	<path d="M1045.79,1122.07c-8.52,14.56-15.74,35.71-38.96,31.06l-0.79-4.94c9.48-5.79,22.51-11.67,28.03-21.7
		c21.24-38.6,12.41-30.39,31.01-65.85l1.34-27.35c0.6-12.23,1.89-24.18,1.7-36.07l-0.43-28c-0.34-21.87-0.8-62.94,9.74-81.09
		c1.3-2.24,4.05-5.05,5.67-4.42c1.61,0.62,4.63,6.03,3.1,7.23c-6.35,4.98-7.39,15.92-6.06,24.78c1.66,11.05,0.3,22.9,0.25,34.2
		l-0.11,27.05c-0.04,9.04-0.26,17.35-0.36,26.44l-0.22,18.94c-0.36,31.04-1.16,34.05-12.61,59.24l-8.32,18.3L1045.79,1122.07z"/>
	<path d="M349.64,854.28c-6.87-14.67-6.04-27.3-7.69-42.12c-2.88-25.74-22.45-24.72-12.16-75.03l7.32,14.36
		c1.14-10.6,4.08-24.22,0.26-34.99c-3.66-10.33-8.8-21.08,2.44-29.33c12.42,17.57,13.66,39.14,7.13,58.72
		c8.12,5.34,9.45,12.07,11.76,19.96l5.34,18.27c5.52,18.89,3.1,35.84-5.3,53.1C356.02,842.83,354.47,848.33,349.64,854.28z
		 M354.18,824.56l5.58-12.78c-2.54-8.35-3.72-16.12-6.57-22.7L343,765.59c-4.8,5.25-3.25,10.81,0.82,15.08
		c3.76,3.95,3.62,9.4,4.61,14.45L354.18,824.56z"/>
	<path d="M692.49,2589.57l6.53-8.18l6.34,16.41l-9.19,13.71c-8.29-4.58-17.5-9.2-24.66-14.78c-40.58-53.94-13.52-29.5-62.42-65.15
		c-1.38-1.01-3.44-5.51-3.31-7.21c0.15-2.03,3.32-5.66,4.95-6.49l16.44,9.95l8.44-8.63c9.33,13.9-1.98,10.85,11.45,19.58
		c2.63,1.71,7,0.93,11.19-0.41l9.42,15.57c1.22,2.02-0.62,7.62-1.57,9.9C671.5,2574.02,680.44,2583.75,692.49,2589.57z"/>
	<path d="M767.17,1727.28c-2.27-4.29-5.8-11.72-5.81-16.09c-0.02-16.15-4.18-30.45-8.17-45.61c-2.33-8.88,0.13-19.98-4.93-29.34
		c-5.48-10.12-3.59-21.83-5.38-33.19c-2.94-18.67-13.39-31.26-3.61-36.21c2.11-1.07,5.32,1.68,7.65,3.85
		c12.18,11.31,7.83,26.62,10.55,40.68l9.1,47.04c2.95,15.24,6.34,29.29,6.05,45.36c-0.11,6.18,6.34,15.28,5.17,23.1
		C777.38,1729.67,768.5,1729.8,767.17,1727.28z"/>
	<path d="M670.63,3535.37c0.94-43.26-1.39-57.1-18.73-94.92l-11.41-24.88c-8.79-19.16-23.31-35.89-22.98-60.26
		c16.51,22.36,29.98,46.59,40.57,72.45c3.99,9.73,9.29,18.21,14.86,27.54c4.02,10.17,14.49,84.49,2.88,84.89
		C673.97,3540.26,670.59,3537.41,670.63,3535.37z"/>
	<path d="M892.92,408.82c-3.25-16.95-14.12-11.06-40.07-20.1c-4.68-1.63-15.14,0.52-17.21-6.45c-1.13-3.84,3.84-12.87,7.11-14.44
		l20.81-3.3c10.61-1.68,21.48-2.71,30-10.85c1.65-1.57,6.16-2.81,7.72-1.71c8.59,6.05-13.45,13.37-1.44,30.13
		c7.65,10.68,8.68,25.16-1.27,35.22C896.78,416,893.41,411.38,892.92,408.82z"/>
	<path d="M1088.72,473.57l-10.31,14.82c-7.21-5.07-9.21-13.15-11.73-21.75l-12.36-12.08c-1.75-13.72-16.48-44.61-23.78-54.75
		c-3.02-4.2-5.2-7.74-7.88-13.02c2.94-1.65,8.5-3.78,11.36-4.07c3.13-0.32,8.62,3.96,10.19,7.01l12.39,24.11
		c4.04,7.86,4.47,17.82,10.36,24.53l14.16,16.13L1088.72,473.57z"/>
	<path d="M635.15,570.19l15.88-14.9c4.31-4.04,12.74-21.93,1.86-33.64l-18.64,12.14c-0.91-4.22-1.65-13.3,1.42-15.43
		c14.96-6.64,36.15-30.95,47.04-22.78c-1.08,19.47-22.12,16.8-13.44,44.01l-8.41,15.25c-6.58,11.92-19.47,27.57-31.1,34.98
		C625.4,581.32,629.17,575.8,635.15,570.19z"/>
	<path d="M443.47,1484.33c3.5,3.44-5.24,15.7-9.93,14.19c-5.53-1.78-9.81-8.25-13.15-12.4c-21.04-26.19-52.61-14.64-57.07-22.51
		c-1.37-2.42,0.77-9.52,3.13-11.69c7.22-6.64,18.01-0.32,26.47,1.01c14.42,2.28,25.4,6.7,35.66,16.78L443.47,1484.33z"/>
	<path d="M531.58,1080.58c-5.69,6.92-9.29-4.11-12.52-5.59c-5.26-2.4-9.83-5.89-13.06-10.71c-6.81-10.17-14.8-21.51-2.6-32.09
		c17.29,23.91,17.73,18.77,34.34,36.55C536.04,1072.76,533.54,1078.2,531.58,1080.58z"/>
	<path d="M845.42,2059.69c-0.46,6.79-4.22,11.18-10.5,14.74c-3.06-10.81,1.7-17.41,4.46-25.74l6.57-19.85
		c0.66-9.06-0.55-18.91,12.3-22.61C862.35,2025.82,847.07,2035.39,845.42,2059.69z"/>
	<path d="M60.33,2133.42l-10.91-11.53c7.53,0.58,10.5,6.95,16.08,11.69c1.93,1.64,6.04-5.46,5.52-7.9c-0.52-2.41,0-5.6,0.6-6.34
		c3.66,20.05,26.53,41.99,8.56,49.93c-3.91-6.83-6.87-16.01-9.35-23.86C68.55,2142.46,63.48,2136.75,60.33,2133.42z"/>
	<path d="M1021.95,383.28l-3.46-10.61c-0.6-1.83,4.74-5.1,6.62-4.9C1027.29,372.3,1025.03,378.86,1021.95,383.28z"/>
	<rect x="772.56" y="1073.22" transform="matrix(0.6856 -0.728 0.728 0.6856 -541.5945 903.3507)" width="5.02" height="10.99"/>
	<path d="M48.34,2121.59c-4.98-5.02-3.97-13.89-2.22-20.62L48.34,2121.59z"/>
	<path d="M863.9,744.84l-1.09-9.77c1.9,1.11,4.75,2.35,4.27,3.32L863.9,744.84z"/>
	<path d="M77.86,446.01c1.01,2.18-0.15-0.33-1.24-2.68c0.4-1.81,0.51-4.32,1.37-4.14l3.4,0.73
		C82.68,440.19,80.19,442.96,77.86,446.01z"/>
</g>
</svg>
